<svg width="59" height="59" viewBox="0 0 59 59" fill="none" xmlns="http://www.w3.org/2000/svg">
<path d="M29.6771 36.9502L33.3726 40.6457L44.4593 29.5591L33.3726 18.4725L29.6771 22.168L34.455 26.946H14.7594V32.1722H34.455L29.6771 36.9502Z" fill="#D9D9D9"/>
<path fill-rule="evenodd" clip-rule="evenodd" d="M49.8669 49.8845C61.0923 38.659 61.0923 20.459 49.8669 9.23354C38.6414 -1.99191 20.4414 -1.99191 9.21596 9.23354C-2.00949 20.459 -2.00949 38.659 9.21596 49.8845C20.4414 61.1099 38.6414 61.1099 49.8669 49.8845ZM46.1713 46.1889C55.3558 37.0045 55.3558 22.1135 46.1713 12.9291C36.9869 3.74462 22.0959 3.74462 12.9115 12.9291C3.72704 22.1135 3.72704 37.0045 12.9115 46.1889C22.0959 55.3734 36.9869 55.3734 46.1713 46.1889Z" fill="#D9D9D9"/>
</svg>
