<svg width="59" height="59" viewBox="0 0 59 59" fill="none" xmlns="http://www.w3.org/2000/svg">
<path d="M29.4917 36.9502L25.7961 40.6457L14.7095 29.5591L25.7961 18.4725L29.4917 22.168L24.7137 26.946H44.4093V32.1722H24.7137L29.4917 36.9502Z" fill="#a6763c"/>
<path fill-rule="evenodd" clip-rule="evenodd" d="M9.3019 49.8845C-1.92355 38.659 -1.92355 20.459 9.3019 9.23354C20.5273 -1.99191 38.7274 -1.99191 49.9528 9.23354C61.1783 20.459 61.1783 38.659 49.9528 49.8845C38.7274 61.1099 20.5273 61.1099 9.3019 49.8845ZM12.9974 46.1889C3.81298 37.0045 3.81298 22.1135 12.9974 12.9291C22.1819 3.74462 37.0728 3.74462 46.2573 12.9291C55.4417 22.1135 55.4417 37.0045 46.2573 46.1889C37.0728 55.3734 22.1819 55.3734 12.9974 46.1889Z" fill="#a6763c"/>
</svg>
