<svg width="74" height="65" viewBox="0 0 74 65" fill="none" xmlns="http://www.w3.org/2000/svg">
<g clip-path="url(#clip0_2258_4414)">
<path d="M27.4688 39.8411C27.4718 40.2508 27.5225 40.6588 27.6198 41.0564C27.7239 41.4776 27.8911 41.8801 28.1157 42.2498C28.822 41.9314 29.4792 41.511 30.067 41.0017C30.8846 40.2667 31.6451 39.4687 32.3418 38.6149C32.8593 38.0018 33.5385 37.1661 34.3794 36.1077L35.8779 34.2246H34.7999C34.1207 34.2246 33.4846 34.2246 32.9132 34.3341L31.8998 34.4436C31.8439 34.8531 31.75 35.2563 31.6195 35.6479C31.4431 36.1931 31.1649 36.6986 30.8001 37.1369C29.9789 38.1168 28.824 38.7463 27.5659 38.8996C27.5794 39.0306 27.5794 39.1627 27.5659 39.2937C27.5489 39.4721 27.5489 39.6518 27.5659 39.8302M27.8462 38.2427C28.3961 38.1023 28.9203 37.8731 29.3986 37.5639C29.7767 37.3107 30.1179 37.0048 30.412 36.6551C30.7595 36.2552 31.0465 35.805 31.2637 35.3194C31.3676 35.0951 31.4332 34.8545 31.4578 34.6078C31.0399 34.7357 30.6326 34.8968 30.2395 35.0895C29.7173 35.3605 29.2523 35.7324 28.8704 36.1844C28.539 36.485 28.2553 36.8358 28.0295 37.2245C27.8893 37.5526 27.795 37.899 27.7492 38.2536L27.8462 38.2427ZM27.954 30.6554C25.9576 30.8035 24.0761 31.66 22.639 33.075C21.8982 33.6757 21.2837 34.4212 20.8318 35.2675C20.38 36.1138 20.1 37.0436 20.0085 38.0018C20.0047 38.673 20.1346 39.3381 20.3902 39.9571C20.6459 40.5761 21.0221 41.1362 21.4962 41.6038C22.4723 42.5393 23.7658 43.0569 25.1078 43.049C25.6651 43.0448 26.2195 42.9676 26.7573 42.8191C27.1355 42.7213 27.4984 42.5702 27.8354 42.3702C27.642 41.9576 27.4833 41.5291 27.361 41.0892C27.2419 40.647 27.1838 40.1901 27.1885 39.7316C27.1783 39.5347 27.1783 39.3374 27.1885 39.1404V38.8667C26.5357 38.8948 25.8952 38.6801 25.3872 38.2629C24.8791 37.8456 24.5383 37.2546 24.4286 36.6004C24.4262 36.2463 24.5275 35.8995 24.7197 35.6041C24.903 35.3632 25.0539 35.2428 25.1833 35.2428C25.2288 35.2277 25.2779 35.2277 25.3235 35.2428C25.3451 35.2592 25.3623 35.2808 25.3736 35.3056C25.3849 35.3305 25.3899 35.3578 25.3881 35.3851C25.3632 35.4854 25.3176 35.5792 25.2544 35.6603C25.1913 35.7415 25.1119 35.8081 25.0216 35.8559C24.9041 35.9442 24.8095 36.0599 24.7456 36.1934C24.6818 36.3268 24.6507 36.474 24.655 36.6223C24.655 38.1222 26.4015 38.2646 27.3287 38.2646C27.5433 37.3041 28.0132 36.4218 28.6871 35.7136C29.4385 34.9855 30.3637 34.4685 31.3715 34.2137V33.6224C31.3879 33.1809 31.2983 32.7418 31.1105 32.3432C30.9227 31.9446 30.6423 31.5983 30.2934 31.3342C29.5985 30.8745 28.7832 30.6379 27.954 30.6554ZM39.1877 33.6662C39.6643 32.687 40.2083 31.7431 40.8156 30.8415C41.4566 29.8927 42.1513 28.9824 42.8963 28.1154C44.3428 26.4139 46.0283 24.9383 47.8986 23.736C46.2168 23.8784 42.9718 26.298 41.1821 28.4986C40.3197 29.5058 39.5866 30.4255 38.9721 31.2904C38.3575 32.1554 37.7969 32.9436 37.2902 33.6772L39.1877 33.6662ZM28.5146 43.2461C28.1439 43.3744 27.7608 43.4624 27.3718 43.5088C26.9223 43.5793 26.4683 43.6159 26.0134 43.6183C24.3985 43.6516 22.8231 43.1092 21.5609 42.0855C20.8884 41.5056 20.353 40.7793 19.9947 39.9605C19.6363 39.1417 19.4642 38.2514 19.491 37.3558C19.4877 36.2777 19.7257 35.2128 20.187 34.2418C20.6483 33.2707 21.3209 32.4187 22.1539 31.7503C23.5281 30.5716 25.2509 29.8933 27.0484 29.8233C28.3743 29.7913 29.6608 30.2817 30.6384 31.1919C31.0348 31.5643 31.3527 32.0142 31.5732 32.5148C31.7937 33.0153 31.9121 33.5559 31.9214 34.1042L33.3121 33.9728C34.0883 33.8998 35.0658 33.8597 36.2445 33.8524C36.9632 32.9765 37.6819 32.0605 38.4007 31.1043C39.1553 30.1627 39.8022 29.3526 40.3628 28.7176C41.4926 27.3815 42.7818 26.1936 44.2008 25.1812C45.0981 24.5244 46.0768 23.9906 47.1116 23.5937C48.0137 23.2871 48.9359 23.0456 49.8715 22.8711C48.9509 22.4477 47.99 22.1212 47.0038 21.8967C45.3749 21.5287 43.7132 21.3306 42.0446 21.3055C38.2138 21.4515 35.5222 22.32 33.9697 23.9112C32.4173 25.5024 31.6698 26.9184 31.7273 28.1592C31.7076 28.8378 31.9339 29.5001 32.3634 30.0204C32.5897 30.2664 32.8661 30.4594 33.1733 30.5861C33.4804 30.7127 33.8111 30.77 34.1422 30.754C34.79 30.7281 35.4253 30.5659 36.0081 30.2775C36.5908 29.9892 37.1082 29.581 37.5274 29.0789C38.2847 28.3017 38.7598 27.2865 38.875 26.1994C38.875 25.7068 38.7025 25.4002 38.4654 25.2907C38.3674 25.2599 38.2786 25.2047 38.2071 25.1301C38.1355 25.0555 38.0835 24.964 38.0557 24.8637C38.0477 24.8447 38.0435 24.8242 38.0435 24.8035C38.0435 24.7828 38.0477 24.7623 38.0557 24.7433C38.0941 24.7299 38.1358 24.7299 38.1743 24.7433C38.4007 24.7433 38.6055 24.9404 38.8103 25.3017C39.0159 25.7233 39.1194 26.1888 39.1122 26.6593C39.0725 27.8364 38.5765 28.95 37.7323 29.7577C36.8903 30.6211 35.7582 31.1295 34.5627 31.1809C34.0893 31.1829 33.6204 31.0869 33.1848 30.8986C32.7492 30.7104 32.356 30.4339 32.0292 30.0861C31.2927 29.2532 30.9058 28.161 30.9511 27.0425C30.9631 26.2027 31.1556 25.3757 31.515 24.6193C31.8744 23.8629 32.392 23.1953 33.0318 22.6631C34.4549 21.3055 36.762 20.5939 39.9639 20.4734C41.1695 20.4656 42.3737 20.5572 43.5647 20.7471C44.6644 20.9369 45.6706 21.1559 46.5834 21.404L48.9228 22.0719C49.4342 22.2392 49.962 22.3493 50.4968 22.4003C50.8486 22.3918 51.1901 22.2775 51.4779 22.0719C51.6255 21.9423 51.7885 21.8319 51.963 21.7434C52.0097 21.7386 52.0568 21.7474 52.0988 21.7687C52.1408 21.7901 52.1759 21.823 52.2002 21.8639C52.2517 21.9614 52.2777 22.0707 52.2757 22.1814C52.2585 22.361 52.2187 22.5376 52.1571 22.7069C52.1123 22.8596 52.0431 23.0039 51.9522 23.1339C51.8796 23.2057 51.7839 23.2485 51.6827 23.2543C51.4314 23.2713 51.1793 23.2713 50.9281 23.2543C50.0623 23.224 49.2038 23.4241 48.4377 23.8346C47.4355 24.489 46.5527 25.3151 45.8287 26.2761C44.9912 27.2556 44.2238 28.2947 43.5324 29.3854C42.6608 30.7148 41.8896 32.1092 41.2253 33.5567C42.2501 33.5984 43.27 33.392 44.2008 32.9546C44.8584 32.5604 45.1926 32.1225 45.1926 31.6627C45.1888 31.5811 45.1686 31.5012 45.1334 31.4278C45.0982 31.3544 45.0487 31.289 44.9878 31.2357C44.9272 31.1844 44.8778 31.121 44.8425 31.0494C44.8073 30.9778 44.787 30.8996 44.783 30.8196C44.7872 30.7254 44.8105 30.6331 44.8513 30.5483C44.8921 30.4636 44.9495 30.3883 45.0201 30.327C45.1468 30.2043 45.3097 30.1274 45.4837 30.108C45.5678 30.1053 45.6513 30.1238 45.7266 30.1621C45.8019 30.2003 45.8666 30.257 45.9149 30.327C46.0052 30.4745 46.0503 30.646 46.0443 30.8196C45.9925 31.5416 45.6634 32.214 45.1279 32.6918C44.5098 33.4582 43.1479 33.8743 41.042 33.9399C40.5721 35.0317 40.1654 36.1503 39.8237 37.2902C39.4409 38.5021 39.2268 39.7624 39.1877 41.0345C39.1589 41.6971 39.2961 42.3564 39.5866 42.9505C40.6647 44.7898 42.2818 42.206 42.6483 41.0564C42.8208 40.509 42.9718 40.2134 43.1011 40.1805C43.1462 40.1628 43.1962 40.1628 43.2413 40.1805C43.2603 40.1986 43.275 40.2208 43.2843 40.2454C43.2936 40.2701 43.2973 40.2965 43.2952 40.3229C43.1731 40.9607 42.9196 41.5651 42.5513 42.0965C42.2489 42.5502 41.8861 42.9592 41.4732 43.3118C40.4706 44.0782 39.317 43.7825 38.5839 42.0746C37.8284 40.196 37.7145 38.1145 38.2605 36.1625C38.4574 35.4171 38.7023 34.6856 38.9936 33.9728L36.956 34.0275C36.3415 34.8925 35.7486 35.7683 35.1772 36.6332C34.6058 37.4982 34.0344 38.4397 33.4199 39.228C32.8121 40.0197 32.1336 40.7527 31.3931 41.4177C30.6232 42.1072 29.7634 42.6856 28.838 43.1366C29.2288 43.5739 29.7016 43.9275 30.2288 44.1767C30.6598 44.3727 31.1257 44.477 31.5979 44.4832C33.2905 44.3628 33.3876 43.7935 33.6786 43.3227C33.7864 43.1475 34.1853 42.7643 34.3686 42.9067C34.391 42.9223 34.4088 42.9438 34.4202 42.9688C34.4316 42.9939 34.4361 43.0216 34.4333 43.049C34.4333 43.268 34.1961 43.5964 33.7325 44.0344C33.1592 44.5169 32.4395 44.7837 31.695 44.7898C30.9769 44.7851 30.2732 44.5847 29.6574 44.2095C29.2629 43.9439 28.901 43.6315 28.5793 43.2789L28.5146 43.2461Z" fill="#A6763C"/>
<path fill-rule="evenodd" clip-rule="evenodd" d="M33.0638 6.1092V6.31722L32.9884 6.14205H33.0638M33.0638 5.59463V5.92308L32.9021 5.97782L32.762 5.69316C32.8656 5.66136 32.9666 5.62109 33.0638 5.57273V5.59463ZM33.0638 4.99247V5.37566L32.9668 5.44135C32.8051 5.52894 32.6434 5.50704 32.5895 5.44135C32.5356 5.37566 32.5895 5.16764 32.7943 5.08005C32.829 5.04266 32.8707 5.01273 32.917 4.99204C32.9633 4.97135 33.0132 4.96032 33.0638 4.95962V4.99247ZM30.5195 1.53278L32.3415 4.95962L32.4493 5.14574C32.554 4.9961 32.7005 4.8817 32.8698 4.81729C32.6629 4.45367 32.5481 4.04365 32.5356 3.62392C32.6973 2.76994 32.9991 4.02901 33.0207 4.25892V3.20788C32.7943 2.52908 32.169 2.27727 32.0612 3.60202C31.63 2.18968 31.3604 1.92692 30.5195 1.53278ZM33.0638 5.34282C33.1096 5.31084 33.1445 5.26527 33.1638 5.21236C33.1831 5.15944 33.1859 5.10176 33.1716 5.04721C33.1618 5.02495 33.1469 5.0054 33.1282 4.99016C33.1094 4.97493 33.0874 4.96446 33.0638 4.95962V5.34282ZM34.4007 9.41562V10.3791H33.7969C33.7969 10.1492 33.7969 9.9083 33.7969 9.65648C33.9934 9.56441 34.195 9.48398 34.4007 9.41562ZM34.4007 7.49965C34.1722 7.57609 33.949 7.66752 33.7322 7.77336L33.5813 7.85C33.6568 8.26604 33.7215 8.76966 33.7538 9.29519C33.9648 9.20263 34.1808 9.12222 34.4007 9.05432V8.75871C34.2993 8.74229 34.2071 8.68973 34.1405 8.61047C34.074 8.53121 34.0374 8.43044 34.0374 8.32625C34.0374 8.22207 34.074 8.1213 34.1405 8.04204C34.2071 7.96277 34.2993 7.91021 34.4007 7.89379V7.49965ZM34.4007 6.45955V7.13835C34.1311 7.22483 33.8681 7.33094 33.6136 7.45586H33.5166C33.4901 7.24634 33.4203 7.04487 33.3118 6.86464C33.6654 6.70805 34.0292 6.57636 34.4007 6.4705V6.45955ZM34.4007 5.22238L34.1419 5.15669C33.9133 5.59574 33.5273 5.92887 33.0638 6.08731V6.29533L33.2363 6.70042C33.6145 6.50479 34.0075 6.34004 34.4114 6.20774L34.4007 5.22238ZM34.4007 4.69686V5.01436L34.0772 4.92678C33.9832 5.15172 33.8433 5.35389 33.6668 5.51996C33.4903 5.68602 33.2811 5.81222 33.053 5.89024V5.56178C33.2426 5.48968 33.4132 5.37411 33.5516 5.22409C33.6899 5.07408 33.7923 4.89365 33.8508 4.69686V4.53263L33.991 4.59832C34.1231 4.65032 34.2605 4.68705 34.4007 4.70781V4.69686ZM34.4007 2.28821V2.99986C33.7969 2.47434 34.2821 3.67866 34.4007 3.88668C33.4196 3.28452 33.5166 1.697 34.4007 2.29916V2.28821ZM33.0638 4.23703C33.1708 3.90632 33.1708 3.54954 33.0638 3.21883V4.23703ZM35.6836 9.12001V10.39H34.4007V9.41562C34.819 9.27935 35.2483 9.18043 35.6836 9.12001ZM35.6836 7.20404V7.52155C35.5823 7.53797 35.49 7.59053 35.4235 7.66979C35.3569 7.74905 35.3203 7.84982 35.3203 7.95401C35.3203 8.05819 35.3569 8.15896 35.4235 8.23822C35.49 8.31749 35.5823 8.37005 35.6836 8.38647V8.75871C35.249 8.81778 34.8199 8.91299 34.4007 9.04337V8.75871C34.502 8.74229 34.5942 8.68973 34.6608 8.61047C34.7273 8.53121 34.7639 8.43044 34.7639 8.32625C34.7639 8.22207 34.7273 8.1213 34.6608 8.04204C34.5942 7.96277 34.502 7.91021 34.4007 7.89379V7.5106C34.8187 7.37061 35.2479 7.26804 35.6836 7.20404ZM35.6836 6.1092C35.2484 6.18068 34.8194 6.28684 34.4007 6.42671V7.10551C34.8199 6.97512 35.249 6.87992 35.6836 6.82085V6.1092ZM35.6836 5.14574V5.87929C35.2487 5.94741 34.8198 6.0499 34.4007 6.18584V5.24428C34.8274 5.31701 35.2644 5.29837 35.6836 5.18954V5.14574ZM35.6836 4.60927V4.92678C35.2619 5.02912 34.8224 5.02912 34.4007 4.92678V4.70781C34.8257 4.80325 35.2679 4.78438 35.6836 4.65307V4.60927ZM35.6836 3.98522C35.5681 3.94599 35.4433 3.94599 35.3278 3.98522C35.1014 3.98522 34.9289 4.18229 34.9505 4.31367C34.972 4.44505 35.1769 4.51074 35.4033 4.456C35.5012 4.45197 35.5969 4.42579 35.6836 4.37936V3.98522ZM35.6836 2.02545V3.87573C35.559 3.85066 35.4308 3.85066 35.3062 3.87573C35.1318 3.9082 34.9706 3.99195 34.8427 4.1166C34.8034 3.71956 34.658 3.34098 34.4222 3.02176V2.29916C34.5612 2.40033 34.6879 2.51794 34.7995 2.64951C34.6047 2.23821 34.4964 1.79017 34.4815 1.33398C34.4667 0.877798 34.5456 0.423476 34.7133 0C35.2739 0.624058 35.4248 1.09484 35.468 2.50718C35.5262 2.35468 35.5984 2.20806 35.6836 2.06925V2.02545ZM35.6836 3.83194H35.8345C35.7488 3.42892 35.7674 3.01023 35.8884 2.61667C36.3089 1.83933 36.2118 3.20788 36.1687 3.4378C36.8803 2.50718 36.3089 0.95251 35.6512 1.97071L35.6836 3.83194ZM35.6836 4.30272C35.7155 4.28151 35.7412 4.2521 35.7583 4.21748C35.7753 4.18286 35.783 4.14427 35.7806 4.10565C35.7747 4.07934 35.7628 4.05478 35.746 4.03389C35.7291 4.013 35.7078 3.99634 35.6836 3.98522V4.30272ZM37.0635 8.97768V10.39H35.6836V9.12001C36.1263 9.0548 36.5731 9.02187 37.0204 9.02148L37.0635 8.97768ZM37.0635 7.06171V7.35732C36.9622 7.37374 36.87 7.4263 36.8034 7.50557C36.7368 7.58483 36.7003 7.6856 36.7003 7.78978C36.7003 7.89397 36.7368 7.99474 36.8034 8.074C36.87 8.15326 36.9622 8.20582 37.0635 8.22224V8.61639C36.6008 8.63034 36.1396 8.6779 35.6836 8.75871V8.39742C35.7849 8.381 35.8771 8.32843 35.9437 8.24917C36.0103 8.16991 36.0468 8.06914 36.0468 7.96496C36.0468 7.86077 36.0103 7.76 35.9437 7.68074C35.8771 7.60148 35.7849 7.54892 35.6836 7.53249V7.20404C36.1263 7.13883 36.5731 7.1059 37.0204 7.10551L37.0635 7.06171ZM37.0635 5.96687V6.68947C36.6165 6.68714 36.1698 6.71641 35.7267 6.77706V6.153C36.1616 6.08161 36.6014 6.04501 37.042 6.04351L37.0635 5.96687ZM37.0635 4.47789H36.9988C36.6177 4.80634 36.1679 5.04223 35.6836 5.16764V5.90118C36.1189 5.8343 36.5586 5.80135 36.9988 5.80265H37.0635V4.47789ZM37.0635 3.7334V4.14944L36.9988 4.0947C36.6345 4.47043 36.1818 4.74552 35.6836 4.89393V4.65307C36.1661 4.48838 36.5974 4.19764 36.9342 3.81004L36.9988 3.74435L37.0635 3.7334ZM38.3788 9.12001V10.39H37.0635V9.02148C37.5037 9.02294 37.9432 9.05587 38.3788 9.12001ZM38.3788 7.20404V7.56534C38.2775 7.58176 38.1853 7.63432 38.1187 7.71358C38.0521 7.79285 38.0155 7.89362 38.0155 7.9978C38.0155 8.10198 38.0521 8.20276 38.1187 8.28202C38.1853 8.36128 38.2775 8.41384 38.3788 8.43026V8.75871C37.9431 8.69561 37.5036 8.66269 37.0635 8.66018V8.28793C37.1648 8.27151 37.2571 8.21895 37.3236 8.13969C37.3902 8.06043 37.4268 7.95966 37.4268 7.85547C37.4268 7.75129 37.3902 7.65052 37.3236 7.57126C37.2571 7.49199 37.1648 7.43943 37.0635 7.42301V7.11646C37.5037 7.11774 37.9432 7.15066 38.3788 7.21499V7.20404ZM38.3788 6.1092V6.8099C37.9431 6.7468 37.5036 6.71388 37.0635 6.71137V6.05446C37.5041 6.05582 37.9439 6.09243 38.3788 6.16395V6.1092ZM38.3788 5.14574V5.87929C37.9438 5.80873 37.5041 5.77213 37.0635 5.7698V4.55453C37.4467 4.87283 37.8966 5.09757 38.3788 5.21144V5.14574ZM38.3788 4.60927C37.8713 4.45309 37.4161 4.15756 37.0635 3.7553V4.17134C37.4303 4.53668 37.8831 4.80053 38.3788 4.93773V4.60927ZM38.3788 3.94142V4.37936C38.271 4.31367 38.2063 4.22608 38.2171 4.13849C38.2291 4.10332 38.2506 4.07231 38.2792 4.04906C38.3079 4.02581 38.3424 4.01127 38.3788 4.00711V3.94142ZM38.3788 2.18968V3.87573C38.3036 3.88396 38.2305 3.90623 38.1632 3.94142C38.2484 3.53836 38.2298 3.1198 38.1093 2.72615C37.6888 1.94881 37.7858 3.31736 37.829 3.54728C37.0635 2.57287 37.7319 0.963459 38.3788 2.18968ZM38.3788 4.37936C38.4455 4.42035 38.5183 4.44994 38.5944 4.46694C38.8208 4.46694 39.0257 4.46694 39.0472 4.32462C39.0688 4.18229 38.8963 4.05091 38.6699 3.99616C38.5708 3.97113 38.4671 3.97113 38.368 3.99616L38.3788 4.37936ZM39.6294 9.41562V10.39H38.3788V9.12001C38.8032 9.18229 39.2215 9.28118 39.6294 9.41562ZM39.6294 7.49965V7.8281C39.5281 7.84452 39.4358 7.89708 39.3693 7.97635C39.3027 8.05561 39.2661 8.15638 39.2661 8.26056C39.2661 8.36475 39.3027 8.46552 39.3693 8.54478C39.4358 8.62404 39.5281 8.6766 39.6294 8.69302V9.04337C39.2207 8.91454 38.8025 8.81934 38.3788 8.75871V8.43026C38.4801 8.41384 38.5723 8.36128 38.6389 8.28202C38.7055 8.20276 38.7421 8.10198 38.7421 7.9978C38.7421 7.89362 38.7055 7.79285 38.6389 7.71358C38.5723 7.63432 38.4801 7.58176 38.3788 7.56534V7.21499C38.8031 7.27753 39.2215 7.37642 39.6294 7.5106V7.49965ZM39.6294 6.48145C39.2211 6.34327 38.803 6.23713 38.3788 6.16395V6.86464C38.8025 6.92546 39.2207 7.02065 39.6294 7.1493V6.48145ZM39.6294 5.23333V6.24058C39.2208 6.10608 38.8028 6.00359 38.3788 5.93403V5.21144C38.7898 5.30542 39.2154 5.31288 39.6294 5.23333ZM39.6294 4.70781V5.02531C39.218 5.12249 38.7902 5.12249 38.3788 5.02531V4.67496C38.7862 4.79331 39.2165 4.80462 39.6294 4.70781ZM39.6294 2.28821V2.99986C39.3936 3.31908 39.2482 3.69766 39.2089 4.0947C39.0809 3.97005 38.9198 3.8863 38.7453 3.85383C38.6382 3.83606 38.529 3.83606 38.4219 3.85383V2.18968C38.4824 2.29568 38.5364 2.40537 38.5836 2.51813C38.5836 1.09484 38.7669 0.635007 39.3383 0.0109484C39.5093 0.432914 39.5919 0.886445 39.5808 1.34262C39.5696 1.7988 39.465 2.24762 39.2736 2.66046C39.3765 2.52186 39.496 2.39682 39.6294 2.28821ZM39.6294 3.89763C39.7803 3.59107 40.1469 2.61667 39.6294 3.04365V2.28821C40.4811 1.74079 40.5242 3.28452 39.6294 3.88668V3.89763ZM39.6294 7.18215V6.48145C39.9983 6.60186 40.3585 6.74819 40.7075 6.91938C40.6041 7.09321 40.538 7.28719 40.5134 7.4887H40.4595C40.1917 7.35418 39.9142 7.24072 39.6294 7.1493V7.18215ZM39.6294 9.09811V8.75871C39.7307 8.74229 39.8229 8.68973 39.8895 8.61047C39.9561 8.53121 39.9926 8.43044 39.9926 8.32625C39.9926 8.22207 39.9561 8.1213 39.8895 8.04204C39.8229 7.96277 39.7307 7.91021 39.6294 7.89379V7.56534C39.8615 7.64121 40.0884 7.73265 40.3086 7.83905L40.4164 7.89379C40.3409 8.30983 40.2762 8.81346 40.2439 9.33898C40.0445 9.23242 39.8393 9.13738 39.6294 9.05432V9.09811ZM39.6294 10.4338V9.41562C39.8311 9.48085 40.0291 9.55761 40.2223 9.64554C40.2223 9.89735 40.2223 10.1492 40.2223 10.3791L39.6294 10.4338ZM40.9662 6.1092C40.5027 5.95076 40.1168 5.61763 39.8881 5.17859L39.6617 5.23333V6.24058C40.0543 6.371 40.4364 6.53205 40.8045 6.72231L40.9662 6.31722V6.1092ZM40.9662 5.56178C40.7767 5.48968 40.6061 5.37411 40.4677 5.22409C40.3293 5.07408 40.2269 4.89365 40.1684 4.69686V4.53263L40.0283 4.59832C39.924 4.64489 39.8158 4.68154 39.7048 4.70781V5.02531L39.8881 4.93773C39.9821 5.16267 40.122 5.36484 40.2986 5.53091C40.4751 5.69697 40.6843 5.82317 40.9123 5.90118L40.9662 5.56178ZM40.9662 4.95962V5.34282C40.9204 5.31084 40.8855 5.26527 40.8662 5.21236C40.8469 5.15944 40.8442 5.10176 40.8584 5.04721C40.8682 5.02495 40.8831 5.0054 40.9019 4.99016C40.9206 4.97493 40.9427 4.96446 40.9662 4.95962ZM40.9662 3.20788V4.22608C40.8592 3.89537 40.8592 3.53859 40.9662 3.20788ZM40.9662 4.22608C40.9662 4.00711 41.2896 2.7371 41.4513 3.59107C41.4355 4.01175 41.317 4.42184 41.1064 4.78445C41.2757 4.84886 41.4221 4.96325 41.5268 5.1129L41.6346 4.92678L43.4782 1.53278C42.6372 1.92692 42.4001 2.22252 41.8934 3.60202C41.7856 2.28821 41.1603 2.50718 40.9339 3.20788L40.9662 4.22608ZM40.9662 5.32092V4.95962C41.0498 4.92865 41.1414 4.92865 41.225 4.95962C41.3867 5.04721 41.4729 5.21144 41.4298 5.32092C41.3867 5.4304 41.2142 5.4523 41.0525 5.32092H40.9662ZM40.9662 5.87929V5.55084C41.0638 5.59554 41.1647 5.63215 41.2681 5.66032L41.1279 5.94498L40.9662 5.87929ZM40.9662 6.30627V6.1092H41.0417L40.9662 6.30627Z" fill="#A6763C"/>
<path fill-rule="evenodd" clip-rule="evenodd" d="M19.5449 13.8826C18.1523 15.0097 16.8739 16.2751 15.7285 17.6598C16.308 16.7066 16.6511 15.6247 16.7281 14.5072C16.8051 13.3897 16.6137 12.2699 16.1705 11.244C16.1705 11.244 12.8715 14.0687 14.5102 19.3349L14.4347 19.4443C13.5519 20.7358 12.8005 22.1151 12.1923 23.5609C12.3867 22.5242 12.3356 21.4554 12.0432 20.4427C11.7508 19.4299 11.2254 18.5023 10.5105 17.7364C9.8997 19.0357 9.65784 20.4822 9.8121 21.9135C9.96637 23.3447 10.5106 24.7039 11.3838 25.8382C10.9042 27.4598 10.6041 29.1306 10.4889 30.8197C10.3267 29.8695 9.93844 28.9739 9.35788 28.2107C8.77732 27.4475 8.02204 26.8398 7.15765 26.4404C6.98456 27.8258 7.20157 29.2327 7.78352 30.498C8.36548 31.7633 9.28856 32.8353 10.4458 33.5897C10.5051 34.9422 10.66 36.2887 10.9094 37.6187C10.5102 36.9089 9.95161 36.3049 9.27904 35.8559C8.60647 35.4069 7.83897 35.1256 7.03906 35.0349C7.15896 36.4098 7.68232 37.7166 8.54144 38.7862C9.40056 39.8558 10.5559 40.639 11.8581 41.0346C12.7575 43.3238 13.9036 45.5049 15.2757 47.5379C14.8121 46.892 12.0414 43.3228 8.37589 45.0745C9.06831 46.2457 10.1355 47.1401 11.3991 47.6084C12.6627 48.0767 14.0463 48.0904 15.3188 47.6474L15.3727 47.7897V47.735C15.7824 48.3262 16.2352 48.8955 16.7095 49.4429C17.389 50.2093 18.1604 50.8861 19.0058 51.4574C18.025 50.9343 16.9037 50.7476 15.8097 50.9252C14.7157 51.1028 13.7076 51.6352 12.9362 52.4428C13.9735 53.2875 15.2726 53.7303 16.6016 53.6922C17.9306 53.6541 19.2031 53.1376 20.1917 52.2348L20.3211 52.3005C22.0599 53.2157 23.8614 54.0024 25.7116 54.6544C24.5839 54.547 23.4513 54.7979 22.4702 55.3726C21.4891 55.9472 20.708 56.8172 20.2349 57.8623C20.2349 57.8623 24.0082 59.3622 26.8975 55.1142L27.512 55.3551L28.4715 55.6945C28.2969 55.8972 28.1484 56.1216 28.0294 56.3623C27.8391 56.7423 27.6909 57.1425 27.5874 57.5557C27.4917 57.5827 27.4077 57.6417 27.349 57.7231C27.2903 57.8046 27.2604 57.9037 27.264 58.0046C27.2543 58.0656 27.2577 58.1281 27.2741 58.1876C27.2905 58.2472 27.3194 58.3024 27.3589 58.3495C27.3984 58.3966 27.4475 58.4344 27.5027 58.4604C27.558 58.4863 27.6182 58.4997 27.6791 58.4997C27.74 58.4997 27.8001 58.4863 27.8554 58.4604C27.9107 58.4344 27.9597 58.3966 27.9992 58.3495C28.0387 58.3024 28.0676 58.2472 28.084 58.1876C28.1004 58.1281 28.1038 58.0656 28.0941 58.0046C28.0954 57.9306 28.0795 57.8573 28.0476 57.7907C28.0158 57.7242 27.9689 57.6661 27.9109 57.6214V57.501C28.0031 57.1724 28.1258 56.8535 28.2774 56.5485C28.4034 56.2826 28.5749 56.0416 28.7841 55.8368L29.3555 56.0339C29.1995 56.1938 29.0654 56.3742 28.9566 56.5703C28.7716 56.9095 28.6509 57.2808 28.6008 57.6652C28.5905 57.8037 28.5905 57.9427 28.6008 58.0812V58.1469C28.533 58.1892 28.4773 58.249 28.4395 58.3201C28.4016 58.3912 28.3829 58.4712 28.3852 58.552C28.3755 58.613 28.3789 58.6755 28.3953 58.7351C28.4117 58.7946 28.4406 58.8499 28.4801 58.8969C28.5196 58.944 28.5687 58.9818 28.6239 59.0078C28.6792 59.0337 28.7394 59.0471 28.8003 59.0471C28.8612 59.0471 28.9213 59.0337 28.9766 59.0078C29.0319 58.9818 29.081 58.944 29.1204 58.8969C29.1599 58.8499 29.1888 58.7946 29.2052 58.7351C29.2216 58.6755 29.2251 58.613 29.2153 58.552C29.2172 58.4603 29.1913 58.3702 29.1412 58.2938C29.0911 58.2175 29.0191 58.1586 28.935 58.125C28.927 58.0084 28.927 57.8913 28.935 57.7747C28.9803 57.4521 29.0826 57.1406 29.2369 56.855C29.347 56.6539 29.4891 56.4726 29.6574 56.3185L29.7436 56.2528L32.4496 57.1944L32.6652 56.8222L30.4659 55.8368C30.4551 55.4856 30.537 55.1378 30.7031 54.8296C30.8505 54.5998 31.0455 54.4055 31.2745 54.2602C31.3446 54.3178 31.4323 54.3488 31.5224 54.3478C31.6133 54.3567 31.7047 54.3374 31.7846 54.2925C31.8646 54.2476 31.9292 54.1793 31.9702 54.0964C32.0112 54.0136 32.0265 53.9201 32.0142 53.8282C32.002 53.7363 31.9626 53.6503 31.9013 53.5816C31.8401 53.5128 31.7598 53.4645 31.671 53.4429C31.5822 53.4213 31.489 53.4275 31.4038 53.4606C31.3185 53.4937 31.2451 53.5523 31.1931 53.6286C31.1412 53.7048 31.1132 53.7953 31.1128 53.888C30.8394 54.06 30.6073 54.2919 30.4336 54.5668C30.2443 54.9003 30.1405 55.2768 30.1317 55.6616L29.5495 55.4427C29.4473 55.022 29.4473 54.5824 29.5495 54.1617C29.6252 53.8213 29.7889 53.5076 30.0239 53.253H30.1856C30.2765 53.2618 30.3679 53.2425 30.4478 53.1977C30.5277 53.1528 30.5924 53.0844 30.6334 53.0016C30.6744 52.9187 30.6897 52.8252 30.6774 52.7333C30.6651 52.6414 30.6258 52.5555 30.5645 52.4867C30.5032 52.418 30.4229 52.3696 30.3342 52.348C30.2454 52.3265 30.1522 52.3326 30.0669 52.3658C29.9816 52.3989 29.9082 52.4575 29.8563 52.5337C29.8044 52.61 29.7764 52.7004 29.7759 52.7931C29.7598 52.8652 29.7598 52.94 29.7759 53.0121C29.5245 53.3079 29.347 53.661 29.2585 54.0413C29.1498 54.4513 29.1205 54.8789 29.1722 55.3003L28.6547 55.1142C28.62 55.04 28.5912 54.9631 28.5685 54.8843C28.5004 54.6445 28.4535 54.399 28.4283 54.1507C28.4283 53.9208 28.4283 53.6909 28.4283 53.4938C28.4283 53.2968 28.4283 53.1544 28.4283 53.0231C28.5182 52.9926 28.5961 52.9336 28.6505 52.8547C28.7048 52.7759 28.7328 52.6813 28.7302 52.5851C28.7399 52.5241 28.7365 52.4616 28.7201 52.4021C28.7037 52.3425 28.6748 52.2873 28.6353 52.2402C28.5958 52.1931 28.5467 52.1553 28.4915 52.1294C28.4362 52.1034 28.376 52.09 28.3151 52.09C28.2542 52.09 28.1941 52.1034 28.1388 52.1294C28.0835 52.1553 28.0345 52.1931 27.995 52.2402C27.9555 52.2873 27.9266 52.3425 27.9102 52.4021C27.8938 52.4616 27.8904 52.5241 27.9001 52.5851C27.8985 52.6631 27.9165 52.7401 27.9523 52.8091C27.9882 52.878 28.0407 52.9366 28.1049 52.9793C28.068 53.3908 28.068 53.8049 28.1049 54.2164C28.1349 54.472 28.1854 54.7246 28.2558 54.9719L27.9648 54.8624L27.6952 54.7529L27.2101 54.5668C27.2101 53.3953 26.9729 49.0926 23.3937 47.7021C23.2824 48.9228 23.4737 50.1523 23.9501 51.2786C24.4265 52.405 25.1729 53.3923 26.1212 54.1507L25.8733 54.1617C24.0222 53.5119 22.2206 52.7251 20.4828 51.8078C20.8602 50.4283 21.5609 46.5854 18.801 44.1439C18.3456 45.2871 18.1686 46.5249 18.285 47.7524C18.4013 48.9799 18.8077 50.1607 19.4694 51.1947C18.5917 50.6109 17.7941 49.9114 17.0976 49.1145C16.6119 48.5511 16.1549 47.9627 15.7285 47.3518C16.5155 46.1475 18.2296 42.863 16.343 39.5346C15.616 40.4086 15.0985 41.4418 14.831 42.5531C14.5635 43.6644 14.5534 44.8235 14.8013 45.9395C13.8766 44.4079 13.0727 42.8044 12.3972 41.1441C13.6394 40.5734 14.6823 39.6341 15.3886 38.4498C16.0949 37.2655 16.4314 35.8917 16.3537 34.5093C16.3537 34.5093 12.7206 35.5385 12.1384 40.4653C11.7611 39.469 11.567 38.8339 11.5563 38.812C11.1902 37.2113 10.963 35.581 10.8771 33.94C12.2169 33.7666 13.4656 33.158 14.437 32.2051C15.4084 31.2521 16.0505 30.0058 16.2675 28.6519C16.2675 28.6519 12.5265 28.5972 10.8771 33.1955C10.7965 30.8599 11.0729 28.5258 11.6964 26.2761C12.9429 26.6654 14.2835 26.6057 15.4916 26.107C16.6997 25.6082 17.7012 24.7011 18.3266 23.539C17.2152 23.1176 15.9999 23.0687 14.8591 23.3997C13.7183 23.7308 12.7119 24.4242 11.9875 25.3784C12.6533 23.3855 13.5933 21.4982 14.7797 19.7728C15.8578 20.5501 18.9088 22.3128 21.6903 19.8494C20.8708 19.0581 19.833 18.5397 18.7156 18.3636C17.5982 18.1875 16.4544 18.3621 15.4374 18.8641C16.6971 17.2148 18.1446 15.7227 19.7497 14.419C20.5691 15.1307 23.7279 17.5503 26.822 15.1197C26.0583 14.2811 25.0635 13.6957 23.9673 13.4399C22.8711 13.184 21.7244 13.2696 20.6769 13.6855C21.577 13.0003 22.5246 12.382 23.5123 11.8352C25.1617 11.9118 29.9808 11.7586 30.6923 7.45585C30.6923 7.45585 26.035 5.81359 23.1457 11.4301C22.2842 11.9189 21.4526 12.46 20.6553 13.0505C21.4131 12.0904 21.9112 10.9461 22.1002 9.73065C22.2893 8.51523 22.1629 7.27075 21.7334 6.12015C21.7334 6.12015 18.3266 8.67112 19.5449 13.8826Z" fill="#A6763C"/>
<path fill-rule="evenodd" clip-rule="evenodd" d="M54.4516 13.8826C55.844 15.0098 57.1225 16.2752 58.268 17.6598C57.6953 16.7029 57.3598 15.6193 57.2904 14.5018C57.2209 13.3843 57.4195 12.2664 57.8691 11.244C57.8691 11.244 61.1681 14.0687 59.5294 19.3349L59.6048 19.4443C60.4879 20.7358 61.2392 22.1151 61.8473 23.5609C61.6529 22.5242 61.704 21.4554 61.9964 20.4427C62.2888 19.4299 62.8142 18.5023 63.5291 17.7364C64.1399 19.0357 64.3818 20.4822 64.2275 21.9135C64.0732 23.3447 63.5289 24.7039 62.6558 25.8382C63.1554 27.4647 63.4736 29.143 63.6046 30.8416C63.7668 29.8914 64.1551 28.9958 64.7356 28.2326C65.3162 27.4694 66.0715 26.8617 66.9358 26.4623C67.1067 27.8538 66.8842 29.2659 66.2943 30.5338C65.7045 31.8017 64.7715 32.8729 63.6046 33.6225C63.5452 34.975 63.3902 36.3215 63.141 37.6515C63.5311 36.9425 64.0797 36.3364 64.7425 35.8819C65.4054 35.4274 66.164 35.1373 66.9574 35.0349C66.8326 36.4073 66.3058 37.7102 65.4449 38.7757C64.584 39.8412 63.4286 40.6204 62.1276 41.0127C61.2279 43.3017 60.0818 45.4828 58.71 47.516C59.1736 46.8701 61.9443 43.3009 65.6098 45.0526C64.9174 46.2238 63.8502 47.1182 62.5866 47.5865C61.3229 48.0548 59.9393 48.0685 58.6669 47.6255L58.613 47.7678V47.7131C58.2033 48.3043 57.7505 48.8736 57.2762 49.421C56.5981 50.1952 55.8266 50.8794 54.9798 51.4574C55.9584 50.9356 57.0767 50.7485 58.1684 50.9241C59.2601 51.0996 60.2668 51.6285 61.0387 52.4319C60.0015 53.2766 58.7023 53.7194 57.3733 53.6813C56.0443 53.6432 54.7718 53.1266 53.7832 52.2238L53.6538 52.2895C51.915 53.2047 50.1136 53.9914 48.2634 54.6434C49.391 54.536 50.5237 54.787 51.5048 55.3616C52.4859 55.9363 53.2669 56.8063 53.74 57.8513C53.74 57.8513 49.9667 59.3512 47.0775 55.1033L46.4629 55.3441L45.4927 55.6835C45.6673 55.8862 45.8158 56.1106 45.9347 56.3514C46.1197 56.7428 46.2607 57.1541 46.3551 57.5776C46.4509 57.6046 46.5349 57.6636 46.5936 57.745C46.6522 57.8265 46.6822 57.9256 46.6786 58.0265C46.6883 58.0875 46.6848 58.15 46.6684 58.2095C46.6521 58.2691 46.6231 58.3243 46.5837 58.3714C46.5442 58.4185 46.4951 58.4563 46.4398 58.4823C46.3846 58.5082 46.3244 58.5216 46.2635 58.5216C46.2026 58.5216 46.1424 58.5082 46.0872 58.4823C46.0319 58.4563 45.9828 58.4185 45.9433 58.3714C45.9039 58.3243 45.8749 58.2691 45.8586 58.2095C45.8422 58.15 45.8387 58.0875 45.8484 58.0265C45.8472 57.9525 45.8631 57.8792 45.895 57.8126C45.9268 57.746 45.9737 57.688 46.0317 57.6433V57.5229C45.9397 57.1942 45.8169 56.8753 45.6652 56.5703C45.5392 56.3045 45.3676 56.0635 45.1585 55.8587L44.5871 56.0558C44.7429 56.2159 44.877 56.3963 44.986 56.5922C45.1707 56.9315 45.2914 57.3028 45.3417 57.6871C45.3272 57.8015 45.3056 57.9148 45.2771 58.0265V58.0922C45.3449 58.1345 45.4005 58.1942 45.4384 58.2653C45.4762 58.3365 45.495 58.4165 45.4927 58.4973C45.5024 58.5583 45.4989 58.6208 45.4825 58.6803C45.4662 58.7399 45.4372 58.7951 45.3978 58.8422C45.3583 58.8893 45.3092 58.9271 45.2539 58.953C45.1987 58.979 45.1385 58.9924 45.0776 58.9924C45.0167 58.9924 44.9565 58.979 44.9013 58.953C44.846 58.9271 44.7969 58.8893 44.7575 58.8422C44.718 58.7951 44.689 58.7399 44.6727 58.6803C44.6563 58.6208 44.6528 58.5583 44.6625 58.4973C44.6622 58.4059 44.6887 58.3164 44.7386 58.2404C44.7885 58.1643 44.8596 58.1051 44.9428 58.0703C44.9509 57.9536 44.9509 57.8366 44.9428 57.7199C44.8976 57.3974 44.7953 57.0858 44.641 56.8003C44.5308 56.5992 44.3888 56.4179 44.2205 56.2638L44.199 56.1653L41.493 57.1068L41.2773 56.7346L43.5305 55.8368C43.5413 55.4856 43.4594 55.1378 43.2934 54.8296C43.146 54.5998 42.951 54.4055 42.722 54.2602C42.6519 54.3178 42.5642 54.3488 42.474 54.3478C42.3831 54.3567 42.2917 54.3374 42.2118 54.2925C42.1319 54.2476 42.0672 54.1793 42.0263 54.0964C41.9853 54.0136 41.9699 53.9201 41.9822 53.8282C41.9945 53.7363 42.0339 53.6503 42.0951 53.5816C42.1564 53.5128 42.2367 53.4645 42.3255 53.4429C42.4143 53.4213 42.5074 53.4275 42.5927 53.4606C42.678 53.4937 42.7514 53.5523 42.8033 53.6286C42.8553 53.7048 42.8833 53.7953 42.8837 53.888C43.1571 54.06 43.3892 54.2919 43.5629 54.5668C43.7522 54.9003 43.856 55.2768 43.8648 55.6616L44.4469 55.4427C44.5492 55.022 44.5492 54.5824 44.4469 54.1617C44.3713 53.8213 44.2075 53.5076 43.9726 53.253H43.8755C43.7846 53.2618 43.6932 53.2425 43.6133 53.1977C43.5334 53.1528 43.4687 53.0844 43.4278 53.0016C43.3868 52.9187 43.3714 52.8252 43.3837 52.7333C43.396 52.6414 43.4354 52.5555 43.4967 52.4867C43.5579 52.418 43.6382 52.3696 43.727 52.348C43.8158 52.3265 43.909 52.3326 43.9942 52.3658C44.0795 52.3989 44.1529 52.4575 44.2049 52.5337C44.2568 52.61 44.2848 52.7004 44.2852 52.7931C44.3018 52.8652 44.3018 52.9401 44.2852 53.0121C44.5367 53.3079 44.7142 53.661 44.8027 54.0413C44.9113 54.4513 44.9406 54.8789 44.8889 55.3003L45.4064 55.1142C45.4414 55.0401 45.4702 54.9632 45.4927 54.8843C45.5606 54.6444 45.6075 54.399 45.6328 54.1507C45.6328 53.9208 45.6328 53.6909 45.6328 53.4938C45.6328 53.2968 45.6328 53.1544 45.6328 53.0231C45.5429 52.9926 45.465 52.9336 45.4107 52.8547C45.3563 52.7759 45.3284 52.6813 45.331 52.5851C45.3212 52.5241 45.3247 52.4616 45.3411 52.4021C45.3575 52.3425 45.3864 52.2873 45.4259 52.2402C45.4653 52.1931 45.5144 52.1553 45.5697 52.1294C45.625 52.1034 45.6851 52.09 45.746 52.09C45.8069 52.09 45.8671 52.1034 45.9224 52.1294C45.9776 52.1553 46.0267 52.1931 46.0662 52.2402C46.1056 52.2873 46.1346 52.3425 46.151 52.4021C46.1673 52.4616 46.1708 52.5241 46.1611 52.5851C46.1626 52.6631 46.1447 52.7401 46.1088 52.8091C46.073 52.878 46.0205 52.9366 45.9562 52.9793C45.9932 53.3908 45.9932 53.8049 45.9562 54.2164C45.9263 54.472 45.8758 54.7247 45.8053 54.9719L46.0964 54.8624L46.3659 54.7529L46.8511 54.5668C46.8511 53.3953 47.0882 49.0926 50.6675 47.7021C50.7787 48.9228 50.5874 50.1523 50.111 51.2786C49.6346 52.405 48.8883 53.3923 47.9399 54.1507L48.1771 54.0632C50.0281 53.4134 51.8298 52.6266 53.5675 51.7093C53.1902 50.3298 52.4895 46.4869 55.2494 44.0454C55.7047 45.1885 55.8818 46.4264 55.7654 47.6539C55.649 48.8814 55.2427 50.0622 54.581 51.0961C55.4587 50.5124 56.2562 49.8129 56.9528 49.016C57.3999 48.4713 57.8209 47.905 58.2141 47.319C57.4271 46.1146 55.7129 42.8301 57.5996 39.5018C58.3265 40.3758 58.844 41.4089 59.1115 42.5202C59.379 43.6315 59.3892 44.7907 59.1413 45.9066C60.066 44.3751 60.8699 42.7716 61.5454 41.1112C60.3032 40.5406 59.2602 39.6013 58.554 38.417C57.8477 37.2326 57.5112 35.8588 57.5888 34.4765C57.5888 34.4765 61.222 35.5056 61.8041 40.4324C62.1923 39.4361 62.3755 38.8011 62.3863 38.7792C62.7721 37.1911 63.021 35.5719 63.1302 33.94C61.7904 33.7666 60.5417 33.158 59.5702 32.2051C58.5988 31.2521 57.9567 30.0058 57.7398 28.6519C57.7398 28.6519 61.4915 28.5972 63.1302 33.1955C63.2074 30.8594 62.9273 28.5252 62.3001 26.2761C61.0577 26.6607 59.7229 26.5997 58.5196 26.1034C57.3163 25.607 56.3177 24.7054 55.6914 23.55C56.8029 23.1285 58.0181 23.0797 59.1589 23.4107C60.2997 23.7417 61.3061 24.4351 62.0305 25.3893C61.3825 23.3956 60.4606 21.5048 59.2922 19.7728C58.2141 20.5501 55.1631 22.3128 52.3817 19.8494C53.2011 19.0581 54.2389 18.5397 55.3564 18.3636C56.4738 18.1875 57.6175 18.3621 58.6346 18.8641C57.3748 17.2149 55.9273 15.7228 54.3222 14.419C53.5029 15.1307 50.3441 17.5503 47.25 15.1197C48.0136 14.2811 49.0084 13.6957 50.1046 13.4399C51.2008 13.184 52.3475 13.2696 53.3951 13.6855C52.495 13.0003 51.5474 12.3819 50.5597 11.8352C48.9102 11.9118 44.0912 11.7586 43.3796 7.45585C43.3796 7.45585 48.037 5.81359 50.9262 11.4301C51.7841 11.9192 52.6121 12.4603 53.4058 13.0505C52.649 12.0898 52.1516 10.9456 51.9625 9.73039C51.7735 8.51518 51.8994 7.27093 52.3278 6.12015C52.3278 6.12015 55.659 8.67112 54.4516 13.8826Z" fill="#A6763C"/>
<path fill-rule="evenodd" clip-rule="evenodd" d="M38.3019 59.0228C38.6793 59.3184 38.3666 60.4351 37.8923 60.665L38.054 60.7307C38.4018 60.9128 38.7852 61.0137 39.1762 61.0262C39.5673 61.0388 39.9562 60.9625 40.3146 60.8031C40.673 60.6437 40.9918 60.4051 41.2479 60.1047C41.504 59.8043 41.6909 59.4496 41.7949 59.0666C41.2343 58.4535 38.8733 55.7054 39.1968 52.399H37.2993V57.1068C37.5078 57.0553 37.7254 57.0551 37.934 57.1063C38.1426 57.1574 38.3361 57.2584 38.4985 57.4009C38.6609 57.5433 38.7875 57.7231 38.8677 57.9252C38.9479 58.1273 38.9794 58.346 38.9596 58.5629C38.9596 58.6177 38.0324 57.1287 37.2993 58.6834V59.1213C37.4207 58.9777 37.5896 58.884 37.7741 58.8578C37.9587 58.8316 38.1464 58.8747 38.3019 58.979M37.2993 64.4532H40.8247C39.8113 64.0262 37.5904 63.4569 37.2993 61.4533V61.311C37.8322 61.6481 38.4381 61.8478 39.0644 61.8926C39.6906 61.9373 40.3182 61.8258 40.8923 61.5678C41.4664 61.3097 41.9696 60.913 42.358 60.4122C42.7465 59.9113 43.0084 59.3216 43.121 58.6943C40.2641 56.0667 39.0458 53.68 40.4473 50.7677C40.5444 50.5706 40.6737 51.1399 41.0079 51.3589C41.3421 51.5779 41.9782 51.4684 42.0213 50.6254C42.0968 49.0378 40.3827 48.8846 39.6819 50.5706C39.5214 50.9552 39.3986 51.3549 39.3153 51.764H37.2993V50.7348C37.3563 50.7456 37.4148 50.7456 37.4718 50.7348C37.6311 50.7182 37.7776 50.6391 37.8803 50.5144C37.983 50.3896 38.0337 50.2291 38.0216 50.067C38.03 49.9154 37.9845 49.7657 37.8936 49.6452C37.8026 49.5247 37.6721 49.4413 37.5257 49.4101C37.5349 49.3411 37.5349 49.2711 37.5257 49.2021C37.5495 49.1173 37.5537 49.0282 37.5378 48.9415C37.5219 48.8549 37.4865 48.7732 37.4342 48.7028C37.382 48.6325 37.3143 48.5754 37.2367 48.5361C37.159 48.4968 37.0734 48.4764 36.9867 48.4764C36.8999 48.4764 36.8143 48.4968 36.7367 48.5361C36.659 48.5754 36.5914 48.6325 36.5391 48.7028C36.4869 48.7732 36.4514 48.8549 36.4355 48.9415C36.4197 49.0282 36.4238 49.1173 36.4476 49.2021C36.4383 49.2711 36.4383 49.3411 36.4476 49.4101C36.3013 49.4413 36.1708 49.5247 36.0798 49.6452C35.9888 49.7657 35.9434 49.9154 35.9517 50.067C35.9396 50.2291 35.9903 50.3896 36.093 50.5144C36.1957 50.6391 36.3423 50.7182 36.5015 50.7348C36.5585 50.7456 36.617 50.7456 36.674 50.7348V51.764H34.7119C34.6285 51.355 34.5058 50.9552 34.3454 50.5706C33.6446 48.8846 31.9304 49.0488 32.0059 50.6254C32.0059 51.4684 32.6312 51.5998 33.0193 51.3589C33.4074 51.118 33.4829 50.5706 33.5799 50.7677C34.9814 53.68 33.7632 56.0667 30.9062 58.6943C31.0213 59.3114 31.2815 59.8911 31.6647 60.3841C32.0478 60.877 32.5426 61.2687 33.1069 61.5256C33.6712 61.7826 34.2883 61.8973 34.9056 61.8599C35.5229 61.8225 36.1222 61.6342 36.6525 61.311V61.4533C36.3614 63.4678 34.1405 64.0371 33.1271 64.4532H37.2993ZM35.9517 60.7088C35.6039 60.8909 35.2205 60.9918 34.8294 61.0044C34.4384 61.0169 34.0495 60.9406 33.6911 60.7812C33.3327 60.6218 33.0138 60.3832 32.7578 60.0828C32.5017 59.7824 32.3148 59.4277 32.2107 59.0447C32.7606 58.4316 35.1324 55.6835 34.8197 52.3771H36.6525V57.0849C36.444 57.0334 36.2264 57.0332 36.0178 57.0844C35.8092 57.1355 35.6156 57.2365 35.4532 57.379C35.2908 57.5214 35.1643 57.7012 35.0841 57.9033C35.0039 58.1054 34.9724 58.3241 34.9922 58.541C34.9922 58.5958 35.9194 57.1068 36.6525 58.6615V59.1213C36.5311 58.9777 36.3622 58.884 36.1776 58.8578C35.993 58.8316 35.8054 58.8747 35.6498 58.979C35.2725 59.2746 35.5852 60.3913 36.0595 60.6212L35.9517 60.7088Z" fill="#A6763C"/>
</g>
<defs>
<clipPath id="clip0_2258_4414">
<rect width="74" height="65" fill="white"/>
</clipPath>
</defs>
</svg>
