<svg width="321" height="311" viewBox="0 0 321 311" fill="none" xmlns="http://www.w3.org/2000/svg">
<path d="M109.386 192.384C109.402 194.357 109.673 196.321 110.194 198.235C110.751 200.263 111.647 202.201 112.849 203.981C116.631 202.448 120.149 200.424 123.297 197.972C127.674 194.433 131.746 190.591 135.476 186.481C138.246 183.529 141.883 179.505 146.385 174.41L154.408 165.344H148.636C145 165.344 141.594 165.344 138.535 165.871L133.109 166.398C132.81 168.37 132.307 170.311 131.608 172.196C130.664 174.821 129.175 177.255 127.222 179.365C122.825 184.083 116.641 187.113 109.906 187.851C109.978 188.482 109.978 189.118 109.906 189.749C109.815 190.608 109.815 191.473 109.906 192.332M111.406 184.689C114.351 184.013 117.157 182.909 119.718 181.421C121.742 180.202 123.569 178.729 125.144 177.046C127.004 175.12 128.541 172.953 129.704 170.615C130.26 169.535 130.611 168.376 130.743 167.189C128.505 167.804 126.324 168.58 124.22 169.508C121.424 170.813 118.934 172.603 116.89 174.779C115.115 176.226 113.597 177.915 112.388 179.786C111.637 181.366 111.132 183.034 110.887 184.741L111.406 184.689ZM111.983 148.16C101.295 148.873 91.2215 152.997 83.5272 159.809C79.5609 162.701 76.2707 166.29 73.8515 170.365C71.4323 174.439 69.9333 178.916 69.4433 183.529C69.4231 186.761 70.1183 189.962 71.4871 192.943C72.856 195.923 74.8701 198.619 77.4088 200.871C82.6345 205.375 89.5597 207.867 96.7452 207.829C99.7289 207.809 102.697 207.437 105.576 206.722C107.601 206.251 109.544 205.523 111.349 204.561C110.313 202.574 109.463 200.511 108.809 198.393C108.171 196.264 107.86 194.065 107.885 191.857C107.831 190.909 107.831 189.959 107.885 189.011V187.693C104.39 187.828 100.961 186.795 98.2407 184.786C95.5204 182.777 93.6957 179.931 93.1088 176.782C93.0957 175.077 93.6382 173.408 94.6673 171.985C95.6485 170.826 96.4566 170.246 97.1492 170.246C97.3931 170.173 97.6558 170.173 97.8996 170.246C98.0153 170.325 98.1076 170.429 98.1681 170.548C98.2286 170.668 98.2553 170.8 98.2459 170.931C98.1123 171.414 97.8684 171.865 97.5301 172.256C97.1919 172.647 96.767 172.968 96.2834 173.198C95.6547 173.623 95.1478 174.18 94.8061 174.822C94.4643 175.465 94.2979 176.173 94.3209 176.887C94.3209 184.109 103.672 184.794 108.636 184.794C109.785 180.17 112.3 175.922 115.908 172.512C119.932 169.007 124.885 166.518 130.281 165.291V162.445C130.369 160.319 129.889 158.205 128.883 156.286C127.878 154.367 126.377 152.7 124.509 151.428C120.788 149.215 116.423 148.076 111.983 148.16ZM172.128 162.656C174.68 157.941 177.593 153.397 180.844 149.056C184.276 144.488 187.996 140.105 191.984 135.931C199.729 127.739 208.753 120.635 218.767 114.847C209.762 115.532 192.388 127.181 182.807 137.776C178.189 142.625 174.264 147.053 170.974 151.217C167.684 155.381 164.682 159.177 161.97 162.708L172.128 162.656ZM114.985 208.777C113 209.395 110.949 209.819 108.867 210.042C106.46 210.382 104.029 210.558 101.594 210.57C92.9473 210.73 84.5127 208.119 77.7551 203.19C74.1542 200.398 71.2881 196.901 69.3695 192.959C67.451 189.017 66.5292 184.731 66.6727 180.419C66.6552 175.228 67.9294 170.102 70.3992 165.426C72.8691 160.751 76.4699 156.649 80.9297 153.431C88.2873 147.756 97.5113 144.491 107.135 144.154C114.234 144 121.122 146.361 126.356 150.743C128.478 152.536 130.18 154.702 131.361 157.112C132.541 159.521 133.175 162.124 133.225 164.764L140.671 164.131C144.827 163.78 150.06 163.587 156.371 163.552C160.219 159.335 164.067 154.925 167.915 150.321C171.955 145.788 175.418 141.887 178.42 138.83C184.469 132.398 191.371 126.679 198.969 121.805C203.773 118.642 209.013 116.073 214.553 114.162C219.383 112.685 224.32 111.523 229.33 110.683C224.401 108.644 219.256 107.072 213.976 105.991C205.255 104.22 196.358 103.266 187.424 103.145C166.914 103.848 152.503 108.03 144.192 115.69C135.88 123.351 131.878 130.168 132.186 136.142C132.08 139.409 133.292 142.598 135.591 145.103C136.803 146.287 138.283 147.216 139.927 147.826C141.572 148.436 143.342 148.712 145.115 148.634C148.583 148.51 151.985 147.729 155.105 146.341C158.225 144.952 160.995 142.987 163.239 140.57C167.294 136.828 169.838 131.94 170.455 126.707C170.455 124.335 169.531 122.859 168.261 122.332C167.737 122.183 167.261 121.918 166.878 121.559C166.495 121.2 166.216 120.759 166.068 120.276C166.025 120.184 166.003 120.086 166.003 119.986C166.003 119.886 166.025 119.788 166.068 119.696C166.274 119.632 166.497 119.632 166.703 119.696C167.915 119.696 169.011 120.645 170.108 122.384C171.209 124.415 171.763 126.655 171.724 128.921C171.512 134.588 168.856 139.949 164.336 143.838C159.828 147.995 153.767 150.442 147.366 150.69C144.832 150.7 142.322 150.237 139.989 149.331C137.657 148.425 135.552 147.094 133.802 145.419C129.859 141.409 127.787 136.151 128.03 130.765C128.094 126.722 129.125 122.741 131.049 119.099C132.973 115.458 135.745 112.243 139.17 109.681C146.789 103.145 159.141 99.7189 176.284 99.139C182.739 99.1016 189.186 99.5423 195.563 100.457C201.451 101.37 206.838 102.425 211.725 103.619L224.25 106.835C226.988 107.64 229.814 108.171 232.677 108.416C234.561 108.375 236.389 107.825 237.93 106.835C238.72 106.211 239.593 105.68 240.527 105.253C240.777 105.23 241.03 105.273 241.254 105.375C241.479 105.478 241.667 105.637 241.797 105.833C242.073 106.303 242.212 106.829 242.201 107.362C242.109 108.227 241.896 109.077 241.566 109.892C241.326 110.627 240.956 111.322 240.47 111.948C240.081 112.294 239.568 112.499 239.027 112.528C237.681 112.609 236.332 112.609 234.986 112.528C230.351 112.382 225.755 113.345 221.653 115.321C216.287 118.472 211.561 122.449 207.684 127.076C203.2 131.792 199.092 136.794 195.39 142.046C190.724 148.446 186.594 155.159 183.038 162.128C188.525 162.329 193.985 161.335 198.969 159.229C202.489 157.332 204.279 155.223 204.279 153.009C204.258 152.617 204.15 152.232 203.962 151.879C203.773 151.525 203.508 151.211 203.182 150.954C202.858 150.707 202.593 150.402 202.404 150.057C202.216 149.712 202.107 149.336 202.085 148.951C202.108 148.497 202.233 148.052 202.451 147.645C202.67 147.237 202.977 146.874 203.355 146.579C204.034 145.988 204.906 145.618 205.837 145.525C206.288 145.511 206.735 145.601 207.138 145.785C207.541 145.969 207.887 146.242 208.146 146.579C208.629 147.289 208.871 148.115 208.839 148.951C208.562 152.427 206.799 155.664 203.932 157.964C200.623 161.654 193.331 163.657 182.056 163.973C179.541 169.229 177.363 174.615 175.534 180.103C173.484 185.937 172.338 192.005 172.128 198.13C171.974 201.32 172.709 204.494 174.264 207.354C180.036 216.21 188.694 203.77 190.657 198.235C191.58 195.6 192.388 194.177 193.081 194.018C193.322 193.933 193.59 193.933 193.831 194.018C193.933 194.105 194.012 194.212 194.062 194.331C194.112 194.45 194.132 194.577 194.12 194.704C193.466 197.775 192.109 200.685 190.137 203.243C188.518 205.427 186.576 207.396 184.365 209.094C178.997 212.783 172.821 211.36 168.896 203.137C164.851 194.093 164.241 184.071 167.164 174.674C168.219 171.085 169.53 167.563 171.089 164.131L160.18 164.395C156.89 168.559 153.716 172.776 150.656 176.94C147.597 181.104 144.538 185.637 141.248 189.433C137.994 193.244 134.361 196.773 130.396 199.975C126.275 203.294 121.671 206.079 116.717 208.25C118.809 210.356 121.34 212.058 124.163 213.258C126.47 214.201 128.965 214.704 131.493 214.734C140.555 214.154 141.075 211.413 142.633 209.146C143.21 208.303 145.346 206.458 146.327 207.143C146.447 207.219 146.543 207.322 146.604 207.443C146.665 207.563 146.689 207.697 146.674 207.829C146.674 208.883 145.404 210.464 142.922 212.573C139.852 214.896 135.999 216.18 132.013 216.21C128.168 216.187 124.4 215.222 121.103 213.416C118.991 212.137 117.054 210.633 115.331 208.936L114.985 208.777Z" fill="#A6763C" fill-opacity="0.1"/>
<path fill-rule="evenodd" clip-rule="evenodd" d="M139.339 29.9824V30.9839L138.935 30.1406H139.339M139.339 27.505V29.0863L138.473 29.3499L137.723 27.9794C138.278 27.8263 138.818 27.6324 139.339 27.3996V27.505ZM139.339 24.6059V26.4508L138.819 26.7671C137.954 27.1888 137.088 27.0833 136.799 26.7671C136.511 26.4508 136.799 25.4493 137.896 25.0276C138.082 24.8476 138.305 24.7035 138.553 24.6039C138.801 24.5043 139.068 24.4512 139.339 24.4478V24.6059ZM125.717 7.94933L135.472 24.4478L136.049 25.3439C136.61 24.6234 137.394 24.0727 138.3 23.7626C137.193 22.0119 136.578 20.0379 136.511 18.0171C137.376 13.9056 138.993 19.9674 139.108 21.0743V16.0141C137.896 12.746 134.548 11.5337 133.971 17.9117C131.662 11.112 130.219 9.84692 125.717 7.94933ZM139.339 26.2927C139.584 26.1387 139.771 25.9193 139.874 25.6646C139.978 25.4098 139.992 25.1321 139.916 24.8695C139.864 24.7623 139.784 24.6682 139.683 24.5948C139.583 24.5215 139.465 24.4711 139.339 24.4478V26.2927ZM146.496 45.9011V50.5396H143.264C143.264 49.4327 143.264 48.2731 143.264 47.0607C144.316 46.6174 145.395 46.2302 146.496 45.9011ZM146.496 36.6767C145.273 37.0447 144.078 37.4849 142.918 37.9945L142.109 38.3634C142.514 40.3665 142.86 42.7911 143.033 45.3213C144.163 44.8757 145.319 44.4885 146.496 44.1616V42.7384C145.954 42.6594 145.46 42.4063 145.104 42.0247C144.747 41.6431 144.551 41.1579 144.551 40.6564C144.551 40.1548 144.747 39.6696 145.104 39.288C145.46 38.9064 145.954 38.6533 146.496 38.5743V36.6767ZM146.496 31.6692V34.9372C145.053 35.3536 143.645 35.8644 142.283 36.4659H141.763C141.621 35.4571 141.247 34.4872 140.666 33.6195C142.56 32.8656 144.508 32.2315 146.496 31.7219V31.6692ZM146.496 25.7129L145.111 25.3966C143.887 27.5104 141.821 29.1142 139.339 29.877V30.8785L140.262 32.8288C142.287 31.887 144.391 31.0938 146.554 30.4568L146.496 25.7129ZM146.496 23.1827V24.7114L144.765 24.2897C144.261 25.3727 143.512 26.346 142.567 27.1455C141.622 27.945 140.502 28.5526 139.281 28.9282V27.3469C140.296 26.9997 141.209 26.4434 141.95 25.7211C142.691 24.9988 143.239 24.1302 143.552 23.1827V22.3921L144.303 22.7083C145.01 22.9587 145.746 23.1355 146.496 23.2355V23.1827ZM146.496 11.5864V15.0126C143.264 12.4825 145.861 18.2806 146.496 19.2821C141.244 16.3831 141.763 8.73999 146.496 11.6391V11.5864ZM139.339 20.9689C139.912 19.3767 139.912 17.659 139.339 16.0668V20.9689ZM153.365 44.4779V50.5923H146.496V45.9011C148.736 45.245 151.034 44.7688 153.365 44.4779ZM153.365 35.2535V36.7821C152.823 36.8612 152.329 37.1142 151.972 37.4958C151.616 37.8774 151.42 38.3626 151.42 38.8642C151.42 39.3658 151.616 39.8509 151.972 40.2325C152.329 40.6142 152.823 40.8672 153.365 40.9463V42.7384C151.038 43.0228 148.741 43.4812 146.496 44.1089V42.7384C147.039 42.6594 147.532 42.4063 147.889 42.0247C148.245 41.6431 148.441 41.1579 148.441 40.6564C148.441 40.1548 148.245 39.6696 147.889 39.288C147.532 38.9064 147.039 38.6533 146.496 38.5743V36.7294C148.734 36.0555 151.033 35.5616 153.365 35.2535ZM153.365 29.9824C151.035 30.3265 148.738 30.8377 146.496 31.511V34.7791C148.741 34.1514 151.038 33.693 153.365 33.4086V29.9824ZM153.365 25.3439V28.8755C151.037 29.2035 148.74 29.6969 146.496 30.3514V25.8183C148.781 26.1685 151.121 26.0787 153.365 25.5547V25.3439ZM153.365 22.7611V24.2897C151.107 24.7824 148.754 24.7824 146.496 24.2897V23.2355C148.772 23.695 151.14 23.6041 153.365 22.9719V22.7611ZM153.365 19.7565C152.747 19.5677 152.078 19.5677 151.46 19.7565C150.248 19.7565 149.325 20.7053 149.44 21.3379C149.555 21.9704 150.652 22.2867 151.864 22.0231C152.388 22.0037 152.901 21.8777 153.365 21.6541V19.7565ZM153.365 10.3213V19.2294C152.698 19.1087 152.012 19.1087 151.345 19.2294C150.411 19.3857 149.548 19.789 148.863 20.3891C148.652 18.4776 147.874 16.6549 146.612 15.118V11.6391C147.356 12.1262 148.034 12.6924 148.632 13.3258C147.589 11.3456 147.009 9.18856 146.929 6.99226C146.85 4.79596 147.272 2.60864 148.17 0.569824C151.172 3.57434 151.98 5.8409 152.211 12.6406C152.522 11.9064 152.909 11.2005 153.365 10.5322V10.3213ZM153.365 19.0186H154.173C153.714 17.0783 153.814 15.0625 154.462 13.1677C156.713 9.42523 156.193 16.0141 155.962 17.121C159.772 12.6406 156.713 5.15566 153.192 10.0578L153.365 19.0186ZM153.365 21.2852C153.536 21.183 153.674 21.0414 153.765 20.8748C153.856 20.7081 153.897 20.5223 153.884 20.3364C153.853 20.2097 153.789 20.0915 153.699 19.9909C153.609 19.8903 153.495 19.8101 153.365 19.7565V21.2852ZM160.753 43.7926V50.5923H153.365V44.4779C155.735 44.1639 158.127 44.0054 160.522 44.0035L160.753 43.7926ZM160.753 34.5683V35.9915C160.211 36.0705 159.717 36.3236 159.361 36.7052C159.004 37.0868 158.808 37.5719 158.808 38.0735C158.808 38.5751 159.004 39.0603 159.361 39.4419C159.717 39.8235 160.211 40.0765 160.753 40.1556V42.0532C158.276 42.1204 155.807 42.3494 153.365 42.7384V40.999C153.907 40.9199 154.401 40.6669 154.758 40.2853C155.114 39.9037 155.31 39.4185 155.31 38.9169C155.31 38.4153 155.114 37.9302 154.758 37.5485C154.401 37.1669 153.907 36.9139 153.365 36.8348V35.2535C155.735 34.9395 158.127 34.781 160.522 34.7791L160.753 34.5683ZM160.753 29.2972V32.7761C158.36 32.7649 155.968 32.9058 153.596 33.1978V30.1933C155.924 29.8496 158.279 29.6734 160.638 29.6662L160.753 29.2972ZM160.753 22.1285H160.407C158.367 23.7098 155.958 24.8455 153.365 25.4493V28.9809C155.696 28.6589 158.05 28.5003 160.407 28.5065H160.753V22.1285ZM160.753 18.5442V20.5472L160.407 20.2836C158.456 22.0926 156.033 23.417 153.365 24.1315V22.9719C155.948 22.179 158.257 20.7792 160.061 18.9132L160.407 18.5969L160.753 18.5442ZM167.795 44.4779V50.5923H160.753V44.0035C163.11 44.0105 165.463 44.1691 167.795 44.4779ZM167.795 35.2535V36.993C167.253 37.072 166.759 37.3251 166.403 37.7067C166.046 38.0883 165.85 38.5734 165.85 39.075C165.85 39.5766 166.046 40.0618 166.403 40.4434C166.759 40.825 167.253 41.078 167.795 41.1571V42.7384C165.462 42.4346 163.11 42.2761 160.753 42.264V40.4719C161.296 40.3928 161.789 40.1398 162.146 39.7581C162.502 39.3765 162.698 38.8914 162.698 38.3898C162.698 37.8882 162.502 37.403 162.146 37.0214C161.789 36.6398 161.296 36.3868 160.753 36.3077V34.8318C163.11 34.838 165.463 34.9965 167.795 35.3062V35.2535ZM167.795 29.9824V33.3559C165.462 33.0521 163.11 32.8936 160.753 32.8815V29.7189C163.112 29.7254 165.467 29.9017 167.795 30.246V29.9824ZM167.795 25.3439V28.8755C165.466 28.5358 163.112 28.3596 160.753 28.3484V22.4975C162.805 24.0299 165.214 25.1119 167.795 25.6601V25.3439ZM167.795 22.7611C165.078 22.0091 162.641 20.5863 160.753 18.6496V20.6526C162.717 22.4116 165.141 23.6818 167.795 24.3424V22.7611ZM167.795 19.5457V21.6541C167.218 21.3379 166.872 20.9162 166.929 20.4945C166.994 20.3252 167.109 20.1759 167.262 20.0639C167.415 19.952 167.6 19.882 167.795 19.862V19.5457ZM167.795 11.112V19.2294C167.392 19.269 167.001 19.3763 166.641 19.5457C167.097 17.6052 166.998 15.59 166.352 13.6948C164.101 9.95234 164.621 16.5412 164.851 17.6481C160.753 12.9569 164.332 5.20837 167.795 11.112ZM167.795 21.6541C168.152 21.8515 168.542 21.9939 168.95 22.0758C170.162 22.0758 171.258 22.0758 171.374 21.3906C171.489 20.7053 170.566 20.0728 169.354 19.8093C168.823 19.6887 168.268 19.6887 167.737 19.8093L167.795 21.6541ZM174.491 45.9011V50.5923H167.795V44.4779C170.067 44.7777 172.307 45.2538 174.491 45.9011ZM174.491 36.6767V38.258C173.948 38.3371 173.455 38.5901 173.098 38.9717C172.742 39.3533 172.546 39.8385 172.546 40.3401C172.546 40.8417 172.742 41.3268 173.098 41.7085C173.455 42.0901 173.948 42.3431 174.491 42.4222V44.1089C172.303 43.4886 170.064 43.0303 167.795 42.7384V41.1571C168.338 41.078 168.831 40.825 169.188 40.4434C169.544 40.0618 169.74 39.5766 169.74 39.075C169.74 38.5734 169.544 38.0883 169.188 37.7067C168.831 37.3251 168.338 37.072 167.795 36.993V35.3062C170.067 35.6073 172.307 36.0834 174.491 36.7294V36.6767ZM174.491 31.7746C172.305 31.1094 170.067 30.5983 167.795 30.246V33.6195C170.064 33.9123 172.303 34.3705 174.491 34.99V31.7746ZM174.491 25.7656V30.615C172.303 29.9674 170.065 29.474 167.795 29.1391V25.6601C169.996 26.1127 172.274 26.1485 174.491 25.7656ZM174.491 23.2355V24.7641C172.288 25.2319 169.998 25.2319 167.795 24.7641V23.0773C169.976 23.6471 172.28 23.7015 174.491 23.2355ZM174.491 11.5864V15.0126C173.228 16.5495 172.45 18.3721 172.24 20.2836C171.554 19.6835 170.691 19.2803 169.758 19.124C169.184 19.0384 168.599 19.0384 168.026 19.124V11.112C168.35 11.6223 168.639 12.1504 168.892 12.6933C168.892 5.8409 169.873 3.62705 172.932 0.622535C173.848 2.65408 174.29 4.83759 174.231 7.03385C174.171 9.23011 173.611 11.3909 172.586 13.3785C173.137 12.7113 173.777 12.1092 174.491 11.5864ZM174.491 19.3349C175.299 17.859 177.261 13.1677 174.491 15.2234V11.5864C179.051 8.95084 179.282 16.3831 174.491 19.2821V19.3349ZM174.491 35.1481V31.7746C176.466 32.3543 178.395 33.0588 180.263 33.883C179.709 34.7199 179.355 35.6538 179.224 36.624H178.935C177.502 35.9764 176.016 35.4301 174.491 34.99V35.1481ZM174.491 44.3725V42.7384C175.033 42.6594 175.527 42.4063 175.883 42.0247C176.24 41.6431 176.436 41.1579 176.436 40.6564C176.436 40.1548 176.24 39.6696 175.883 39.288C175.527 38.9064 175.033 38.6533 174.491 38.5743V36.993C175.733 37.3582 176.948 37.7985 178.127 38.3107L178.704 38.5743C178.3 40.5773 177.954 43.002 177.781 45.5321C176.713 45.0191 175.615 44.5615 174.491 44.1616V44.3725ZM174.491 50.8032V45.9011C175.571 46.2151 176.631 46.5847 177.665 47.008C177.665 48.2204 177.665 49.4327 177.665 50.5396L174.491 50.8032ZM181.648 29.9824C179.166 29.2196 177.1 27.6158 175.876 25.502L174.664 25.7656V30.615C176.766 31.2428 178.811 32.0182 180.782 32.9342L181.648 30.9839V29.9824ZM181.648 27.3469C180.633 26.9997 179.72 26.4434 178.979 25.7211C178.238 24.9988 177.69 24.1302 177.377 23.1827V22.3921L176.626 22.7083C176.068 22.9325 175.489 23.109 174.895 23.2355V24.7641L175.876 24.3424C176.379 25.4254 177.128 26.3987 178.074 27.1982C179.019 27.9977 180.139 28.6053 181.36 28.9809L181.648 27.3469ZM181.648 24.4478V26.2927C181.403 26.1387 181.216 25.9193 181.113 25.6646C181.009 25.4098 180.995 25.1321 181.071 24.8695C181.123 24.7623 181.203 24.6682 181.304 24.5948C181.404 24.5215 181.522 24.4711 181.648 24.4478ZM181.648 16.0141V20.9162C181.075 19.324 181.075 17.6063 181.648 16.0141ZM181.648 20.9162C181.648 19.862 183.38 13.7475 184.246 17.859C184.161 19.8843 183.526 21.8586 182.398 23.6044C183.305 23.9145 184.089 24.4653 184.65 25.1858L185.227 24.2897L195.097 7.94933C190.595 9.84692 189.325 11.2701 186.612 17.9117C186.035 11.5864 182.687 12.6406 181.475 16.0141L181.648 20.9162ZM181.648 26.1873V24.4478C182.095 24.2987 182.586 24.2987 183.033 24.4478C183.899 24.8695 184.361 25.6601 184.13 26.1873C183.899 26.7144 182.976 26.8198 182.11 26.1873H181.648ZM181.648 28.8755V27.2942C182.17 27.5094 182.711 27.6857 183.264 27.8213L182.514 29.1918L181.648 28.8755ZM181.648 30.9312V29.9824H182.052L181.648 30.9312Z" fill="#A6763C" fill-opacity="0.1"/>
<path fill-rule="evenodd" clip-rule="evenodd" d="M66.956 67.4061C59.5003 72.8329 52.6554 78.9247 46.5229 85.5913C49.626 81.0023 51.4626 75.7938 51.8748 70.4134C52.287 65.0331 51.2625 59.6418 48.8894 54.7028C48.8894 54.7028 31.2269 68.3022 40.0004 93.6561L39.5964 94.1832C34.8694 100.401 30.8467 107.042 27.5905 114.002C28.6313 109.011 28.3576 103.865 26.792 98.9896C25.2264 94.1139 22.4137 89.6479 18.5861 85.9603C15.3158 92.2157 14.0209 99.1801 14.8468 106.071C15.6727 112.961 18.5868 119.505 23.2614 124.966C20.6941 132.773 19.0872 140.818 18.4706 148.95C17.602 144.375 15.5232 140.063 12.4149 136.388C9.30662 132.714 5.26285 129.788 0.634925 127.865C-0.29179 134.535 0.870053 141.309 3.98583 147.401C7.10161 153.493 12.0438 158.653 18.2397 162.285C18.5569 168.797 19.3864 175.28 20.7217 181.683C18.5846 178.266 15.5937 175.358 11.9928 173.196C8.39188 171.034 4.28271 169.68 0 169.243C0.641955 175.863 3.44399 182.154 8.04372 187.304C12.6434 192.453 18.8293 196.224 25.8011 198.129C30.6163 209.15 36.7528 219.651 44.0986 229.439C41.6166 226.329 26.7824 209.145 7.15736 217.579C10.8646 223.218 16.5781 227.524 23.3436 229.778C30.1091 232.033 37.5169 232.099 44.3295 229.966L44.6181 230.651V230.388C46.8115 233.234 49.2357 235.975 51.7754 238.611C55.4132 242.3 59.5437 245.559 64.0699 248.309C58.8184 245.791 52.8152 244.892 46.9578 245.747C41.1003 246.602 35.7032 249.165 31.5732 253.053C37.1266 257.12 44.082 259.252 51.1977 259.069C58.3133 258.885 65.1259 256.398 70.4192 252.052L71.1119 252.368C80.4211 256.774 90.0662 260.562 99.9722 263.701C93.9348 263.184 87.8706 264.392 82.6178 267.159C77.365 269.925 73.1831 274.114 70.6501 279.145C70.6501 279.145 90.8523 286.367 106.321 265.915L109.612 267.074L114.749 268.708C113.814 269.685 113.019 270.765 112.382 271.924C111.363 273.753 110.57 275.68 110.016 277.669C109.503 277.799 109.053 278.083 108.739 278.475C108.425 278.868 108.265 279.345 108.284 279.83C108.232 280.124 108.25 280.425 108.338 280.712C108.426 280.999 108.581 281.264 108.792 281.491C109.003 281.718 109.266 281.9 109.562 282.025C109.858 282.15 110.18 282.214 110.506 282.214C110.832 282.214 111.154 282.15 111.45 282.025C111.746 281.9 112.009 281.718 112.22 281.491C112.432 281.264 112.587 280.999 112.674 280.712C112.762 280.425 112.78 280.124 112.728 279.83C112.735 279.474 112.65 279.121 112.479 278.801C112.309 278.48 112.058 278.201 111.747 277.986V277.406C112.241 275.824 112.898 274.288 113.71 272.82C114.384 271.54 115.303 270.38 116.423 269.394L119.482 270.343C118.647 271.112 117.928 271.981 117.346 272.925C116.356 274.558 115.71 276.346 115.441 278.196C115.386 278.863 115.386 279.533 115.441 280.199V280.516C115.078 280.719 114.78 281.007 114.578 281.349C114.375 281.692 114.275 282.077 114.287 282.466C114.235 282.76 114.253 283.061 114.341 283.347C114.429 283.634 114.584 283.9 114.795 284.127C115.006 284.353 115.269 284.535 115.565 284.66C115.861 284.785 116.183 284.85 116.509 284.85C116.835 284.85 117.157 284.785 117.453 284.66C117.749 284.535 118.012 284.353 118.223 284.127C118.435 283.9 118.589 283.634 118.677 283.347C118.765 283.061 118.783 282.76 118.731 282.466C118.741 282.024 118.603 281.591 118.334 281.223C118.066 280.855 117.681 280.572 117.231 280.41C117.187 279.849 117.187 279.285 117.231 278.724C117.473 277.171 118.02 275.671 118.847 274.296C119.437 273.328 120.197 272.455 121.098 271.713L121.56 271.397L136.048 275.93L137.202 274.138L125.427 269.394C125.369 267.703 125.808 266.029 126.697 264.544C127.486 263.438 128.53 262.503 129.756 261.803C130.132 262.081 130.601 262.23 131.084 262.225C131.57 262.268 132.06 262.175 132.487 261.959C132.915 261.743 133.262 261.414 133.481 261.015C133.7 260.616 133.783 260.166 133.717 259.723C133.651 259.281 133.44 258.867 133.112 258.536C132.784 258.205 132.354 257.972 131.879 257.868C131.403 257.764 130.905 257.794 130.448 257.954C129.992 258.113 129.598 258.395 129.32 258.762C129.042 259.129 128.892 259.565 128.89 260.011C127.426 260.839 126.184 261.956 125.254 263.279C124.24 264.885 123.685 266.697 123.638 268.55L120.521 267.496C119.973 265.471 119.973 263.354 120.521 261.329C120.926 259.69 121.802 258.18 123.06 256.954H123.926C124.413 256.997 124.902 256.904 125.33 256.688C125.758 256.472 126.104 256.143 126.324 255.744C126.543 255.345 126.625 254.895 126.559 254.452C126.494 254.01 126.283 253.596 125.955 253.265C125.627 252.934 125.197 252.701 124.721 252.597C124.246 252.493 123.747 252.523 123.291 252.683C122.834 252.842 122.441 253.124 122.163 253.491C121.885 253.858 121.735 254.294 121.733 254.74C121.646 255.087 121.646 255.447 121.733 255.794C120.387 257.219 119.436 258.918 118.962 260.749C118.381 262.724 118.224 264.782 118.501 266.811L115.73 265.915C115.544 265.558 115.39 265.187 115.268 264.808C114.904 263.653 114.653 262.471 114.518 261.276C114.518 260.169 114.518 259.062 114.518 258.114C114.518 257.165 114.518 256.48 114.518 255.847C114.999 255.7 115.416 255.416 115.707 255.037C115.998 254.657 116.148 254.202 116.134 253.739C116.186 253.445 116.168 253.144 116.08 252.857C115.992 252.571 115.837 252.305 115.626 252.078C115.415 251.851 115.152 251.669 114.856 251.544C114.56 251.419 114.238 251.355 113.912 251.355C113.586 251.355 113.264 251.419 112.968 251.544C112.672 251.669 112.409 251.851 112.198 252.078C111.986 252.305 111.831 252.571 111.744 252.857C111.656 253.144 111.637 253.445 111.689 253.739C111.681 254.114 111.777 254.485 111.969 254.817C112.161 255.149 112.442 255.431 112.786 255.636C112.589 257.618 112.589 259.611 112.786 261.593C112.947 262.823 113.217 264.039 113.594 265.23L112.036 264.702L110.593 264.175L107.995 263.279C107.995 257.639 106.726 236.924 87.5622 230.23C86.9666 236.106 87.9908 242.026 90.5415 247.448C93.0922 252.871 97.0882 257.625 102.166 261.276L100.838 261.329C90.9276 258.201 81.2816 254.413 71.9777 249.996C73.9979 243.355 77.7497 224.853 62.9732 213.099C60.5352 218.602 59.5874 224.562 60.2104 230.472C60.8334 236.381 63.0088 242.067 66.5519 247.044C61.8526 244.234 57.5824 240.866 53.8534 237.029C51.2526 234.317 48.8058 231.484 46.5229 228.543C50.7365 222.745 59.914 206.932 49.8129 190.907C45.921 195.115 43.1502 200.089 41.718 205.44C40.2859 210.79 40.2314 216.37 41.5589 221.743C36.6081 214.37 32.3041 206.65 28.6872 198.656C35.3381 195.909 40.9219 191.386 44.7032 185.684C48.4846 179.983 50.2861 173.368 49.8707 166.713C49.8707 166.713 30.4188 171.668 27.3019 195.388C25.2817 190.591 24.2427 187.534 24.185 187.429C22.2254 179.722 21.0086 171.873 20.5486 163.972C27.7219 163.137 34.4075 160.207 39.6085 155.619C44.8095 151.031 48.2472 145.031 49.4089 138.513C49.4089 138.513 29.3798 138.249 20.5486 160.388C20.1175 149.143 21.5973 137.905 24.9353 127.075C31.609 128.949 38.7867 128.661 45.2548 126.26C51.7229 123.859 57.0847 119.492 60.4335 113.897C54.4826 111.868 47.9764 111.633 41.8685 113.226C35.7607 114.82 30.3725 118.158 26.4938 122.752C30.0584 113.158 35.0915 104.072 41.4434 95.7645C47.2155 99.507 63.5505 107.993 78.4424 96.1335C74.0551 92.3235 68.4985 89.8277 62.5159 88.98C56.5332 88.1322 50.4097 88.9729 44.9644 91.3895C51.7089 83.4491 59.4589 76.2656 68.0527 69.9889C72.4394 73.4151 89.3516 85.0642 105.917 73.3624C101.829 69.325 96.5025 66.5065 90.6335 65.2747C84.7646 64.043 78.6253 64.4551 73.0166 66.4573C77.8358 63.1587 82.9091 60.1816 88.1972 57.5492C97.0284 57.9182 122.83 57.1802 126.639 36.4649C126.639 36.4649 101.704 28.5583 86.2347 55.5989C81.6224 57.952 77.1698 60.5571 72.9012 63.4001C76.9585 58.7776 79.625 53.2684 80.6373 47.4168C81.6496 41.5652 80.9726 35.5737 78.6733 30.0342C78.6733 30.0342 60.4335 42.3158 66.956 67.4061Z" fill="#A6763C" fill-opacity="0.1"/>
<path fill-rule="evenodd" clip-rule="evenodd" d="M253.861 67.4061C261.316 72.8334 268.161 78.9252 274.294 85.5913C271.228 80.9847 269.432 75.7674 269.06 70.3873C268.688 65.0072 269.751 59.625 272.158 54.7028C272.158 54.7028 289.821 68.3022 281.047 93.6561L281.451 94.1832C286.179 100.401 290.202 107.041 293.457 114.002C292.416 109.011 292.69 103.865 294.256 98.9896C295.821 94.1139 298.634 89.6479 302.462 85.9603C305.732 92.2157 307.027 99.1801 306.201 106.071C305.375 112.961 302.461 119.505 297.786 124.966C300.461 132.797 302.165 140.877 302.866 149.055C303.734 144.48 305.813 140.168 308.921 136.494C312.03 132.819 316.073 129.894 320.701 127.971C321.616 134.67 320.425 141.469 317.267 147.573C314.109 153.677 309.114 158.835 302.866 162.444C302.548 168.955 301.718 175.438 300.384 181.841C302.472 178.428 305.409 175.509 308.958 173.321C312.507 171.133 316.569 169.736 320.817 169.243C320.149 175.851 317.328 182.124 312.719 187.254C308.11 192.383 301.924 196.135 294.958 198.023C290.141 209.044 284.005 219.545 276.66 229.334C279.142 226.224 293.977 209.04 313.602 217.474C309.895 223.112 304.181 227.418 297.415 229.673C290.65 231.927 283.242 231.994 276.43 229.861L276.141 230.546V230.282C273.948 233.129 271.523 235.87 268.984 238.505C265.353 242.233 261.223 245.527 256.689 248.309C261.928 245.797 267.916 244.896 273.761 245.742C279.606 246.587 284.995 249.133 289.128 253.001C283.575 257.068 276.619 259.2 269.504 259.016C262.388 258.833 255.575 256.346 250.282 251.999L249.589 252.315C240.28 256.722 230.635 260.509 220.729 263.648C226.767 263.131 232.831 264.339 238.084 267.106C243.336 269.873 247.518 274.061 250.051 279.093C250.051 279.093 229.849 286.314 214.38 265.862L211.09 267.022L205.895 268.656C206.83 269.632 207.625 270.712 208.261 271.871C209.252 273.756 210.007 275.736 210.513 277.775C211.025 277.905 211.475 278.189 211.789 278.581C212.103 278.973 212.264 279.45 212.244 279.936C212.296 280.23 212.278 280.531 212.19 280.817C212.102 281.104 211.947 281.37 211.736 281.597C211.525 281.823 211.262 282.005 210.966 282.13C210.67 282.255 210.348 282.32 210.022 282.32C209.696 282.32 209.374 282.255 209.078 282.13C208.782 282.005 208.519 281.823 208.308 281.597C208.097 281.37 207.942 281.104 207.854 280.817C207.766 280.531 207.748 280.23 207.8 279.936C207.793 279.58 207.878 279.227 208.049 278.906C208.219 278.586 208.47 278.306 208.781 278.091V277.511C208.288 275.929 207.631 274.393 206.818 272.925C206.144 271.645 205.225 270.485 204.106 269.499L201.046 270.448C201.88 271.219 202.599 272.087 203.182 273.031C204.171 274.664 204.817 276.452 205.087 278.302C205.009 278.853 204.893 279.398 204.741 279.936V280.252C205.104 280.456 205.402 280.743 205.604 281.086C205.807 281.428 205.907 281.813 205.895 282.202C205.947 282.496 205.928 282.797 205.841 283.084C205.753 283.371 205.598 283.636 205.387 283.863C205.175 284.09 204.913 284.272 204.617 284.397C204.321 284.522 203.999 284.586 203.673 284.586C203.347 284.586 203.025 284.522 202.729 284.397C202.433 284.272 202.17 284.09 201.959 283.863C201.747 283.636 201.592 283.371 201.505 283.084C201.417 282.797 201.398 282.496 201.45 282.202C201.449 281.762 201.59 281.332 201.858 280.966C202.125 280.599 202.506 280.314 202.951 280.147C202.994 279.585 202.994 279.022 202.951 278.46C202.709 276.907 202.161 275.407 201.335 274.032C200.745 273.064 199.985 272.191 199.084 271.449L198.968 270.975L184.481 275.508L183.326 273.716L195.39 269.394C195.448 267.703 195.009 266.029 194.12 264.544C193.331 263.438 192.287 262.503 191.061 261.803C190.685 262.081 190.216 262.23 189.733 262.225C189.247 262.268 188.757 262.175 188.329 261.959C187.902 261.743 187.555 261.414 187.336 261.015C187.116 260.616 187.034 260.166 187.1 259.723C187.166 259.281 187.377 258.867 187.705 258.536C188.033 258.205 188.463 257.972 188.938 257.868C189.413 257.764 189.912 257.794 190.369 257.954C190.825 258.113 191.218 258.395 191.496 258.762C191.774 259.129 191.924 259.565 191.927 260.011C193.39 260.839 194.633 261.956 195.563 263.279C196.576 264.885 197.132 266.697 197.179 268.55L200.296 267.496C200.844 265.471 200.844 263.354 200.296 261.329C199.891 259.69 199.014 258.18 197.756 256.954H197.237C196.75 256.997 196.261 256.904 195.833 256.688C195.405 256.472 195.059 256.143 194.84 255.744C194.62 255.345 194.538 254.895 194.604 254.452C194.67 254.01 194.88 253.596 195.208 253.265C195.536 252.934 195.966 252.701 196.442 252.597C196.917 252.493 197.416 252.523 197.872 252.683C198.329 252.842 198.722 253.124 199 253.491C199.278 253.858 199.428 254.294 199.43 254.74C199.519 255.087 199.519 255.448 199.43 255.794C200.777 257.219 201.727 258.918 202.201 260.749C202.782 262.724 202.939 264.782 202.663 266.811L205.433 265.915C205.62 265.558 205.775 265.188 205.895 264.808C206.258 263.653 206.51 262.471 206.645 261.276C206.645 260.169 206.645 259.062 206.645 258.114C206.645 257.165 206.645 256.48 206.645 255.847C206.164 255.7 205.747 255.416 205.456 255.037C205.165 254.657 205.015 254.202 205.029 253.739C204.977 253.445 204.996 253.144 205.083 252.857C205.171 252.571 205.326 252.305 205.537 252.078C205.749 251.851 206.011 251.669 206.307 251.544C206.603 251.419 206.925 251.355 207.251 251.355C207.577 251.355 207.9 251.419 208.195 251.544C208.491 251.669 208.754 251.851 208.965 252.078C209.177 252.305 209.332 252.571 209.419 252.857C209.507 253.144 209.526 253.445 209.474 253.739C209.482 254.114 209.386 254.485 209.194 254.817C209.002 255.149 208.721 255.431 208.377 255.636C208.575 257.618 208.575 259.611 208.377 261.593C208.217 262.823 207.946 264.039 207.569 265.23L209.127 264.702L210.57 264.175L213.168 263.279C213.168 257.639 214.438 236.924 233.601 230.23C234.196 236.106 233.172 242.026 230.622 247.448C228.071 252.871 224.075 257.625 218.998 261.276L220.267 260.855C230.178 257.726 239.824 253.938 249.128 249.522C247.107 242.88 243.356 224.379 258.132 212.624C260.57 218.128 261.518 224.088 260.895 229.997C260.272 235.907 258.097 241.592 254.553 246.57C259.253 243.759 263.523 240.392 267.252 236.555C269.646 233.933 271.9 231.206 274.005 228.385C269.792 222.587 260.614 206.773 270.715 190.749C274.607 194.957 277.378 199.931 278.81 205.281C280.242 210.632 280.297 216.212 278.969 221.585C283.92 214.211 288.224 206.492 291.841 198.498C285.19 195.751 279.606 191.228 275.825 185.526C272.044 179.824 270.242 173.21 270.658 166.555C270.658 166.555 290.109 171.51 293.226 195.23C295.304 190.433 296.286 187.376 296.343 187.27C298.409 179.625 299.741 171.829 300.326 163.972C293.153 163.137 286.467 160.207 281.266 155.619C276.065 151.031 272.627 145.031 271.466 138.513C271.466 138.513 291.552 138.249 300.326 160.388C300.739 149.14 299.24 137.903 295.881 127.075C289.23 128.926 282.084 128.633 275.641 126.243C269.199 123.853 263.852 119.513 260.499 113.95C266.45 111.92 272.956 111.685 279.064 113.279C285.172 114.873 290.56 118.211 294.438 122.805C290.969 113.207 286.033 104.103 279.777 95.7645C274.005 99.507 257.67 107.993 242.778 96.1335C247.166 92.3235 252.722 89.8277 258.705 88.98C264.688 88.1322 270.811 88.9729 276.256 91.3895C269.512 83.4494 261.762 76.266 253.168 69.9889C248.781 73.4151 231.869 85.0642 215.303 73.3624C219.392 69.325 224.718 66.5065 230.587 65.2747C236.456 64.043 242.596 64.4551 248.204 66.4573C243.385 63.1584 238.312 60.1813 233.024 57.5492C224.192 57.9182 198.391 57.1802 194.582 36.4649C194.582 36.4649 219.517 28.5583 234.986 55.5989C239.579 57.9534 244.012 60.5585 248.262 63.4001C244.21 58.7751 241.547 53.2662 240.534 47.4156C239.522 41.565 240.196 35.5746 242.49 30.0342C242.49 30.0342 260.326 42.3158 253.861 67.4061Z" fill="#A6763C" fill-opacity="0.1"/>
<path fill-rule="evenodd" clip-rule="evenodd" d="M167.393 284.733C169.413 286.157 167.74 291.533 165.2 292.64L166.066 292.956C167.928 293.833 169.98 294.319 172.074 294.379C174.168 294.439 176.25 294.072 178.169 293.305C180.088 292.537 181.795 291.388 183.166 289.942C184.537 288.496 185.538 286.788 186.095 284.944C183.093 281.992 170.452 268.762 172.184 252.843H162.025V275.509C163.142 275.261 164.307 275.26 165.423 275.507C166.54 275.753 167.576 276.239 168.446 276.925C169.315 277.61 169.993 278.476 170.422 279.449C170.852 280.422 171.02 281.475 170.914 282.52C170.914 282.783 165.95 275.614 162.025 283.099V285.208C162.675 284.516 163.579 284.065 164.567 283.939C165.556 283.813 166.561 284.02 167.393 284.523M162.025 310.878H180.9C175.474 308.822 163.584 306.081 162.025 296.435V295.75C164.878 297.373 168.122 298.334 171.475 298.55C174.828 298.765 178.188 298.228 181.262 296.986C184.335 295.744 187.03 293.834 189.11 291.422C191.189 289.011 192.592 286.172 193.194 283.152C177.898 270.501 171.376 259.011 178.88 244.989C179.399 244.041 180.092 246.782 181.881 247.836C183.67 248.89 187.076 248.363 187.307 244.304C187.711 236.661 178.533 235.923 174.782 244.041C173.922 245.892 173.265 247.817 172.819 249.786H162.025V244.831C162.33 244.883 162.643 244.883 162.949 244.831C163.801 244.751 164.586 244.37 165.136 243.77C165.686 243.169 165.957 242.396 165.893 241.616C165.937 240.886 165.694 240.166 165.207 239.585C164.72 239.005 164.021 238.603 163.237 238.453C163.287 238.121 163.287 237.784 163.237 237.452C163.365 237.044 163.387 236.615 163.302 236.197C163.217 235.78 163.027 235.387 162.748 235.048C162.468 234.71 162.106 234.435 161.69 234.246C161.274 234.056 160.816 233.958 160.351 233.958C159.887 233.958 159.429 234.056 159.013 234.246C158.597 234.435 158.235 234.71 157.955 235.048C157.675 235.387 157.486 235.78 157.401 236.197C157.316 236.615 157.338 237.044 157.465 237.452C157.415 237.784 157.415 238.121 157.465 238.453C156.682 238.603 155.983 239.005 155.496 239.585C155.009 240.166 154.765 240.886 154.81 241.616C154.745 242.396 155.017 243.169 155.567 243.77C156.117 244.37 156.901 244.751 157.754 244.831C158.059 244.883 158.372 244.883 158.677 244.831V249.786H148.172C147.726 247.817 147.069 245.892 146.21 244.041C142.458 235.923 133.28 236.714 133.684 244.304C133.684 248.363 137.032 248.995 139.11 247.836C141.188 246.676 141.592 244.041 142.112 244.989C149.615 259.011 143.093 270.501 127.797 283.152C128.413 286.123 129.806 288.914 131.857 291.287C133.909 293.661 136.558 295.546 139.579 296.783C142.6 298.02 145.904 298.572 149.209 298.393C152.514 298.213 155.723 297.306 158.562 295.75V296.435C157.004 306.134 145.113 308.875 139.687 310.878H162.025ZM154.81 292.851C152.948 293.727 150.895 294.213 148.802 294.274C146.708 294.334 144.626 293.967 142.707 293.199C140.788 292.432 139.081 291.283 137.71 289.837C136.339 288.39 135.338 286.683 134.781 284.839C137.725 281.887 150.423 268.657 148.749 252.738H158.562V275.404C157.446 275.156 156.281 275.155 155.164 275.401C154.047 275.647 153.011 276.134 152.141 276.819C151.272 277.505 150.594 278.37 150.165 279.344C149.736 280.317 149.567 281.369 149.673 282.414C149.673 282.678 154.637 275.509 158.562 282.994V285.208C157.912 284.516 157.008 284.065 156.02 283.939C155.031 283.813 154.027 284.02 153.194 284.523C151.174 285.946 152.848 291.322 155.387 292.429L154.81 292.851Z" fill="#A6763C" fill-opacity="0.1"/>
</svg>
