<svg width="430" height="439" viewBox="0 0 430 439" fill="none" xmlns="http://www.w3.org/2000/svg">
<path d="M142.709 271.289C142.731 274.079 143.115 276.857 143.851 279.564C144.64 282.433 145.906 285.173 147.607 287.69C152.955 285.522 157.931 282.659 162.383 279.191C168.574 274.187 174.333 268.753 179.608 262.939C183.527 258.765 188.67 253.074 195.037 245.867L206.385 233.045H198.221C193.078 233.045 188.261 233.045 183.935 233.79L176.261 234.536C175.838 237.324 175.127 240.07 174.138 242.736C172.803 246.448 170.696 249.891 167.934 252.875C161.715 259.548 152.97 263.834 143.443 264.878C143.545 265.77 143.545 266.669 143.443 267.562C143.315 268.776 143.315 270 143.443 271.215M145.566 260.405C149.73 259.449 153.699 257.888 157.321 255.783C160.184 254.059 162.768 251.976 164.995 249.595C167.626 246.871 169.8 243.806 171.444 240.5C172.231 238.972 172.728 237.334 172.914 235.654C169.75 236.525 166.665 237.622 163.689 238.934C159.735 240.779 156.213 243.312 153.321 246.389C150.812 248.436 148.664 250.825 146.954 253.472C145.892 255.706 145.178 258.064 144.831 260.479L145.566 260.405ZM146.382 208.741C131.265 209.749 117.018 215.582 106.136 225.217C100.526 229.307 95.8726 234.384 92.451 240.146C89.0295 245.909 86.9094 252.24 86.2164 258.765C86.1879 263.335 87.1711 267.864 89.1071 272.079C91.043 276.293 93.8917 280.107 97.4822 283.292C104.873 289.662 114.668 293.186 124.83 293.132C129.05 293.104 133.248 292.578 137.321 291.567C140.185 290.901 142.932 289.872 145.484 288.51C144.02 285.7 142.818 282.783 141.892 279.788C140.99 276.776 140.55 273.665 140.586 270.544C140.509 269.203 140.509 267.859 140.586 266.518V264.654C135.643 264.845 130.793 263.383 126.945 260.542C123.098 257.701 120.517 253.676 119.687 249.222C119.669 246.811 120.436 244.45 121.891 242.438C123.279 240.798 124.422 239.978 125.402 239.978C125.747 239.875 126.118 239.875 126.463 239.978C126.627 240.089 126.757 240.236 126.843 240.406C126.928 240.575 126.966 240.761 126.953 240.947C126.764 241.63 126.419 242.269 125.94 242.821C125.462 243.373 124.861 243.827 124.177 244.153C123.288 244.754 122.571 245.542 122.088 246.451C121.604 247.359 121.369 248.361 121.402 249.371C121.402 259.585 134.627 260.554 141.647 260.554C143.273 254.014 146.83 248.006 151.933 243.184C157.624 238.226 164.629 234.706 172.261 232.97V228.944C172.385 225.938 171.706 222.948 170.284 220.234C168.862 217.52 166.739 215.162 164.097 213.363C158.835 210.233 152.662 208.622 146.382 208.741ZM231.447 229.243C235.056 222.575 239.175 216.147 243.774 210.009C248.628 203.547 253.889 197.349 259.53 191.446C270.483 179.86 283.246 169.812 297.409 161.625C284.674 162.595 260.101 179.07 246.55 194.055C240.019 200.913 234.467 207.176 229.814 213.065C225.161 218.955 220.916 224.322 217.079 229.317L231.447 229.243ZM150.627 294.474C147.82 295.348 144.919 295.947 141.974 296.263C138.57 296.743 135.132 296.993 131.688 297.009C119.459 297.235 107.529 293.542 97.972 286.572C92.8791 282.623 88.8255 277.677 86.112 272.102C83.3986 266.526 82.0949 260.465 82.2979 254.366C82.2731 247.025 84.0753 239.774 87.5684 233.161C91.0615 226.549 96.1542 220.748 102.462 216.196C112.868 208.17 125.914 203.552 139.525 203.075C149.565 202.857 159.307 206.197 166.71 212.394C169.711 214.93 172.119 217.994 173.788 221.402C175.458 224.81 176.354 228.492 176.424 232.225L186.955 231.33C192.833 230.833 200.235 230.56 209.16 230.51C214.603 224.546 220.045 218.309 225.488 211.798C231.202 205.387 236.1 199.87 240.345 195.546C248.9 186.448 258.663 178.36 269.408 171.466C276.203 166.994 283.614 163.359 291.449 160.656C298.28 158.568 305.264 156.924 312.348 155.736C305.377 152.853 298.101 150.629 290.633 149.101C278.298 146.595 265.715 145.247 253.08 145.075C224.072 146.069 203.691 151.984 191.935 162.818C180.18 173.653 174.519 183.295 174.955 191.744C174.805 196.365 176.519 200.875 179.771 204.417C181.485 206.092 183.578 207.407 185.904 208.269C188.23 209.132 190.734 209.522 193.241 209.412C198.146 209.236 202.957 208.132 207.37 206.168C211.783 204.205 215.701 201.425 218.875 198.006C224.609 192.714 228.207 185.801 229.08 178.399C229.08 175.045 227.773 172.957 225.977 172.212C225.236 172.002 224.563 171.626 224.021 171.118C223.48 170.61 223.086 169.987 222.875 169.304C222.815 169.175 222.783 169.035 222.783 168.894C222.783 168.753 222.815 168.614 222.875 168.484C223.166 168.393 223.482 168.393 223.773 168.484C225.488 168.484 227.039 169.826 228.59 172.286C230.146 175.158 230.93 178.327 230.875 181.53C230.575 189.546 226.819 197.129 220.426 202.628C214.051 208.507 205.478 211.969 196.425 212.32C192.84 212.333 189.29 211.679 185.992 210.397C182.693 209.115 179.715 207.233 177.241 204.865C171.664 199.193 168.734 191.756 169.077 184.14C169.168 178.421 170.626 172.79 173.347 167.64C176.068 162.489 179.988 157.943 184.833 154.32C195.609 145.075 213.079 140.229 237.325 139.409C246.454 139.356 255.572 139.98 264.591 141.273C272.918 142.565 280.537 144.056 287.449 145.746L305.164 150.294C309.036 151.433 313.033 152.183 317.083 152.53C319.747 152.472 322.333 151.694 324.512 150.294C325.63 149.411 326.864 148.66 328.186 148.057C328.539 148.025 328.896 148.084 329.214 148.23C329.532 148.375 329.798 148.599 329.982 148.877C330.372 149.541 330.569 150.286 330.553 151.039C330.423 152.262 330.121 153.465 329.655 154.618C329.316 155.658 328.792 156.64 328.104 157.525C327.554 158.014 326.829 158.305 326.063 158.345C324.16 158.461 322.251 158.461 320.349 158.345C313.793 158.139 307.292 159.501 301.491 162.296C293.902 166.752 287.217 172.377 281.735 178.921C275.393 185.591 269.582 192.666 264.346 200.093C257.747 209.145 251.907 218.64 246.876 228.497C254.636 228.781 262.359 227.376 269.408 224.397C274.387 221.713 276.918 218.731 276.918 215.6C276.889 215.045 276.737 214.5 276.47 214.001C276.203 213.501 275.828 213.056 275.367 212.692C274.909 212.343 274.534 211.912 274.267 211.424C274 210.937 273.847 210.404 273.816 209.86C273.848 209.218 274.024 208.589 274.333 208.012C274.642 207.435 275.077 206.922 275.612 206.505C276.571 205.67 277.805 205.146 279.122 205.014C279.759 204.995 280.392 205.122 280.962 205.382C281.532 205.642 282.022 206.028 282.388 206.505C283.071 207.51 283.412 208.677 283.367 209.86C282.975 214.776 280.483 219.354 276.428 222.608C271.748 227.826 261.435 230.659 245.488 231.106C241.931 238.54 238.85 246.157 236.263 253.919C233.364 262.171 231.743 270.753 231.447 279.415C231.229 283.927 232.268 288.416 234.467 292.461C242.631 304.986 254.876 287.392 257.652 279.564C258.958 275.837 260.101 273.824 261.081 273.6C261.422 273.479 261.801 273.479 262.142 273.6C262.286 273.723 262.397 273.874 262.468 274.042C262.538 274.21 262.567 274.39 262.55 274.569C261.626 278.913 259.706 283.028 256.917 286.646C254.628 289.736 251.88 292.521 248.754 294.922C241.162 300.14 232.427 298.127 226.875 286.497C221.154 273.706 220.292 259.532 224.426 246.24C225.917 241.165 227.772 236.184 229.977 231.33L214.548 231.703C209.895 237.592 205.405 243.556 201.078 249.446C196.752 255.335 192.425 261.747 187.772 267.114C183.169 272.505 178.032 277.496 172.424 282.024C166.594 286.719 160.084 290.658 153.076 293.729C156.035 296.706 159.616 299.114 163.607 300.811C166.871 302.145 170.399 302.856 173.975 302.898C186.792 302.078 187.527 298.202 189.731 294.996C190.547 293.803 193.568 291.194 194.956 292.163C195.125 292.269 195.26 292.416 195.346 292.586C195.433 292.757 195.467 292.945 195.445 293.132C195.445 294.623 193.649 296.86 190.139 299.842C185.798 303.127 180.348 304.944 174.71 304.986C169.272 304.954 163.944 303.589 159.281 301.035C156.294 299.226 153.553 297.099 151.117 294.698L150.627 294.474Z" fill="#A6763C" fill-opacity="0.1"/>
<path fill-rule="evenodd" clip-rule="evenodd" d="M185.071 41.5991V43.0156L184.499 41.8228H185.071M185.071 38.0952V40.3318L183.846 40.7045L182.785 38.7662C183.57 38.5497 184.334 38.2754 185.071 37.9461V38.0952ZM185.071 33.995V36.6042L184.336 37.0515C183.112 37.6479 181.887 37.4988 181.479 37.0515C181.071 36.6042 181.479 35.1878 183.03 34.5914C183.293 34.3367 183.609 34.1329 183.959 33.992C184.31 33.8512 184.688 33.7761 185.071 33.7713V33.995ZM165.805 10.4371L179.601 33.7713L180.418 35.0387C181.211 34.0197 182.319 33.2408 183.601 32.8022C182.035 30.3262 181.166 27.5342 181.071 24.6762C182.295 18.8612 184.581 27.4345 184.744 29.0001V21.8433C183.03 17.2211 178.295 15.5065 177.479 24.5271C174.213 14.9101 172.172 13.1209 165.805 10.4371ZM185.071 36.3806C185.417 36.1629 185.682 35.8526 185.828 35.4923C185.974 35.1319 185.995 34.7392 185.887 34.3677C185.813 34.2162 185.7 34.083 185.558 33.9793C185.416 33.8756 185.249 33.8043 185.071 33.7713V36.3806ZM195.194 64.1133V70.6738H190.622C190.622 69.1082 190.622 67.4681 190.622 65.7534C192.11 65.1265 193.636 64.5788 195.194 64.1133ZM195.194 51.067C193.464 51.5875 191.773 52.2101 190.132 52.9308L188.989 53.4526C189.561 56.2855 190.051 59.7149 190.296 63.2933C191.893 62.6631 193.529 62.1155 195.194 61.6532V59.6403C194.427 59.5285 193.728 59.1706 193.224 58.6309C192.72 58.0912 192.443 57.405 192.443 56.6956C192.443 55.9862 192.72 55.3 193.224 54.7603C193.728 54.2205 194.427 53.8626 195.194 53.7508V51.067ZM195.194 43.9847V48.6068C193.153 49.1957 191.161 49.9182 189.234 50.7688H188.5C188.299 49.3421 187.77 47.9703 186.948 46.7431C189.626 45.6768 192.381 44.7801 195.194 44.0593V43.9847ZM195.194 35.5605L193.234 35.1132C191.503 38.1028 188.581 40.3712 185.071 41.45V42.8665L186.377 45.6248C189.241 44.2928 192.216 43.171 195.275 42.2701L195.194 35.5605ZM195.194 31.9821V34.1441L192.745 33.5477C192.033 35.0794 190.973 36.456 189.637 37.5868C188.3 38.7176 186.716 39.5769 184.989 40.1081V37.8716C186.424 37.3806 187.716 36.5937 188.764 35.5722C189.812 34.5507 190.587 33.3221 191.03 31.9821V30.8639L192.092 31.3112C193.092 31.6652 194.132 31.9153 195.194 32.0567V31.9821ZM195.194 15.581V20.4268C190.622 16.8484 194.296 25.0489 195.194 26.4654C187.765 22.3651 188.5 11.5553 195.194 15.6556V15.581ZM185.071 28.851C185.881 26.5991 185.881 24.1697 185.071 21.9178V28.851ZM204.908 62.1005V70.7483H195.194V64.1133C198.362 63.1854 201.612 62.5119 204.908 62.1005ZM204.908 49.0542V51.2161C204.141 51.3279 203.443 51.6858 202.939 52.2256C202.435 52.7653 202.158 53.4514 202.158 54.1609C202.158 54.8703 202.435 55.5564 202.939 56.0962C203.443 56.6359 204.141 56.9938 204.908 57.1056V59.6403C201.617 60.0425 198.368 60.6908 195.194 61.5786V59.6403C195.961 59.5285 196.659 59.1706 197.163 58.6309C197.667 58.0912 197.944 57.405 197.944 56.6956C197.944 55.9862 197.667 55.3 197.163 54.7603C196.659 54.2205 195.961 53.8626 195.194 53.7508V51.1416C198.359 50.1884 201.61 49.4899 204.908 49.0542ZM204.908 41.5991C201.613 42.0858 198.365 42.8087 195.194 43.7611V48.3832C198.368 47.4954 201.617 46.8471 204.908 46.4449V41.5991ZM204.908 35.0387V40.0336C201.616 40.4974 198.367 41.1953 195.194 42.121V35.7096C198.425 36.2049 201.734 36.0779 204.908 35.3369V35.0387ZM204.908 31.3857V33.5477C201.715 34.2445 198.387 34.2445 195.194 33.5477V32.0567C198.412 32.7065 201.761 32.5781 204.908 31.6839V31.3857ZM204.908 27.1363C204.034 26.8692 203.089 26.8692 202.214 27.1363C200.5 27.1363 199.194 28.4782 199.357 29.3729C199.52 30.2675 201.071 30.7148 202.786 30.342C203.527 30.3146 204.252 30.1363 204.908 29.8202V27.1363ZM204.908 13.7918V26.3908C203.965 26.2201 202.994 26.2201 202.051 26.3908C200.73 26.6119 199.51 27.1822 198.541 28.0309C198.243 25.3274 197.142 22.7496 195.357 20.5759V15.6556C196.41 16.3445 197.369 17.1453 198.214 18.0412C196.739 15.2405 195.918 12.1897 195.806 9.08344C195.694 5.97715 196.291 2.88356 197.561 0C201.806 4.24937 202.949 7.45504 203.276 17.072C203.717 16.0336 204.263 15.0352 204.908 14.09V13.7918ZM204.908 26.0926H206.051C205.402 23.3484 205.543 20.4974 206.459 17.8175C209.643 12.5245 208.909 21.8433 208.582 23.4088C213.97 17.072 209.643 6.48588 204.663 13.4191L204.908 26.0926ZM204.908 29.2983C205.15 29.1539 205.345 28.9536 205.474 28.7179C205.603 28.4822 205.661 28.2194 205.643 27.9564C205.598 27.7773 205.508 27.61 205.381 27.4678C205.253 27.3255 205.092 27.2121 204.908 27.1363V29.2983ZM215.358 61.1313V70.7483H204.908V62.1005C208.261 61.6564 211.644 61.4322 215.031 61.4295L215.358 61.1313ZM215.358 48.085V50.0979C214.591 50.2097 213.892 50.5676 213.388 51.1073C212.884 51.647 212.607 52.3332 212.607 53.0426C212.607 53.752 212.884 54.4382 213.388 54.9779C213.892 55.5176 214.591 55.8755 215.358 55.9873V58.6712C211.854 58.7661 208.362 59.09 204.908 59.6403V57.1801C205.675 57.0683 206.374 56.7104 206.878 56.1707C207.382 55.631 207.659 54.9448 207.659 54.2354C207.659 53.526 207.382 52.8398 206.878 52.3001C206.374 51.7604 205.675 51.4025 204.908 51.2907V49.0542C208.261 48.6101 211.644 48.3859 215.031 48.3832L215.358 48.085ZM215.358 40.63V45.5503C211.972 45.5344 208.59 45.7337 205.235 46.1467V41.8973C208.528 41.4112 211.858 41.162 215.195 41.1518L215.358 40.63ZM215.358 30.4911H214.868C211.982 32.7276 208.576 34.3339 204.908 35.1878V40.1827C208.205 39.7272 211.534 39.5029 214.868 39.5117H215.358V30.4911ZM215.358 25.4217V28.2546L214.868 27.8818C212.109 30.4403 208.681 32.3135 204.908 33.324V31.6839C208.562 30.5625 211.828 28.5828 214.378 25.9435L214.868 25.4962L215.358 25.4217ZM225.317 62.1005V70.7483H215.358V61.4295C218.691 61.4395 222.019 61.6637 225.317 62.1005ZM225.317 49.0542V51.5143C224.55 51.6261 223.852 51.984 223.348 52.5238C222.844 53.0635 222.567 53.7496 222.567 54.4591C222.567 55.1685 222.844 55.8546 223.348 56.3944C223.852 56.9341 224.55 57.292 225.317 57.4038V59.6403C222.018 59.2106 218.69 58.9865 215.358 58.9694V56.4346C216.125 56.3228 216.823 55.9649 217.327 55.4252C217.832 54.8855 218.109 54.1993 218.109 53.4899C218.109 52.7805 217.832 52.0943 217.327 51.5546C216.823 51.0149 216.125 50.657 215.358 50.5452V48.4578C218.691 48.4665 222.019 48.6907 225.317 49.1287V49.0542ZM225.317 41.5991V46.3703C222.018 45.9407 218.69 45.7165 215.358 45.6994V41.2264C218.694 41.2356 222.024 41.4849 225.317 41.9719V41.5991ZM225.317 35.0387V40.0336C222.023 39.5531 218.694 39.3039 215.358 39.2881V31.013C218.259 33.1803 221.666 34.7106 225.317 35.486V35.0387ZM225.317 31.3857C221.474 30.3222 218.028 28.3099 215.358 25.5708V28.4037C218.135 30.8914 221.564 32.688 225.317 33.6222V31.3857ZM225.317 26.8381V29.8202C224.501 29.3729 224.011 28.7764 224.093 28.18C224.184 27.9405 224.347 27.7294 224.564 27.5711C224.78 27.4128 225.042 27.3137 225.317 27.2854V26.8381ZM225.317 14.9101V26.3908C224.748 26.4469 224.194 26.5985 223.685 26.8381C224.33 24.0936 224.189 21.2435 223.276 18.563C220.093 13.27 220.827 22.5888 221.154 24.1543C215.358 17.5193 220.419 6.56043 225.317 14.9101ZM225.317 29.8202C225.822 30.0993 226.374 30.3007 226.95 30.4166C228.664 30.4166 230.216 30.4166 230.379 29.4474C230.542 28.4782 229.236 27.5836 227.522 27.2109C226.771 27.0404 225.986 27.0404 225.236 27.2109L225.317 29.8202ZM234.787 64.1133V70.7483H225.317V62.1005C228.531 62.5245 231.699 63.1979 234.787 64.1133ZM234.787 51.067V53.3035C234.02 53.4153 233.322 53.7732 232.818 54.313C232.313 54.8527 232.036 55.5389 232.036 56.2483C232.036 56.9577 232.313 57.6439 232.818 58.1836C233.322 58.7233 234.02 59.0812 234.787 59.193V61.5786C231.693 60.7013 228.526 60.0531 225.317 59.6403V57.4038C226.084 57.292 226.783 56.9341 227.287 56.3944C227.791 55.8546 228.068 55.1685 228.068 54.4591C228.068 53.7496 227.791 53.0635 227.287 52.5238C226.783 51.984 226.084 51.6261 225.317 51.5143V49.1287C228.53 49.5545 231.698 50.2279 234.787 51.1416V51.067ZM234.787 44.1338C231.696 43.193 228.53 42.4702 225.317 41.9719V46.7431C228.526 47.1572 231.692 47.8054 234.787 48.6814V44.1338ZM234.787 35.6351V42.4937C231.694 41.5778 228.528 40.88 225.317 40.4063V35.486C228.43 36.126 231.653 36.1767 234.787 35.6351ZM234.787 32.0567V34.2186C231.672 34.8803 228.432 34.8803 225.317 34.2186V31.833C228.402 32.6389 231.661 32.7159 234.787 32.0567ZM234.787 15.581V20.4268C233.002 22.6005 231.901 25.1783 231.603 27.8818C230.634 27.0331 229.414 26.4628 228.093 26.2417C227.282 26.1207 226.455 26.1207 225.644 26.2417V14.9101C226.102 15.6319 226.511 16.3788 226.868 17.1466C226.868 7.45504 228.256 4.32392 232.583 0.0745504C233.878 2.94782 234.504 6.03603 234.419 9.14227C234.335 12.2485 233.543 15.3046 232.093 18.1157C232.872 17.172 233.777 16.3205 234.787 15.581ZM234.787 26.5399C235.93 24.4525 238.706 17.8175 234.787 20.725V15.581C241.236 11.8535 241.563 22.3651 234.787 26.4654V26.5399ZM234.787 48.9051V44.1338C237.581 44.9537 240.309 45.9502 242.951 47.1158C242.168 48.2994 241.667 49.6203 241.481 50.9925H241.073C239.046 50.0765 236.944 49.3039 234.787 48.6814V48.9051ZM234.787 61.9514V59.6403C235.554 59.5285 236.253 59.1706 236.757 58.6309C237.261 58.0912 237.538 57.405 237.538 56.6956C237.538 55.9862 237.261 55.3 236.757 54.7603C236.253 54.2205 235.554 53.8626 234.787 53.7508V51.5143C236.545 52.0309 238.263 52.6536 239.93 53.3781L240.747 53.7508C240.175 56.5837 239.685 60.0131 239.44 63.5915C237.931 62.8659 236.377 62.2188 234.787 61.6532V61.9514ZM234.787 71.0465V64.1133C236.315 64.5575 237.814 65.0802 239.277 65.6789C239.277 67.3936 239.277 69.1082 239.277 70.6738L234.787 71.0465ZM244.91 41.5991C241.4 40.5203 238.478 38.2519 236.746 35.2623L235.032 35.6351V42.4937C238.005 43.3817 240.898 44.4784 243.685 45.7739L244.91 43.0156V41.5991ZM244.91 37.8716C243.475 37.3806 242.183 36.5937 241.135 35.5722C240.087 34.5507 239.312 33.3221 238.869 31.9821V30.8639L237.808 31.3112C237.018 31.6282 236.198 31.8778 235.359 32.0567V34.2186L236.746 33.6222C237.458 35.154 238.518 36.5306 239.854 37.6613C241.191 38.7921 242.775 39.6514 244.502 40.1827L244.91 37.8716ZM244.91 33.7713V36.3806C244.563 36.1629 244.299 35.8526 244.153 35.4923C244.007 35.1319 243.986 34.7392 244.094 34.3677C244.168 34.2162 244.281 34.083 244.423 33.9793C244.565 33.8756 244.732 33.8043 244.91 33.7713ZM244.91 21.8433V28.7764C244.1 26.5246 244.1 24.0951 244.91 21.8433ZM244.91 28.7764C244.91 27.2854 247.359 18.6376 248.584 24.4525C248.464 27.317 247.566 30.1094 245.971 32.5785C247.253 33.0171 248.362 33.796 249.155 34.815L249.971 33.5477L263.931 10.4371C257.564 13.1209 255.768 15.1337 251.931 24.5271C251.114 15.581 246.379 17.072 244.665 21.8433L244.91 28.7764ZM244.91 36.2315V33.7713C245.543 33.5605 246.237 33.5605 246.869 33.7713C248.094 34.3677 248.747 35.486 248.42 36.2315C248.094 36.977 246.788 37.1261 245.563 36.2315H244.91ZM244.91 40.0336V37.797C245.649 38.1014 246.413 38.3508 247.196 38.5425L246.135 40.4809L244.91 40.0336ZM244.91 42.941V41.5991H245.481L244.91 42.941Z" fill="#A6763C" fill-opacity="0.1"/>
<path fill-rule="evenodd" clip-rule="evenodd" d="M82.6978 94.5288C72.153 102.204 62.4721 110.82 53.7986 120.249C58.1875 113.758 60.785 106.392 61.368 98.7821C61.951 91.1725 60.5021 83.5474 57.1457 76.5621C57.1457 76.5621 32.1651 95.7961 44.5738 131.655L44.0023 132.4C37.3168 141.194 31.6274 150.586 27.022 160.431C28.4941 153.372 28.107 146.094 25.8927 139.198C23.6784 132.302 19.7004 125.986 14.2868 120.771C9.66161 129.618 7.83016 139.468 8.99829 149.213C10.1664 158.959 14.2878 168.214 20.8993 175.938C17.2682 186.98 14.9956 198.357 14.1235 209.858C12.895 203.388 9.95491 197.289 5.55877 192.092C1.16263 186.896 -4.5566 182.758 -11.102 180.038C-12.4127 189.472 -10.7695 199.052 -6.36272 207.667C-1.95598 216.283 5.03389 223.583 13.797 228.719C14.2456 237.929 15.4188 247.098 17.3073 256.154C14.2847 251.321 10.0547 247.208 4.96179 244.151C-0.131118 241.093 -5.94284 239.178 -12 238.56C-11.0921 247.922 -7.12906 256.821 -0.623532 264.104C5.88199 271.387 14.6308 276.72 24.4913 279.414C31.3015 295.002 39.9806 309.853 50.3699 323.697C46.8596 319.298 25.8791 294.995 -1.87713 306.923C3.36608 314.898 11.4469 320.988 21.0156 324.176C30.5842 327.365 41.0612 327.459 50.6965 324.442L51.1047 325.411V325.039C54.2068 329.064 57.6355 332.941 61.2275 336.668C66.3726 341.887 72.2144 346.495 78.616 350.386C71.1885 346.823 62.6981 345.552 54.4137 346.761C46.1294 347.971 38.4961 351.596 32.6549 357.095C40.5092 362.847 50.3465 365.862 60.4103 365.603C70.4742 365.344 80.1095 361.826 87.596 355.679L88.5756 356.126C101.742 362.358 115.383 367.715 129.394 372.154C120.855 371.423 112.278 373.132 104.849 377.045C97.4196 380.958 91.505 386.882 87.9225 393.998C87.9225 393.998 116.495 404.211 138.374 375.286L143.027 376.926L150.292 379.237C148.971 380.617 147.846 382.145 146.945 383.784C145.504 386.372 144.382 389.097 143.598 391.91C142.873 392.094 142.237 392.496 141.793 393.05C141.349 393.605 141.122 394.28 141.149 394.967C141.076 395.382 141.102 395.808 141.226 396.213C141.35 396.619 141.569 396.995 141.868 397.316C142.167 397.636 142.538 397.894 142.957 398.07C143.376 398.247 143.831 398.338 144.292 398.338C144.753 398.338 145.209 398.247 145.627 398.07C146.046 397.894 146.418 397.636 146.717 397.316C147.015 396.995 147.234 396.619 147.359 396.213C147.483 395.808 147.509 395.382 147.435 394.967C147.445 394.463 147.324 393.964 147.083 393.511C146.842 393.057 146.487 392.662 146.047 392.358V391.538C146.746 389.3 147.675 387.129 148.823 385.052C149.777 383.241 151.076 381.6 152.66 380.206L156.987 381.548C155.805 382.637 154.79 383.865 153.966 385.201C152.565 387.51 151.651 390.039 151.272 392.656C151.194 393.599 151.194 394.546 151.272 395.489V395.936C150.758 396.224 150.337 396.631 150.05 397.115C149.764 397.599 149.622 398.144 149.639 398.694C149.566 399.11 149.592 399.535 149.716 399.941C149.84 400.346 150.059 400.722 150.358 401.043C150.657 401.364 151.029 401.621 151.447 401.798C151.866 401.974 152.321 402.066 152.782 402.066C153.243 402.066 153.699 401.974 154.118 401.798C154.536 401.621 154.908 401.364 155.207 401.043C155.506 400.722 155.725 400.346 155.849 399.941C155.973 399.535 155.999 399.11 155.925 398.694C155.939 398.07 155.743 397.456 155.364 396.936C154.984 396.416 154.44 396.015 153.803 395.787C153.742 394.993 153.742 394.195 153.803 393.401C154.145 391.205 154.92 389.084 156.089 387.139C156.923 385.77 157.998 384.535 159.272 383.486L159.925 383.039L180.416 389.45L182.049 386.915L165.395 380.206C165.313 377.814 165.934 375.446 167.191 373.347C168.307 371.783 169.784 370.46 171.518 369.471C172.049 369.863 172.713 370.073 173.395 370.067C174.084 370.127 174.776 369.996 175.381 369.69C175.986 369.385 176.476 368.919 176.786 368.355C177.096 367.791 177.213 367.154 177.119 366.529C177.026 365.903 176.728 365.318 176.264 364.849C175.801 364.381 175.193 364.052 174.52 363.905C173.848 363.758 173.142 363.8 172.497 364.026C171.851 364.251 171.295 364.65 170.902 365.169C170.508 365.689 170.296 366.305 170.293 366.936C168.223 368.107 166.466 369.686 165.15 371.558C163.717 373.829 162.931 376.392 162.864 379.013L158.456 377.522C157.681 374.658 157.681 371.664 158.456 368.8C159.029 366.482 160.269 364.346 162.048 362.612H163.273C163.961 362.672 164.653 362.541 165.258 362.235C165.863 361.93 166.353 361.464 166.663 360.9C166.973 360.336 167.09 359.699 166.997 359.074C166.904 358.448 166.605 357.863 166.142 357.394C165.678 356.926 165.07 356.597 164.397 356.45C163.725 356.303 163.02 356.345 162.374 356.571C161.728 356.796 161.172 357.195 160.779 357.714C160.386 358.234 160.174 358.849 160.17 359.481C160.048 359.972 160.048 360.481 160.17 360.972C158.266 362.986 156.922 365.39 156.252 367.98C155.429 370.772 155.208 373.683 155.599 376.553L151.68 375.286C151.418 374.78 151.199 374.257 151.027 373.72C150.512 372.087 150.157 370.415 149.966 368.725C149.966 367.16 149.966 365.594 149.966 364.252C149.966 362.91 149.966 361.941 149.966 361.046C150.647 360.839 151.236 360.437 151.648 359.9C152.059 359.363 152.271 358.72 152.252 358.064C152.325 357.649 152.299 357.223 152.175 356.818C152.051 356.412 151.832 356.036 151.533 355.716C151.234 355.395 150.863 355.137 150.444 354.961C150.025 354.784 149.57 354.693 149.109 354.693C148.648 354.693 148.192 354.784 147.773 354.961C147.355 355.137 146.983 355.395 146.684 355.716C146.386 356.036 146.166 356.412 146.042 356.818C145.918 357.223 145.892 357.649 145.966 358.064C145.954 358.595 146.09 359.12 146.361 359.589C146.633 360.059 147.03 360.458 147.517 360.748C147.237 363.55 147.237 366.37 147.517 369.172C147.744 370.913 148.126 372.633 148.66 374.316L146.456 373.571L144.415 372.825L140.741 371.558C140.741 363.581 138.945 334.283 111.842 324.815C110.999 333.126 112.448 341.498 116.055 349.168C119.663 356.838 125.315 363.561 132.496 368.725L130.618 368.8C116.602 364.375 102.959 359.018 89.8001 352.771C92.6574 343.378 97.9637 317.211 77.0649 300.586C73.6167 308.37 72.2762 316.799 73.1573 325.157C74.0385 333.516 77.1152 341.556 82.1263 348.596C75.4799 344.621 69.4405 339.858 64.1664 334.432C60.488 330.596 57.0275 326.589 53.7986 322.429C59.7581 314.229 72.7382 291.864 58.4519 269.2C52.9474 275.151 49.0286 282.187 47.003 289.754C44.9775 297.321 44.9005 305.213 46.7779 312.812C39.7759 302.384 33.6886 291.465 28.5731 280.159C37.9797 276.274 45.877 269.878 51.2251 261.813C56.5732 253.749 59.1212 244.394 58.5335 234.982C58.5335 234.982 31.0222 241.989 26.6138 275.537C23.7566 268.753 22.2871 264.429 22.2055 264.28C19.434 253.38 17.7131 242.279 17.0624 231.105C27.2079 229.924 36.6636 225.78 44.0195 219.291C51.3754 212.802 56.2374 204.316 57.8804 195.097C57.8804 195.097 29.5527 194.724 17.0624 226.036C16.4528 210.132 18.5457 194.238 23.2668 178.92C32.7055 181.571 42.8571 181.164 52.0052 177.768C61.1533 174.372 68.7366 168.195 73.4729 160.282C65.0564 157.412 55.8544 157.08 47.2159 159.334C38.5774 161.588 30.9567 166.309 25.4709 172.807C30.5125 159.237 37.6309 146.386 46.6147 134.637C54.7783 139.93 77.8813 151.933 98.9434 135.159C92.7383 129.77 84.8795 126.24 76.418 125.041C67.9566 123.842 59.2959 125.031 51.5945 128.449C61.1334 117.219 72.0945 107.059 84.2489 98.1817C90.4532 103.028 114.373 119.503 137.802 102.953C132.019 97.2427 124.486 93.2564 116.186 91.5143C107.885 89.7722 99.2021 90.3551 91.2696 93.1869C98.0855 88.5215 105.261 84.3109 112.74 80.5878C125.23 81.1097 161.721 80.066 167.109 50.7677C167.109 50.7677 131.843 39.5851 109.964 77.8295C103.441 81.1575 97.1435 84.842 91.1063 88.8629C96.8447 82.3252 100.616 74.5334 102.048 66.2574C103.479 57.9813 102.522 49.5073 99.2699 41.6725C99.2699 41.6725 73.4729 59.0428 82.6978 94.5288Z" fill="#A6763C" fill-opacity="0.1"/>
<path fill-rule="evenodd" clip-rule="evenodd" d="M347.042 94.5288C357.587 102.205 367.267 110.821 375.942 120.249C371.605 113.733 369.065 106.354 368.538 98.7452C368.012 91.1359 369.516 83.5237 372.921 76.5621C372.921 76.5621 397.902 95.7961 385.493 131.655L386.064 132.4C392.751 141.194 398.44 150.586 403.045 160.431C401.573 153.372 401.96 146.094 404.174 139.198C406.388 132.302 410.366 125.986 415.78 120.771C420.405 129.618 422.237 139.468 421.068 149.213C419.9 158.959 415.779 168.214 409.167 175.938C412.95 187.013 415.36 198.441 416.351 210.007C417.58 203.537 420.52 197.438 424.916 192.242C429.312 187.045 435.032 182.907 441.577 180.187C442.871 189.662 441.186 199.278 436.719 207.911C432.253 216.545 425.188 223.839 416.351 228.943C415.902 238.153 414.729 247.321 412.841 256.378C415.795 251.55 419.949 247.422 424.968 244.328C429.988 241.233 435.732 239.258 441.74 238.56C440.795 247.905 436.806 256.777 430.287 264.033C423.768 271.288 415.019 276.593 405.167 279.265C398.355 294.851 389.676 309.703 379.289 323.548C382.799 319.149 403.779 294.846 431.536 306.774C426.293 314.748 418.212 320.839 408.643 324.027C399.074 327.216 388.597 327.31 378.962 324.293L378.554 325.262V324.889C375.452 328.915 372.023 332.792 368.431 336.519C363.297 341.791 357.454 346.45 351.043 350.386C358.453 346.832 366.921 345.558 375.187 346.754C383.454 347.949 391.077 351.55 396.922 357.021C389.068 362.773 379.23 365.788 369.167 365.528C359.103 365.269 349.467 361.752 341.981 355.604L341.001 356.052C327.835 362.283 314.194 367.64 300.183 372.08C308.722 371.348 317.299 373.057 324.728 376.97C332.157 380.883 338.072 386.807 341.654 393.923C341.654 393.923 313.082 404.137 291.203 375.211L286.55 376.851L279.203 379.162C280.525 380.542 281.65 382.07 282.55 383.71C283.951 386.375 285.019 389.176 285.734 392.059C286.459 392.243 287.095 392.645 287.539 393.199C287.984 393.754 288.21 394.429 288.183 395.116C288.256 395.532 288.23 395.957 288.106 396.362C287.982 396.768 287.763 397.144 287.464 397.465C287.165 397.785 286.794 398.043 286.375 398.219C285.957 398.396 285.501 398.487 285.04 398.487C284.579 398.487 284.123 398.396 283.705 398.219C283.286 398.043 282.914 397.785 282.616 397.465C282.317 397.144 282.098 396.768 281.974 396.362C281.849 395.957 281.823 395.532 281.897 395.116C281.887 394.612 282.008 394.113 282.249 393.66C282.49 393.206 282.845 392.811 283.285 392.507V391.687C282.588 389.449 281.658 387.277 280.509 385.201C279.555 383.39 278.256 381.749 276.672 380.355L272.345 381.697C273.525 382.787 274.541 384.015 275.366 385.35C276.765 387.66 277.679 390.188 278.06 392.805C277.95 393.584 277.786 394.356 277.57 395.116V395.563C278.084 395.851 278.505 396.258 278.792 396.742C279.079 397.227 279.22 397.771 279.203 398.322C279.276 398.737 279.25 399.163 279.126 399.568C279.002 399.974 278.783 400.35 278.484 400.67C278.185 400.991 277.814 401.248 277.395 401.425C276.977 401.602 276.521 401.693 276.06 401.693C275.599 401.693 275.143 401.602 274.725 401.425C274.306 401.248 273.934 400.991 273.636 400.67C273.337 400.35 273.118 399.974 272.994 399.568C272.869 399.163 272.843 398.737 272.917 398.322C272.914 397.699 273.115 397.09 273.493 396.572C273.871 396.054 274.409 395.651 275.039 395.414C275.101 394.62 275.101 393.823 275.039 393.029C274.697 390.832 273.922 388.711 272.754 386.766C271.92 385.397 270.844 384.163 269.57 383.113L269.407 382.442L248.916 388.854L247.283 386.319L264.345 380.206C264.427 377.814 263.807 375.446 262.549 373.347C261.433 371.783 259.957 370.46 258.222 369.471C257.691 369.863 257.028 370.073 256.345 370.067C255.657 370.127 254.964 369.996 254.359 369.69C253.754 369.385 253.264 368.919 252.954 368.355C252.644 367.791 252.528 367.154 252.621 366.529C252.714 365.903 253.012 365.318 253.476 364.849C253.94 364.381 254.548 364.052 255.22 363.905C255.893 363.758 256.598 363.8 257.244 364.026C257.889 364.251 258.445 364.65 258.839 365.169C259.232 365.689 259.444 366.305 259.447 366.936C261.517 368.107 263.275 369.686 264.59 371.558C266.023 373.829 266.809 376.392 266.876 379.013L271.284 377.522C272.059 374.658 272.059 371.664 271.284 368.8C270.711 366.482 269.471 364.346 267.692 362.612H266.957C266.269 362.672 265.577 362.541 264.972 362.235C264.367 361.93 263.877 361.464 263.567 360.9C263.257 360.336 263.14 359.699 263.233 359.074C263.327 358.448 263.625 357.863 264.088 357.394C264.552 356.926 265.16 356.597 265.833 356.45C266.505 356.303 267.211 356.345 267.856 356.571C268.502 356.796 269.058 357.195 269.451 357.714C269.844 358.234 270.057 358.849 270.06 359.481C270.185 359.971 270.185 360.481 270.06 360.972C271.964 362.986 273.308 365.39 273.978 367.98C274.801 370.772 275.023 373.683 274.631 376.553L278.55 375.286C278.814 374.781 279.033 374.257 279.203 373.72C279.717 372.087 280.072 370.415 280.264 368.725C280.264 367.16 280.264 365.594 280.264 364.252C280.264 362.91 280.264 361.941 280.264 361.046C279.583 360.839 278.994 360.437 278.582 359.9C278.171 359.363 277.959 358.72 277.978 358.064C277.905 357.649 277.931 357.223 278.055 356.818C278.179 356.412 278.398 356.036 278.697 355.716C278.996 355.395 279.368 355.137 279.786 354.961C280.205 354.784 280.66 354.693 281.121 354.693C281.582 354.693 282.038 354.784 282.457 354.961C282.875 355.137 283.247 355.395 283.546 355.716C283.845 356.036 284.064 356.412 284.188 356.818C284.312 357.223 284.338 357.649 284.264 358.064C284.276 358.595 284.14 359.12 283.869 359.589C283.597 360.059 283.2 360.458 282.713 360.748C282.993 363.55 282.993 366.37 282.713 369.172C282.487 370.913 282.104 372.633 281.57 374.316L283.774 373.571L285.815 372.825L289.489 371.558C289.489 363.581 291.285 334.283 318.388 324.815C319.231 333.126 317.782 341.498 314.175 349.168C310.567 356.838 304.915 363.561 297.734 368.725L299.53 368.129C313.547 363.704 327.189 358.347 340.348 352.1C337.491 342.707 332.185 316.54 353.084 299.915C356.532 307.699 357.872 316.128 356.991 324.486C356.11 332.845 353.033 340.885 348.022 347.926C354.669 343.95 360.708 339.187 365.982 333.761C369.368 330.052 372.556 326.196 375.533 322.206C369.574 314.005 356.594 291.64 370.88 268.977C376.385 274.928 380.303 281.963 382.329 289.53C384.355 297.097 384.432 304.99 382.554 312.589C389.556 302.16 395.643 291.241 400.759 279.936C391.352 276.05 383.455 269.654 378.107 261.59C372.759 253.525 370.211 244.171 370.799 234.758C370.799 234.758 398.31 241.766 402.718 275.313C405.657 268.529 407.045 264.205 407.127 264.056C410.048 253.243 411.933 242.217 412.759 231.105C402.614 229.924 393.158 225.78 385.802 219.291C378.446 212.802 373.584 204.316 371.941 195.097C371.941 195.097 400.351 194.724 412.759 226.036C413.344 210.128 411.223 194.234 406.473 178.92C397.066 181.539 386.959 181.123 377.847 177.743C368.735 174.363 361.173 168.225 356.431 160.357C364.847 157.487 374.049 157.154 382.688 159.408C391.326 161.662 398.947 166.384 404.433 172.881C399.525 159.306 392.545 146.431 383.697 134.637C375.533 139.93 352.43 151.933 331.368 135.159C337.573 129.77 345.432 126.24 353.894 125.041C362.355 123.842 371.016 125.031 378.717 128.449C369.178 117.219 358.217 107.06 346.063 98.1817C339.858 103.028 315.939 119.503 292.51 102.953C298.292 97.2427 305.825 93.2564 314.126 91.5143C322.427 89.7722 331.11 90.3551 339.042 93.1869C332.226 88.5211 325.051 84.3105 317.572 80.5878C305.082 81.1097 268.59 80.066 263.202 50.7677C263.202 50.7677 298.469 39.5851 320.347 77.8295C326.843 81.1595 333.113 84.844 339.124 88.8629C333.393 82.3217 329.626 74.5302 328.195 66.2556C326.763 57.981 327.716 49.5085 330.96 41.6725C330.96 41.6725 356.186 59.0428 347.042 94.5288Z" fill="#A6763C" fill-opacity="0.1"/>
<path fill-rule="evenodd" clip-rule="evenodd" d="M224.748 401.901C227.606 403.914 225.238 411.518 221.646 413.084L222.871 413.531C225.504 414.77 228.408 415.458 231.369 415.543C234.33 415.628 237.275 415.109 239.989 414.024C242.703 412.938 245.117 411.313 247.056 409.268C248.996 407.222 250.411 404.807 251.199 402.199C246.953 398.024 229.075 379.312 231.524 356.798H217.156V388.855C218.735 388.504 220.383 388.503 221.962 388.851C223.542 389.199 225.007 389.887 226.237 390.857C227.467 391.827 228.425 393.051 229.032 394.427C229.64 395.804 229.878 397.292 229.728 398.77C229.728 399.143 222.708 389.004 217.156 399.59V402.572C218.076 401.594 219.354 400.956 220.752 400.777C222.15 400.599 223.571 400.893 224.748 401.603M217.156 438.878H243.851C236.177 435.971 219.36 432.094 217.156 418.451V417.482C221.191 419.778 225.78 421.137 230.522 421.442C235.264 421.747 240.016 420.988 244.363 419.23C248.71 417.473 252.521 414.772 255.462 411.362C258.404 407.951 260.387 403.935 261.24 399.664C239.606 381.772 230.381 365.52 240.994 345.69C241.729 344.348 242.708 348.225 245.239 349.716C247.77 351.207 252.586 350.461 252.913 344.721C253.484 333.911 240.504 332.867 235.198 344.348C233.982 346.967 233.053 349.689 232.422 352.474H217.156V345.466C217.588 345.539 218.031 345.539 218.462 345.466C219.668 345.353 220.778 344.814 221.556 343.965C222.333 343.116 222.717 342.023 222.626 340.919C222.689 339.886 222.345 338.867 221.656 338.047C220.967 337.226 219.979 336.658 218.871 336.446C218.94 335.976 218.94 335.499 218.871 335.029C219.051 334.452 219.082 333.845 218.962 333.255C218.842 332.665 218.573 332.109 218.178 331.63C217.782 331.151 217.27 330.762 216.682 330.495C216.094 330.227 215.446 330.088 214.789 330.088C214.132 330.088 213.484 330.227 212.896 330.495C212.308 330.762 211.796 331.151 211.4 331.63C211.004 332.109 210.736 332.665 210.615 333.255C210.495 333.845 210.527 334.452 210.707 335.029C210.637 335.499 210.637 335.976 210.707 336.446C209.599 336.658 208.611 337.226 207.922 338.047C207.233 338.867 206.889 339.886 206.952 340.919C206.86 342.023 207.244 343.116 208.022 343.965C208.799 344.814 209.909 345.353 211.115 345.466C211.547 345.539 211.99 345.539 212.421 345.466V352.474H197.564C196.932 349.689 196.003 346.967 194.788 344.348C189.482 332.867 176.502 333.986 177.073 344.721C177.073 350.461 181.808 351.356 184.747 349.716C187.686 348.076 188.257 344.348 188.992 345.69C199.605 365.52 190.38 381.772 168.746 399.664C169.617 403.866 171.588 407.814 174.489 411.17C177.39 414.527 181.137 417.194 185.41 418.943C189.683 420.693 194.356 421.474 199.03 421.22C203.705 420.965 208.243 419.683 212.258 417.482V418.451C210.054 432.168 193.237 436.045 185.563 438.878H217.156ZM206.952 413.382C204.318 414.621 201.415 415.309 198.454 415.394C195.492 415.479 192.548 414.96 189.834 413.875C187.12 412.789 184.705 411.164 182.766 409.119C180.827 407.073 179.412 404.658 178.624 402.05C182.787 397.875 200.747 379.163 198.38 356.649H212.258V388.706C210.679 388.355 209.032 388.354 207.452 388.702C205.873 389.05 204.407 389.738 203.177 390.708C201.947 391.678 200.989 392.902 200.382 394.278C199.775 395.654 199.536 397.143 199.686 398.621C199.686 398.994 206.707 388.855 212.258 399.441V402.572C211.339 401.594 210.06 400.956 208.663 400.777C207.265 400.599 205.844 400.893 204.666 401.603C201.809 403.616 204.176 411.22 207.768 412.785L206.952 413.382Z" fill="#A6763C" fill-opacity="0.1"/>
</svg>
