<svg width="52" height="54" viewBox="0 0 52 54" fill="none" xmlns="http://www.w3.org/2000/svg">
<path d="M18.0145 33.0988C18.0171 33.4392 18.0595 33.778 18.141 34.1084C18.2282 34.4583 18.3684 34.7927 18.5565 35.0998C19.1482 34.8353 19.6989 34.486 20.1914 34.0629C20.8764 33.4523 21.5136 32.7894 22.0973 32.0801C22.5309 31.5707 23.0999 30.8764 23.8045 29.9972L25.06 28.4327H24.1567C23.5877 28.4327 23.0548 28.4327 22.576 28.5237L21.727 28.6146C21.6801 28.9549 21.6015 29.2898 21.4921 29.6152C21.3443 30.0681 21.1112 30.4881 20.8056 30.8522C20.1176 31.6663 19.1499 32.1892 18.0958 32.3166C18.1071 32.4254 18.1071 32.5351 18.0958 32.644C18.0816 32.7922 18.0816 32.9415 18.0958 33.0897M18.3307 31.7708C18.7915 31.6542 19.2306 31.4638 19.6314 31.2069C19.9482 30.9966 20.234 30.7424 20.4805 30.452C20.7716 30.1197 21.012 29.7457 21.194 29.3423C21.2811 29.1559 21.3361 28.956 21.3566 28.7511C21.0065 28.8573 20.6652 28.9911 20.3359 29.1513C19.8984 29.3764 19.5088 29.6854 19.1888 30.0608C18.9111 30.3106 18.6735 30.6021 18.4842 30.9249C18.3668 31.1975 18.2878 31.4853 18.2494 31.7799L18.3307 31.7708ZM18.421 25.4676C16.7484 25.5906 15.172 26.3021 13.9679 27.4777C13.3473 27.9767 12.8324 28.5961 12.4538 29.2992C12.0752 30.0022 11.8406 30.7747 11.764 31.5707C11.7608 32.1283 11.8696 32.6809 12.0838 33.1951C12.298 33.7093 12.6132 34.1747 13.0105 34.5632C13.8282 35.3403 14.912 35.7703 16.0364 35.7638C16.5033 35.7603 16.9678 35.6961 17.4184 35.5728C17.7353 35.4915 18.0393 35.366 18.3217 35.1999C18.1596 34.857 18.0267 34.5011 17.9242 34.1357C17.8244 33.7683 17.7758 33.3887 17.7797 33.0078C17.7712 32.8442 17.7712 32.6803 17.7797 32.5167V32.2893C17.2327 32.3126 16.6961 32.1342 16.2704 31.7876C15.8447 31.441 15.5592 30.9499 15.4673 30.4065C15.4653 30.1123 15.5502 29.8242 15.7112 29.5788C15.8648 29.3787 15.9912 29.2786 16.0996 29.2786C16.1378 29.2661 16.1789 29.2661 16.2171 29.2786C16.2352 29.2922 16.2496 29.3102 16.2591 29.3308C16.2685 29.3515 16.2727 29.3742 16.2712 29.3969C16.2503 29.4802 16.2122 29.5581 16.1592 29.6255C16.1063 29.6929 16.0398 29.7483 15.9641 29.788C15.8657 29.8613 15.7864 29.9575 15.7329 30.0684C15.6795 30.1792 15.6534 30.3015 15.657 30.4247C15.657 31.6708 17.1203 31.789 17.8971 31.789C18.077 30.9911 18.4706 30.2581 19.0352 29.6697C19.6648 29.0648 20.44 28.6354 21.2844 28.4236V27.9325C21.2981 27.5656 21.223 27.2009 21.0657 26.8698C20.9083 26.5386 20.6734 26.2509 20.3811 26.0315C19.7988 25.6496 19.1158 25.453 18.421 25.4676ZM27.833 27.9689C28.2323 27.1553 28.6881 26.3712 29.197 25.6222C29.734 24.8339 30.3161 24.0777 30.9402 23.3574C32.1522 21.9439 33.5644 20.7179 35.1314 19.7192C33.7223 19.8374 31.0035 21.8475 29.5041 23.6757C28.7814 24.5125 28.1672 25.2766 27.6524 25.9951C27.1375 26.7137 26.6678 27.3686 26.2433 27.978L27.833 27.9689ZM18.8907 35.9275C18.5801 36.0341 18.2592 36.1072 17.9333 36.1458C17.5566 36.2044 17.1762 36.2348 16.7951 36.2368C15.4421 36.2644 14.1221 35.8138 13.0647 34.9634C12.5012 34.4816 12.0526 33.8782 11.7524 33.1979C11.4522 32.5177 11.3079 31.7781 11.3304 31.0341C11.3277 30.1384 11.5271 29.2537 11.9136 28.447C12.3001 27.6402 12.8635 26.9325 13.5615 26.3771C14.7128 25.3979 16.1563 24.8344 17.6623 24.7763C18.7731 24.7497 19.8511 25.1571 20.6701 25.9133C21.0022 26.2226 21.2686 26.5964 21.4534 27.0123C21.6381 27.4281 21.7373 27.8772 21.745 28.3327L22.9102 28.2235C23.5606 28.1629 24.3795 28.1296 25.3671 28.1235C25.9693 27.3958 26.5715 26.6348 27.1736 25.8405C27.8059 25.0583 28.3479 24.3852 28.8176 23.8577C29.7642 22.7477 30.8443 21.7608 32.0332 20.9198C32.785 20.3741 33.605 19.9307 34.472 19.6009C35.2278 19.3462 36.0005 19.1456 36.7844 19.0006C36.013 18.6488 35.2079 18.3776 34.3817 18.1911C33.0169 17.8854 31.6247 17.7208 30.2267 17.6999C27.0171 17.8212 24.7619 18.5428 23.4612 19.8647C22.1605 21.1866 21.5343 22.3629 21.5824 23.3938C21.5659 23.9575 21.7555 24.5078 22.1154 24.94C22.305 25.1444 22.5366 25.3047 22.7939 25.41C23.0513 25.5152 23.3283 25.5628 23.6057 25.5494C24.1484 25.528 24.6808 25.3932 25.169 25.1536C25.6573 24.9141 26.0908 24.575 26.442 24.1578C27.0765 23.5122 27.4745 22.6688 27.5711 21.7657C27.5711 21.3564 27.4266 21.1017 27.2278 21.0107C27.1458 20.9851 27.0714 20.9393 27.0114 20.8773C26.9515 20.8154 26.9079 20.7393 26.8846 20.656C26.8779 20.6402 26.8744 20.6232 26.8744 20.606C26.8744 20.5888 26.8779 20.5718 26.8846 20.556C26.9168 20.5449 26.9517 20.5449 26.984 20.556C27.1736 20.556 27.3453 20.7197 27.5169 21.0198C27.6891 21.3702 27.7758 21.7568 27.7698 22.1477C27.7365 23.1256 27.321 24.0508 26.6136 24.7217C25.9082 25.439 24.9596 25.8614 23.958 25.9042C23.5614 25.9058 23.1686 25.826 22.8036 25.6696C22.4387 25.5132 22.1092 25.2835 21.8354 24.9946C21.2183 24.3026 20.8942 23.3953 20.9321 22.466C20.9422 21.7684 21.1034 21.0814 21.4045 20.453C21.7056 19.8246 22.1394 19.2699 22.6754 18.8278C23.8677 17.6999 25.8007 17.1087 28.4834 17.0087C29.4935 17.0022 30.5024 17.0783 31.5003 17.2361C32.4216 17.3937 33.2646 17.5756 34.0294 17.7818L35.9895 18.3366C36.4179 18.4756 36.8601 18.5671 37.3083 18.6095C37.603 18.6024 37.8891 18.5075 38.1302 18.3366C38.2539 18.229 38.3904 18.1373 38.5367 18.0638C38.5758 18.0598 38.6153 18.0671 38.6504 18.0848C38.6856 18.1025 38.7151 18.1299 38.7354 18.1638C38.7786 18.2448 38.8004 18.3357 38.7986 18.4276C38.7843 18.5768 38.7509 18.7235 38.6993 18.8642C38.6617 18.9911 38.6038 19.1109 38.5277 19.2189C38.4668 19.2786 38.3866 19.3141 38.3018 19.319C38.0913 19.333 37.8801 19.333 37.6696 19.319C36.9442 19.2938 36.2249 19.46 35.583 19.801C34.7433 20.3447 34.0037 21.031 33.3971 21.8293C32.6954 22.6431 32.0525 23.5063 31.4732 24.4125C30.7429 25.5169 30.0968 26.6753 29.5402 27.8779C30.3988 27.9125 31.2533 27.7411 32.0332 27.3777C32.5842 27.0502 32.8642 26.6864 32.8642 26.3044C32.861 26.2366 32.8441 26.1702 32.8146 26.1092C32.7851 26.0483 32.7436 25.994 32.6926 25.9496C32.6418 25.9071 32.6004 25.8544 32.5709 25.7949C32.5413 25.7354 32.5243 25.6704 32.521 25.604C32.5245 25.5257 32.544 25.449 32.5782 25.3786C32.6124 25.3082 32.6605 25.2456 32.7197 25.1947C32.8258 25.0928 32.9623 25.0289 33.1081 25.0128C33.1786 25.0105 33.2485 25.0259 33.3116 25.0577C33.3747 25.0895 33.4289 25.1366 33.4694 25.1947C33.545 25.3173 33.5828 25.4598 33.5778 25.604C33.5344 26.2038 33.2586 26.7624 32.81 27.1594C32.2921 27.796 31.151 28.1417 29.3866 28.1963C28.993 29.1032 28.6522 30.0326 28.3659 30.9795C28.0452 31.9863 27.8658 33.0334 27.833 34.0902C27.8089 34.6407 27.9239 35.1884 28.1672 35.6819C29.0705 37.21 30.4254 35.0634 30.7325 34.1084C30.877 33.6536 31.0035 33.408 31.1119 33.3807C31.1496 33.366 31.1915 33.366 31.2293 33.3807C31.2452 33.3957 31.2575 33.4142 31.2653 33.4347C31.2731 33.4551 31.2763 33.4771 31.2745 33.499C31.1722 34.0289 30.9598 34.531 30.6512 34.9725C30.3978 35.3494 30.0939 35.6891 29.7479 35.9821C28.9079 36.6188 27.9414 36.3732 27.3272 34.9543C26.6941 33.3936 26.5987 31.6643 27.0562 30.0427C27.2212 29.4234 27.4264 28.8157 27.6704 28.2235L25.9633 28.269C25.4484 28.9876 24.9516 29.7152 24.4729 30.4338C23.9942 31.1523 23.5154 31.9345 23.0006 32.5894C22.4913 33.2472 21.9229 33.8561 21.3024 34.4085C20.6574 34.9813 19.937 35.4619 19.1617 35.8365C19.4891 36.1998 19.8852 36.4936 20.3269 36.7006C20.688 36.8634 21.0784 36.9501 21.474 36.9553C22.8922 36.8553 22.9735 36.3823 23.2173 35.9912C23.3077 35.8456 23.6419 35.5273 23.7954 35.6455C23.8142 35.6585 23.8291 35.6763 23.8387 35.6972C23.8482 35.718 23.852 35.741 23.8496 35.7638C23.8496 35.9457 23.6509 36.2186 23.2625 36.5824C22.7822 36.9832 22.1792 37.2049 21.5553 37.21C20.9537 37.2061 20.3641 37.0396 19.8482 36.7279C19.5177 36.5072 19.2145 36.2477 18.9449 35.9548L18.8907 35.9275Z" fill="#A6763C"/>
<path fill-rule="evenodd" clip-rule="evenodd" d="M22.702 5.07534V5.24815L22.6388 5.10263H22.702M22.702 4.64785V4.92071L22.5665 4.96619L22.4491 4.72971C22.5359 4.70329 22.6205 4.66983 22.702 4.62965V4.64785ZM22.702 4.14759V4.46593L22.6207 4.52051C22.4852 4.59327 22.3497 4.57508 22.3046 4.52051C22.2594 4.46593 22.3046 4.29312 22.4762 4.22035C22.5053 4.18929 22.5402 4.16442 22.579 4.14723C22.6178 4.13004 22.6596 4.12089 22.702 4.1203V4.14759ZM20.5703 1.27338L22.0968 4.1203L22.1872 4.27493C22.2749 4.1506 22.3976 4.05557 22.5394 4.00206C22.3661 3.69997 22.2699 3.35934 22.2594 3.01064C22.3949 2.30118 22.6478 3.34718 22.6659 3.53818V2.66501C22.4762 2.10108 21.9523 1.89188 21.862 2.99245C21.5007 1.81912 21.2749 1.60082 20.5703 1.27338ZM22.702 4.43865C22.7404 4.41208 22.7696 4.37423 22.7858 4.33027C22.802 4.2863 22.8043 4.23838 22.7923 4.19307C22.7841 4.17458 22.7716 4.15833 22.7559 4.14567C22.7402 4.13302 22.7217 4.12432 22.702 4.1203V4.43865ZM23.8221 7.82221V8.62262H23.3162C23.3162 8.43161 23.3162 8.23151 23.3162 8.02231C23.4809 7.94581 23.6498 7.879 23.8221 7.82221ZM23.8221 6.23048C23.6307 6.29398 23.4436 6.36994 23.262 6.45787L23.1356 6.52154C23.1988 6.86717 23.253 7.28557 23.2801 7.72215C23.4569 7.64526 23.6378 7.57846 23.8221 7.52205V7.27647C23.7372 7.26283 23.6599 7.21916 23.6041 7.15331C23.5483 7.08746 23.5177 7.00375 23.5177 6.91719C23.5177 6.83064 23.5483 6.74692 23.6041 6.68108C23.6599 6.61523 23.7372 6.57156 23.8221 6.55792V6.23048ZM23.8221 5.3664V5.93032C23.5963 6.00216 23.3759 6.09032 23.1627 6.1941H23.0814C23.0592 6.02003 23.0007 5.85266 22.9098 5.70293C23.206 5.57284 23.5109 5.46344 23.8221 5.37549V5.3664ZM23.8221 4.3386L23.6053 4.28402C23.4137 4.64877 23.0904 4.92552 22.702 5.05715V5.22996L22.8465 5.5665C23.1634 5.40398 23.4926 5.26711 23.8311 5.1572L23.8221 4.3386ZM23.8221 3.90201V4.16578L23.5511 4.09301C23.4723 4.27989 23.3551 4.44785 23.2072 4.58581C23.0593 4.72377 22.884 4.82861 22.693 4.89343V4.62056C22.8518 4.56065 22.9947 4.46465 23.1107 4.34002C23.2266 4.21539 23.3124 4.06549 23.3614 3.90201V3.76557L23.4788 3.82015C23.5895 3.86334 23.7046 3.89386 23.8221 3.9111V3.90201ZM23.8221 1.90098V2.49219C23.3162 2.0556 23.7227 3.05612 23.8221 3.22893C23.0001 2.72868 23.0814 1.40982 23.8221 1.91007V1.90098ZM22.702 3.51999C22.7916 3.24525 22.7916 2.94884 22.702 2.6741V3.51999ZM24.8969 7.57662V8.63171H23.8221V7.82221C24.1726 7.709 24.5322 7.62682 24.8969 7.57662ZM24.8969 5.9849V6.24867C24.8121 6.26231 24.7348 6.30598 24.679 6.37183C24.6232 6.43767 24.5926 6.52139 24.5926 6.60794C24.5926 6.6945 24.6232 6.77821 24.679 6.84406C24.7348 6.90991 24.8121 6.95358 24.8969 6.96722V7.27647C24.5328 7.32554 24.1733 7.40464 23.8221 7.51296V7.27647C23.9069 7.26283 23.9842 7.21916 24.04 7.15331C24.0958 7.08746 24.1264 7.00375 24.1264 6.91719C24.1264 6.83064 24.0958 6.74692 24.04 6.68108C23.9842 6.61523 23.9069 6.57156 23.8221 6.55792V6.23957C24.1723 6.12328 24.532 6.03806 24.8969 5.9849ZM24.8969 5.07534C24.5323 5.13472 24.1729 5.22291 23.8221 5.33911V5.90304C24.1733 5.79472 24.5328 5.71562 24.8969 5.66655V5.07534ZM24.8969 4.27493V4.88433C24.5326 4.94092 24.1732 5.02607 23.8221 5.13901V4.35679C24.1796 4.41721 24.5457 4.40172 24.8969 4.31131V4.27493ZM24.8969 3.82924V4.09301C24.5436 4.17803 24.1754 4.17803 23.8221 4.09301V3.9111C24.1782 3.99039 24.5487 3.97472 24.8969 3.86563V3.82924ZM24.8969 3.31079C24.8002 3.27821 24.6956 3.27821 24.5989 3.31079C24.4092 3.31079 24.2647 3.47451 24.2827 3.58366C24.3008 3.69281 24.4724 3.74738 24.6621 3.7019C24.7441 3.69856 24.8243 3.67681 24.8969 3.63824V3.31079ZM24.8969 1.68268V3.21984C24.7926 3.19901 24.6852 3.19901 24.5808 3.21984C24.4347 3.24681 24.2996 3.31639 24.1924 3.41994C24.1595 3.0901 24.0377 2.77558 23.8401 2.51038V1.91007C23.9566 1.99412 24.0627 2.09183 24.1563 2.20113C23.993 1.85943 23.9023 1.48722 23.8898 1.10823C23.8774 0.729248 23.9435 0.351811 24.084 0C24.5537 0.518449 24.6802 0.909559 24.7163 2.08289C24.7651 1.9562 24.8256 1.83439 24.8969 1.71907V1.68268ZM24.8969 3.18346H25.0234C24.9516 2.84864 24.9672 2.50081 25.0686 2.17385C25.4208 1.52806 25.3395 2.66501 25.3034 2.85601C25.8996 2.08289 25.4208 0.791316 24.8698 1.63721L24.8969 3.18346ZM24.8969 3.57457C24.9237 3.55695 24.9453 3.53251 24.9595 3.50375C24.9738 3.47499 24.9803 3.44293 24.9782 3.41085C24.9733 3.38899 24.9633 3.36859 24.9492 3.35123C24.9351 3.33388 24.9172 3.32004 24.8969 3.31079V3.57457ZM26.0531 7.45838V8.63171H24.8969V7.57662C25.2679 7.52245 25.6422 7.49509 26.017 7.49476L26.0531 7.45838ZM26.0531 5.86665V6.11224C25.9682 6.12588 25.891 6.16954 25.8352 6.23539C25.7794 6.30124 25.7488 6.38496 25.7488 6.47151C25.7488 6.55806 25.7794 6.64178 25.8352 6.70763C25.891 6.77348 25.9682 6.81714 26.0531 6.83079V7.15823C25.6654 7.16982 25.279 7.20933 24.8969 7.27647V6.97632C24.9818 6.96267 25.0591 6.91901 25.1149 6.85316C25.1707 6.78731 25.2013 6.70359 25.2013 6.61704C25.2013 6.53049 25.1707 6.44677 25.1149 6.38092C25.0591 6.31507 24.9818 6.27141 24.8969 6.25776V5.9849C25.2679 5.93072 25.6422 5.90336 26.017 5.90304L26.0531 5.86665ZM26.0531 4.9571V5.5574C25.6785 5.55547 25.3043 5.57979 24.9331 5.63017V5.11172C25.2975 5.05242 25.6659 5.02201 26.0351 5.02076L26.0531 4.9571ZM26.0531 3.7201H25.9989C25.6796 3.99296 25.3027 4.18893 24.8969 4.29312V4.90252C25.2617 4.84695 25.6301 4.81959 25.9989 4.82066H26.0531V3.7201ZM26.0531 3.1016V3.44723L25.9989 3.40175C25.6937 3.7139 25.3144 3.94243 24.8969 4.06573V3.86563C25.3012 3.72881 25.6626 3.48727 25.9447 3.16526L25.9989 3.11069L26.0531 3.1016ZM27.1551 7.57662V8.63171H26.0531V7.49476C26.4219 7.49598 26.7901 7.52333 27.1551 7.57662ZM27.1551 5.9849V6.28505C27.0702 6.29869 26.993 6.34236 26.9372 6.40821C26.8814 6.47406 26.8507 6.55777 26.8507 6.64433C26.8507 6.73088 26.8814 6.8146 26.9372 6.88045C26.993 6.94629 27.0702 6.98996 27.1551 7.0036V7.27647C26.79 7.22405 26.4219 7.1967 26.0531 7.19461V6.88536C26.138 6.87172 26.2153 6.82805 26.2711 6.7622C26.3268 6.69635 26.3575 6.61264 26.3575 6.52608C26.3575 6.43953 26.3268 6.35581 26.2711 6.28997C26.2153 6.22412 26.138 6.18045 26.0531 6.16681V5.91213C26.4219 5.9132 26.7902 5.94055 27.1551 5.99399V5.9849ZM27.1551 5.07534V5.65746C26.79 5.60503 26.4219 5.57768 26.0531 5.5756V5.02986C26.4223 5.03099 26.7907 5.0614 27.1551 5.12082V5.07534ZM27.1551 4.27493V4.88433C26.7906 4.82572 26.4222 4.79531 26.0531 4.79338V3.78376C26.3741 4.0482 26.7511 4.2349 27.1551 4.3295V4.27493ZM27.1551 3.82924C26.7299 3.69949 26.3485 3.45397 26.0531 3.11979V3.46542C26.3604 3.76893 26.7398 3.98813 27.1551 4.10211V3.82924ZM27.1551 3.27441V3.63824C27.0648 3.58366 27.0106 3.5109 27.0196 3.43813C27.0297 3.40891 27.0477 3.38315 27.0717 3.36384C27.0957 3.34452 27.1246 3.33244 27.1551 3.32899V3.27441ZM27.1551 1.81912V3.21984C27.0921 3.22667 27.0308 3.24517 26.9745 3.27441C27.0458 2.93956 27.0303 2.59183 26.9293 2.2648C26.577 1.61901 26.6583 2.75596 26.6944 2.94697C26.0531 2.13746 26.6131 0.800412 27.1551 1.81912ZM27.1551 3.63824C27.211 3.67229 27.272 3.69687 27.3358 3.711C27.5254 3.711 27.6971 3.711 27.7151 3.59276C27.7332 3.47451 27.5887 3.36537 27.399 3.31989C27.3159 3.29909 27.2291 3.29909 27.1461 3.31989L27.1551 3.63824ZM28.2029 7.82221V8.63171H27.1551V7.57662C27.5107 7.62836 27.8612 7.71052 28.2029 7.82221ZM28.2029 6.23048V6.50335C28.118 6.51699 28.0407 6.56065 27.985 6.6265C27.9292 6.69235 27.8985 6.77607 27.8985 6.86262C27.8985 6.94917 27.9292 7.03289 27.985 7.09874C28.0407 7.16459 28.118 7.20825 28.2029 7.2219V7.51296C27.8605 7.40592 27.5101 7.32684 27.1551 7.27647V7.0036C27.24 6.98996 27.3173 6.94629 27.373 6.88045C27.4288 6.8146 27.4595 6.73088 27.4595 6.64433C27.4595 6.55777 27.4288 6.47406 27.373 6.40821C27.3173 6.34236 27.24 6.29869 27.1551 6.28505V5.99399C27.5106 6.04595 27.8611 6.1281 28.2029 6.23957V6.23048ZM28.2029 5.38459C27.8608 5.2698 27.5106 5.18161 27.1551 5.12082V5.70293C27.5101 5.75346 27.8605 5.83254 28.2029 5.93942V5.38459ZM28.2029 4.34769V5.18448C27.8606 5.07274 27.5103 4.9876 27.1551 4.92981V4.3295C27.4995 4.40758 27.8561 4.41377 28.2029 4.34769ZM28.2029 3.9111V4.17488C27.8582 4.25561 27.4998 4.25561 27.1551 4.17488V3.88382C27.4964 3.98214 27.857 3.99153 28.2029 3.9111ZM28.2029 1.90098V2.49219C28.0054 2.75739 27.8835 3.07191 27.8506 3.40175C27.7434 3.2982 27.6083 3.22862 27.4622 3.20165C27.3725 3.18688 27.281 3.18688 27.1912 3.20165V1.81912C27.2419 1.90718 27.2872 1.99831 27.3267 2.09199C27.3267 0.909559 27.4803 0.527544 27.959 0.00909559C28.1023 0.359652 28.1715 0.736431 28.1622 1.11541C28.1528 1.49439 28.0652 1.86725 27.9048 2.21023C27.991 2.09509 28.0912 1.9912 28.2029 1.90098ZM28.2029 3.23803C28.3293 2.98335 28.6365 2.17385 28.2029 2.52857V1.90098C28.9165 1.4462 28.9526 2.72868 28.2029 3.22893V3.23803ZM28.2029 5.96671V5.38459C28.512 5.48462 28.8138 5.60619 29.1061 5.74841C29.0196 5.89282 28.9642 6.05398 28.9436 6.22138H28.8984C28.6741 6.10963 28.4415 6.01537 28.2029 5.93942V5.96671ZM28.2029 7.55843V7.27647C28.2878 7.26283 28.365 7.21916 28.4208 7.15331C28.4766 7.08746 28.5072 7.00375 28.5072 6.91719C28.5072 6.83064 28.4766 6.74692 28.4208 6.68108C28.365 6.61523 28.2878 6.57156 28.2029 6.55792V6.28505C28.3974 6.34808 28.5875 6.42405 28.7719 6.51244L28.8623 6.55792C28.799 6.90355 28.7448 7.32195 28.7177 7.75854C28.5507 7.67001 28.3788 7.59106 28.2029 7.52205V7.55843ZM28.2029 8.6681V7.82221C28.3719 7.8764 28.5378 7.94017 28.6997 8.01321C28.6997 8.22241 28.6997 8.43161 28.6997 8.62262L28.2029 8.6681ZM29.3229 5.07534C28.9346 4.94371 28.6112 4.66696 28.4197 4.30221L28.23 4.34769V5.18448C28.5589 5.29283 28.879 5.42663 29.1874 5.58469L29.3229 5.24815V5.07534ZM29.3229 4.62056C29.1641 4.56065 29.0212 4.46465 28.9053 4.34002C28.7893 4.21539 28.7035 4.06549 28.6545 3.90201V3.76557L28.5371 3.82015C28.4498 3.85883 28.359 3.88928 28.2661 3.9111V4.17488L28.4197 4.10211C28.4984 4.28899 28.6156 4.45694 28.7635 4.59491C28.9115 4.73287 29.0867 4.83771 29.2778 4.90252L29.3229 4.62056ZM29.3229 4.1203V4.43865C29.2846 4.41208 29.2553 4.37423 29.2391 4.33027C29.223 4.2863 29.2207 4.23838 29.2326 4.19307C29.2408 4.17458 29.2533 4.15833 29.269 4.14567C29.2847 4.13302 29.3032 4.12432 29.3229 4.1203ZM29.3229 2.66501V3.5109C29.2333 3.23616 29.2333 2.93975 29.3229 2.66501ZM29.3229 3.5109C29.3229 3.32899 29.5939 2.2739 29.7294 2.98335C29.7161 3.33284 29.6168 3.67353 29.4404 3.97477C29.5822 4.02828 29.7049 4.12332 29.7926 4.24764L29.883 4.09301L31.4275 1.27338C30.723 1.60082 30.5243 1.8464 30.0997 2.99245C30.0094 1.90098 29.4855 2.08289 29.2958 2.66501L29.3229 3.5109ZM29.3229 4.42046V4.1203C29.3929 4.09457 29.4697 4.09457 29.5397 4.1203C29.6752 4.19307 29.7475 4.3295 29.7113 4.42046C29.6752 4.51141 29.5307 4.5296 29.3952 4.42046H29.3229ZM29.3229 4.88433V4.61146C29.4047 4.6486 29.4892 4.67902 29.5758 4.70242L29.4584 4.9389L29.3229 4.88433ZM29.3229 5.23906V5.07534H29.3862L29.3229 5.23906Z" fill="#A6763C"/>
<path fill-rule="evenodd" clip-rule="evenodd" d="M11.3763 11.5332C10.2096 12.4696 9.13842 13.5208 8.17874 14.6712C8.66434 13.8793 8.95175 12.9806 9.01626 12.0521C9.08076 11.1237 8.92044 10.1934 8.54908 9.34118C8.54908 9.34118 5.78509 11.6878 7.15805 16.0628L7.09482 16.1538C6.3551 17.2267 5.7256 18.3726 5.21604 19.5737C5.37891 18.7124 5.33608 17.8245 5.09108 16.9831C4.84608 16.1418 4.40593 15.3712 3.80695 14.7349C3.29519 15.8143 3.09255 17.016 3.2218 18.205C3.35105 19.3941 3.80706 20.5232 4.53859 21.4656C4.13682 22.8128 3.88537 24.2008 3.78888 25.6041C3.65295 24.8147 3.32764 24.0706 2.84123 23.4366C2.35482 22.8025 1.72201 22.2977 0.997796 21.9659C0.852776 23.1168 1.03459 24.2856 1.52218 25.3368C2.00976 26.388 2.78315 27.2785 3.75275 27.9053C3.80239 29.0289 3.93219 30.1475 4.14115 31.2525C3.80672 30.6628 3.33868 30.161 2.77518 29.788C2.21167 29.415 1.56863 29.1813 0.898438 29.1059C0.998896 30.2481 1.43738 31.3338 2.15719 32.2224C2.87699 33.111 3.845 33.7617 4.93602 34.0903C5.68954 35.9921 6.64984 37.8041 7.79937 39.4931C7.41097 38.9564 5.08958 35.9913 2.01848 37.4465C2.59862 38.4195 3.49273 39.1626 4.55145 39.5516C5.61018 39.9406 6.76941 39.9521 7.8355 39.584L7.88066 39.7023V39.6568C8.2239 40.1479 8.60327 40.6209 9.00071 41.0757C9.56999 41.7124 10.2164 42.2746 10.9247 42.7493C10.1028 42.3147 9.16342 42.1595 8.2468 42.3071C7.33017 42.4546 6.48559 42.8969 5.83929 43.5679C6.70833 44.2696 7.79678 44.6375 8.91029 44.6059C10.0238 44.5742 11.0899 44.1451 11.9182 43.3951L12.0266 43.4496C13.4834 44.21 14.9928 44.8635 16.543 45.4052C15.5982 45.3159 14.6492 45.5244 13.8272 46.0018C13.0052 46.4793 12.3508 47.202 11.9544 48.0702C11.9544 48.0702 15.1158 49.3163 17.5365 45.7872L18.0514 45.9873L18.8553 46.2693C18.7091 46.4377 18.5846 46.6241 18.485 46.8241C18.3255 47.1398 18.2013 47.4723 18.1146 47.8155C18.0344 47.838 17.964 47.887 17.9149 47.9546C17.8657 48.0223 17.8406 48.1047 17.8437 48.1884C17.8355 48.2392 17.8384 48.291 17.8521 48.3405C17.8659 48.39 17.8901 48.4359 17.9232 48.475C17.9562 48.5141 17.9974 48.5455 18.0437 48.5671C18.09 48.5886 18.1404 48.5998 18.1914 48.5998C18.2424 48.5998 18.2928 48.5886 18.3392 48.5671C18.3855 48.5455 18.4266 48.5141 18.4597 48.475C18.4927 48.4359 18.517 48.39 18.5307 48.3405C18.5444 48.291 18.5473 48.2392 18.5392 48.1884C18.5402 48.127 18.5269 48.0661 18.5002 48.0108C18.4735 47.9555 18.4343 47.9073 18.3856 47.8701V47.77C18.4629 47.4971 18.5657 47.2321 18.6927 46.9787C18.7983 46.7578 18.942 46.5576 19.1173 46.3875L19.596 46.5512C19.4653 46.6841 19.3529 46.834 19.2618 46.9969C19.1068 47.2787 19.0057 47.5872 18.9637 47.9065C18.9551 48.0215 18.9551 48.1371 18.9637 48.2521V48.3067C18.9069 48.3418 18.8602 48.3915 18.8285 48.4505C18.7968 48.5096 18.7811 48.5761 18.7831 48.6432C18.7749 48.6939 18.7778 48.7458 18.7915 48.7953C18.8053 48.8448 18.8295 48.8907 18.8626 48.9298C18.8956 48.9689 18.9368 49.0003 18.9831 49.0219C19.0294 49.0434 19.0798 49.0546 19.1308 49.0546C19.1818 49.0546 19.2322 49.0434 19.2785 49.0219C19.3249 49.0003 19.366 48.9689 19.399 48.9298C19.4321 48.8907 19.4564 48.8448 19.4701 48.7953C19.4838 48.7458 19.4867 48.6939 19.4786 48.6432C19.4801 48.567 19.4584 48.4921 19.4164 48.4287C19.3745 48.3653 19.3142 48.3164 19.2437 48.2885C19.2369 48.1916 19.2369 48.0943 19.2437 47.9974C19.2816 47.7295 19.3673 47.4707 19.4966 47.2334C19.5889 47.0663 19.7079 46.9157 19.8489 46.7877L19.9212 46.7331L22.1884 47.5154L22.369 47.2061L20.5264 46.3875C20.5173 46.0957 20.5859 45.8068 20.7251 45.5507C20.8485 45.3598 21.0119 45.1984 21.2038 45.0777C21.2626 45.1256 21.336 45.1513 21.4115 45.1505C21.4877 45.1578 21.5643 45.1418 21.6312 45.1046C21.6982 45.0673 21.7524 45.0105 21.7867 44.9417C21.821 44.8728 21.8339 44.7951 21.8236 44.7188C21.8133 44.6425 21.7803 44.5711 21.729 44.5139C21.6777 44.4568 21.6104 44.4166 21.536 44.3987C21.4616 44.3808 21.3835 44.3859 21.3121 44.4134C21.2407 44.441 21.1791 44.4896 21.1356 44.553C21.0921 44.6163 21.0687 44.6915 21.0683 44.7685C20.8392 44.9114 20.6448 45.1041 20.4993 45.3324C20.3407 45.6095 20.2537 45.9223 20.2463 46.242L19.7586 46.0601C19.6729 45.7106 19.6729 45.3454 19.7586 44.9959C19.8219 44.7131 19.9592 44.4525 20.156 44.241H20.2915C20.3677 44.2483 20.4442 44.2323 20.5112 44.195C20.5781 44.1577 20.6323 44.1009 20.6667 44.0321C20.701 43.9633 20.7138 43.8856 20.7035 43.8092C20.6932 43.7329 20.6603 43.6615 20.6089 43.6044C20.5576 43.5473 20.4903 43.5071 20.4159 43.4892C20.3415 43.4712 20.2635 43.4764 20.1921 43.5039C20.1206 43.5314 20.0591 43.5801 20.0156 43.6434C19.9721 43.7068 19.9486 43.7819 19.9483 43.8589C19.9347 43.9188 19.9347 43.981 19.9483 44.0408C19.7376 44.2866 19.5889 44.5799 19.5147 44.8958C19.4237 45.2365 19.3991 45.5917 19.4424 45.9418L19.0089 45.7872C18.9798 45.7256 18.9556 45.6617 18.9366 45.5962C18.8796 45.397 18.8403 45.193 18.8192 44.9868C18.8192 44.7958 18.8192 44.6048 18.8192 44.4411C18.8192 44.2773 18.8192 44.1591 18.8192 44.0499C18.8945 44.0246 18.9597 43.9756 19.0053 43.9101C19.0508 43.8446 19.0742 43.7661 19.0721 43.6861C19.0802 43.6354 19.0773 43.5835 19.0636 43.534C19.0499 43.4846 19.0256 43.4387 18.9926 43.3996C18.9595 43.3604 18.9184 43.329 18.8721 43.3075C18.8258 43.2859 18.7754 43.2748 18.7243 43.2748C18.6733 43.2748 18.6229 43.2859 18.5766 43.3075C18.5303 43.329 18.4892 43.3604 18.4561 43.3996C18.423 43.4387 18.3988 43.4846 18.3851 43.534C18.3713 43.5835 18.3684 43.6354 18.3766 43.6861C18.3753 43.7509 18.3903 43.8149 18.4204 43.8722C18.4504 43.9295 18.4944 43.9781 18.5482 44.0136C18.5173 44.3555 18.5173 44.6995 18.5482 45.0414C18.5734 45.2537 18.6157 45.4636 18.6747 45.669L18.4308 45.578L18.205 45.487L17.7985 45.3324C17.7985 44.3592 17.5998 40.7846 14.6009 39.6295C14.5077 40.6436 14.668 41.665 15.0672 42.6007C15.4663 43.5364 16.0916 44.3567 16.8862 44.9868L16.6784 44.9959C15.1276 44.456 13.6181 43.8024 12.1621 43.0403C12.4783 41.8943 13.0654 38.7017 10.753 36.6734C10.3715 37.6231 10.2232 38.6515 10.3207 39.6713C10.4182 40.691 10.7586 41.672 11.3131 42.531C10.5777 42.046 9.90944 41.4649 9.32588 40.8028C8.91889 40.3348 8.536 39.846 8.17874 39.3384C8.83812 38.3379 10.2743 35.6092 8.6936 32.8442C8.08456 33.5702 7.65096 34.4286 7.42684 35.3518C7.20272 36.275 7.1942 37.238 7.40193 38.1651C6.62719 36.8927 5.95366 35.5606 5.38766 34.1812C6.42845 33.7072 7.30225 32.9268 7.89399 31.9429C8.48573 30.959 8.76765 29.8177 8.70263 28.6693C8.70263 28.6693 5.65864 29.5243 5.17087 33.6173C4.85473 32.7896 4.69214 32.2621 4.68311 32.2439C4.37646 30.914 4.18604 29.5597 4.11405 28.1963C5.2366 28.0523 6.28283 27.5467 7.09672 26.755C7.91062 25.9633 8.44858 24.9279 8.63037 23.8032C8.63037 23.8032 5.49605 23.7577 4.11405 27.5778C4.0466 25.6375 4.27818 23.6983 4.80054 21.8294C5.84489 22.1528 6.96811 22.1032 7.9803 21.6889C8.9925 21.2745 9.83155 20.521 10.3556 19.5555C9.42435 19.2054 8.4062 19.1648 7.45039 19.4398C6.49459 19.7148 5.65139 20.2909 5.04442 21.0836C5.60224 19.4279 6.38986 17.8601 7.38387 16.4266C8.28713 17.0724 10.8434 18.5368 13.1738 16.4903C12.4872 15.8329 11.6177 15.4022 10.6815 15.2559C9.74524 15.1096 8.78698 15.2547 7.93486 15.6717C8.9903 14.3015 10.2031 13.062 11.5479 11.9789C12.2344 12.5701 14.881 14.5802 17.4733 12.561C16.8335 11.8643 16 11.378 15.0816 11.1654C14.1631 10.9529 13.2024 11.024 12.3247 11.3695C13.0789 10.8003 13.8728 10.2866 14.7003 9.83234C16.0823 9.89601 20.1199 9.76867 20.716 6.1941C20.716 6.1941 16.8139 4.82977 14.3932 9.4958C13.6714 9.90184 12.9746 10.3514 12.3067 10.8419C12.9416 10.0443 13.3589 9.09366 13.5173 8.08393C13.6757 7.0742 13.5697 6.04033 13.2099 5.08444C13.2099 5.08444 10.3556 7.20371 11.3763 11.5332Z" fill="#A6763C"/>
<path fill-rule="evenodd" clip-rule="evenodd" d="M40.6238 11.5332C41.7905 12.4697 42.8616 13.5209 43.8214 14.6712C43.3415 13.8763 43.0605 12.976 43.0022 12.0476C42.944 11.1193 43.1104 10.1905 43.4872 9.34118C43.4872 9.34118 46.2511 11.6878 44.8782 16.0628L44.9414 16.1538C45.6812 17.2266 46.3107 18.3725 46.8202 19.5737C46.6573 18.7124 46.7002 17.8245 46.9452 16.9831C47.1902 16.1418 47.6303 15.3712 48.2293 14.7349C48.741 15.8143 48.9437 17.016 48.8144 18.205C48.6852 19.3941 48.2292 20.5232 47.4976 21.4656C47.9162 22.8169 48.1828 24.2111 48.2925 25.6223C48.4285 24.8329 48.7538 24.0888 49.2402 23.4548C49.7266 22.8207 50.3594 22.3158 51.0836 21.984C51.2268 23.1401 51.0403 24.3132 50.5461 25.3665C50.0519 26.4199 49.2703 27.3098 48.2925 27.9326C48.2428 29.0562 48.113 30.1748 47.9041 31.2797C48.231 30.6907 48.6906 30.1871 49.2459 29.8096C49.8013 29.432 50.4369 29.191 51.1017 29.1059C50.9971 30.246 50.5557 31.3285 49.8344 32.2137C49.1132 33.0989 48.1451 33.7462 47.055 34.0721C46.3013 35.9738 45.341 37.7857 44.1917 39.4749C44.5801 38.9382 46.9015 35.9731 49.9726 37.4284C49.3925 38.4013 48.4983 39.1444 47.4396 39.5334C46.3809 39.9224 45.2217 39.9339 44.1556 39.5658L44.1104 39.6841V39.6386C43.7672 40.1297 43.3878 40.6027 42.9904 41.0575C42.4223 41.7007 41.7758 42.2691 41.0664 42.7493C41.8863 42.3157 42.8233 42.1603 43.7379 42.3062C44.6526 42.452 45.496 42.8913 46.1428 43.5588C45.2737 44.2605 44.1853 44.6284 43.0717 44.5968C41.9582 44.5651 40.8921 44.136 40.0638 43.386L39.9554 43.4405C38.4986 44.2009 36.9893 44.8544 35.4391 45.3961C36.3839 45.3068 37.3328 45.5153 38.1548 45.9928C38.9769 46.4702 39.6313 47.1929 40.0277 48.0611C40.0277 48.0611 36.8662 49.3072 34.4455 45.7781L33.9306 45.9782L33.1177 46.2602C33.264 46.4286 33.3885 46.615 33.488 46.815C33.643 47.1402 33.7612 47.4819 33.8403 47.8337C33.9205 47.8561 33.9909 47.9051 34.0401 47.9728C34.0892 48.0405 34.1143 48.1228 34.1113 48.2066C34.1194 48.2573 34.1165 48.3092 34.1028 48.3587C34.0891 48.4082 34.0648 48.4541 34.0318 48.4932C33.9987 48.5323 33.9576 48.5637 33.9113 48.5853C33.865 48.6068 33.8145 48.618 33.7635 48.618C33.7125 48.618 33.6621 48.6068 33.6158 48.5853C33.5695 48.5637 33.5284 48.5323 33.4953 48.4932C33.4622 48.4541 33.438 48.4082 33.4243 48.3587C33.4105 48.3092 33.4076 48.2573 33.4158 48.2066C33.4147 48.1451 33.4281 48.0843 33.4547 48.029C33.4814 47.9737 33.5207 47.9255 33.5693 47.8883V47.7882C33.4922 47.5152 33.3894 47.2502 33.2622 46.9969C33.1567 46.776 33.0129 46.5758 32.8377 46.4057L32.359 46.5694C32.4895 46.7024 32.6019 46.8523 32.6932 47.0151C32.848 47.2969 32.9491 47.6054 32.9912 47.9247C32.979 48.0197 32.9609 48.1139 32.937 48.2066V48.2612C32.9939 48.2964 33.0405 48.346 33.0722 48.4051C33.1039 48.4641 33.1196 48.5306 33.1177 48.5977C33.1258 48.6485 33.1229 48.7003 33.1092 48.7498C33.0955 48.7993 33.0712 48.8452 33.0382 48.8843C33.0051 48.9234 32.964 48.9548 32.9177 48.9764C32.8714 48.9979 32.821 49.0091 32.7699 49.0091C32.7189 49.0091 32.6685 48.9979 32.6222 48.9764C32.5759 48.9548 32.5348 48.9234 32.5017 48.8843C32.4686 48.8452 32.4444 48.7993 32.4307 48.7498C32.4169 48.7003 32.414 48.6485 32.4222 48.5977C32.4219 48.5218 32.4441 48.4475 32.4859 48.3843C32.5277 48.3211 32.5873 48.2719 32.657 48.243C32.6638 48.1461 32.6638 48.0489 32.657 47.952C32.6191 47.684 32.5334 47.4252 32.4041 47.1879C32.3118 47.0209 32.1928 46.8703 32.0518 46.7422L32.0338 46.6604L29.7666 47.4426L29.5859 47.1333L31.4738 46.3875C31.4828 46.0957 31.4142 45.8068 31.275 45.5507C31.1516 45.3598 30.9882 45.1984 30.7963 45.0777C30.7376 45.1256 30.6641 45.1513 30.5886 45.1505C30.5124 45.1578 30.4358 45.1418 30.3689 45.1046C30.3019 45.0673 30.2477 45.0105 30.2134 44.9417C30.1791 44.8728 30.1662 44.7951 30.1765 44.7188C30.1868 44.6425 30.2198 44.5711 30.2711 44.5139C30.3224 44.4568 30.3897 44.4166 30.4641 44.3987C30.5385 44.3808 30.6166 44.3859 30.688 44.4134C30.7595 44.441 30.821 44.4896 30.8645 44.553C30.908 44.6163 30.9315 44.6915 30.9318 44.7685C31.1609 44.9114 31.3553 45.1041 31.5009 45.3324C31.6594 45.6095 31.7464 45.9223 31.7538 46.242L32.2415 46.0601C32.3272 45.7106 32.3272 45.3454 32.2415 44.9959C32.1782 44.7131 32.041 44.4525 31.8441 44.2409H31.7628C31.6866 44.2483 31.6101 44.2323 31.5431 44.195C31.4762 44.1577 31.422 44.1009 31.3876 44.0321C31.3533 43.9633 31.3405 43.8856 31.3508 43.8092C31.3611 43.7329 31.394 43.6615 31.4454 43.6044C31.4967 43.5472 31.564 43.5071 31.6384 43.4892C31.7128 43.4712 31.7908 43.4764 31.8622 43.5039C31.9337 43.5314 31.9952 43.5801 32.0387 43.6434C32.0822 43.7068 32.1057 43.7819 32.106 43.8589C32.1199 43.9188 32.1199 43.981 32.106 44.0408C32.3167 44.2866 32.4654 44.5799 32.5396 44.8958C32.6306 45.2365 32.6552 45.5917 32.6119 45.9418L33.0454 45.7872C33.0747 45.7256 33.0989 45.6618 33.1177 45.5962C33.1746 45.3969 33.2139 45.193 33.2351 44.9868C33.2351 44.7958 33.2351 44.6048 33.2351 44.4411C33.2351 44.2773 33.2351 44.1591 33.2351 44.0499C33.1598 44.0246 33.0946 43.9756 33.049 43.9101C33.0035 43.8446 32.9801 43.7661 32.9822 43.6861C32.9741 43.6354 32.977 43.5835 32.9907 43.534C33.0044 43.4846 33.0287 43.4387 33.0617 43.3996C33.0948 43.3604 33.1359 43.329 33.1822 43.3075C33.2285 43.2859 33.2789 43.2748 33.33 43.2748C33.381 43.2748 33.4314 43.2859 33.4777 43.3075C33.524 43.329 33.5651 43.3604 33.5982 43.3996C33.6313 43.4387 33.6555 43.4846 33.6692 43.534C33.683 43.5835 33.6859 43.6354 33.6777 43.6861C33.679 43.7509 33.664 43.8149 33.6339 43.8722C33.6039 43.9295 33.5599 43.9781 33.5061 44.0136C33.537 44.3555 33.537 44.6995 33.5061 45.0414C33.481 45.2537 33.4387 45.4636 33.3796 45.669L33.6235 45.578L33.8493 45.487L34.2558 45.3324C34.2558 44.3592 34.4545 40.7846 37.4534 39.6295C37.5466 40.6436 37.3863 41.665 36.9871 42.6007C36.588 43.5364 35.9627 44.3567 35.1681 44.9868L35.3668 44.914C36.9177 44.3742 38.4272 43.7206 39.8831 42.9585C39.567 41.8124 38.9799 38.6199 41.2922 36.5916C41.6738 37.5413 41.8221 38.5696 41.7246 39.5894C41.6271 40.6091 41.2867 41.5902 40.7322 42.4491C41.4676 41.9641 42.1358 41.383 42.7194 40.721C43.0941 40.2685 43.4467 39.798 43.7762 39.3111C43.1168 38.3106 41.6806 35.582 43.2613 32.8169C43.8704 33.5429 44.304 34.4013 44.5281 35.3245C44.7522 36.2477 44.7607 37.2107 44.553 38.1378C45.3278 36.8654 46.0013 35.5333 46.5673 34.1539C45.5265 33.6799 44.6527 32.8995 44.061 31.9156C43.4692 30.9317 43.1873 29.7904 43.2523 28.642C43.2523 28.642 46.2963 29.497 46.7841 33.59C47.1092 32.7623 47.2628 32.2348 47.2718 32.2166C47.5951 30.8972 47.8036 29.5521 47.8951 28.1963C46.7725 28.0523 45.7263 27.5467 44.9124 26.755C44.0985 25.9633 43.5606 24.9279 43.3788 23.8032C43.3788 23.8032 46.5221 23.7577 47.8951 27.5778C47.9597 25.637 47.7251 23.6978 47.1996 21.8294C46.1587 22.1489 45.0403 22.0982 44.0322 21.6859C43.024 21.2735 42.1873 20.5245 41.6626 19.5646C42.5938 19.2145 43.612 19.1739 44.5678 19.4489C45.5236 19.7239 46.3668 20.3 46.9738 21.0927C46.4308 19.4364 45.6584 17.8655 44.6795 16.4266C43.7762 17.0724 41.22 18.5368 38.8895 16.4903C39.5761 15.8329 40.4456 15.4022 41.3819 15.2559C42.3181 15.1096 43.2764 15.2547 44.1285 15.6717C43.073 14.3016 41.8602 13.062 40.5154 11.9789C39.8289 12.5701 37.1824 14.5802 34.59 12.561C35.2298 11.8643 36.0633 11.378 36.9818 11.1654C37.9002 10.9529 38.8609 11.024 39.7386 11.3695C38.9845 10.8002 38.1906 10.2865 37.363 9.83234C35.981 9.89601 31.9435 9.76867 31.3473 6.1941C31.3473 6.1941 35.2494 4.82977 37.6701 9.4958C38.3889 9.90208 39.0826 10.3516 39.7477 10.8419C39.1135 10.0439 38.6968 9.09327 38.5384 8.08372C38.38 7.07417 38.4855 6.04048 38.8444 5.08444C38.8444 5.08444 41.6355 7.20371 40.6238 11.5332Z" fill="#A6763C"/>
<path fill-rule="evenodd" clip-rule="evenodd" d="M27.0948 49.0343C27.411 49.2799 27.149 50.2077 26.7516 50.3987L26.8871 50.4532C27.1785 50.6045 27.4997 50.6883 27.8273 50.6987C28.155 50.7091 28.4808 50.6458 28.7811 50.5134C29.0814 50.3809 29.3485 50.1827 29.5631 49.9331C29.7776 49.6836 29.9342 49.3889 30.0214 49.0707C29.5517 48.5614 27.5736 46.2784 27.8445 43.5315H26.2548V47.4426C26.4295 47.3998 26.6118 47.3997 26.7866 47.4422C26.9613 47.4847 27.1235 47.5686 27.2595 47.6869C27.3956 47.8052 27.5016 47.9546 27.5688 48.1225C27.636 48.2904 27.6624 48.4721 27.6458 48.6523C27.6458 48.6978 26.869 47.4608 26.2548 48.7524V49.1162C26.3565 48.9969 26.498 48.919 26.6526 48.8973C26.8073 48.8755 26.9645 48.9113 27.0948 48.9979M26.2548 53.5457H29.2085C28.3594 53.191 26.4987 52.718 26.2548 51.0536V50.9353C26.7012 51.2154 27.2089 51.3813 27.7336 51.4184C28.2583 51.4556 28.7841 51.363 29.2651 51.1486C29.7461 50.9343 30.1677 50.6047 30.4932 50.1886C30.8187 49.7725 31.0381 49.2825 31.1324 48.7615C28.7388 46.5785 27.7181 44.5957 28.8923 42.1763C28.9736 42.0125 29.082 42.4855 29.362 42.6674C29.642 42.8493 30.175 42.7584 30.2111 42.058C30.2743 40.7392 28.8381 40.6118 28.251 42.0125C28.1165 42.332 28.0136 42.6641 27.9439 43.004H26.2548V42.149C26.3026 42.1579 26.3515 42.1579 26.3993 42.149C26.5327 42.1351 26.6555 42.0694 26.7416 41.9658C26.8276 41.8622 26.8701 41.7288 26.86 41.5941C26.867 41.4682 26.8289 41.3439 26.7527 41.2437C26.6764 41.1436 26.5671 41.0743 26.4445 41.0484C26.4522 40.9911 26.4522 40.9329 26.4445 40.8756C26.4644 40.8052 26.4679 40.7311 26.4546 40.6591C26.4413 40.5872 26.4116 40.5193 26.3678 40.4608C26.324 40.4024 26.2674 40.355 26.2023 40.3223C26.1372 40.2897 26.0655 40.2727 25.9928 40.2727C25.9201 40.2727 25.8484 40.2897 25.7834 40.3223C25.7183 40.355 25.6616 40.4024 25.6179 40.4608C25.5741 40.5193 25.5444 40.5872 25.5311 40.6591C25.5178 40.7311 25.5212 40.8052 25.5412 40.8756C25.5334 40.9329 25.5334 40.9911 25.5412 41.0484C25.4186 41.0743 25.3093 41.1436 25.233 41.2437C25.1568 41.3439 25.1187 41.4682 25.1257 41.5941C25.1156 41.7288 25.1581 41.8622 25.2441 41.9658C25.3301 42.0694 25.4529 42.1351 25.5864 42.149C25.6341 42.1579 25.6831 42.1579 25.7309 42.149V43.004H24.087C24.0171 42.6641 23.9142 42.3321 23.7798 42.0125C23.1927 40.6118 21.7565 40.7482 21.8198 42.058C21.8198 42.7584 22.3437 42.8675 22.6688 42.6674C22.994 42.4673 23.0572 42.0125 23.1385 42.1763C24.3128 44.5957 23.2921 46.5785 20.8984 48.7615C20.9948 49.2741 21.2128 49.7557 21.5339 50.1652C21.8549 50.5748 22.2694 50.9001 22.7422 51.1136C23.215 51.3271 23.732 51.4224 24.2492 51.3913C24.7665 51.3603 25.2686 51.2038 25.7128 50.9353V51.0536C25.469 52.7271 23.6082 53.2001 22.7592 53.5457H26.2548ZM25.1257 50.4351C24.8343 50.5863 24.5131 50.6702 24.1854 50.6806C23.8578 50.691 23.532 50.6276 23.2317 50.4952C22.9314 50.3627 22.6643 50.1645 22.4497 49.9149C22.2351 49.6654 22.0786 49.3707 21.9914 49.0525C22.452 48.5432 24.4392 46.2602 24.1773 43.5133H25.7128V47.4244C25.5381 47.3816 25.3558 47.3815 25.1811 47.424C25.0063 47.4665 24.8441 47.5504 24.7081 47.6687C24.572 47.787 24.466 47.9364 24.3988 48.1043C24.3316 48.2722 24.3052 48.4539 24.3218 48.6341C24.3218 48.6796 25.0986 47.4426 25.7128 48.7342V49.1162C25.6111 48.9969 25.4697 48.919 25.315 48.8973C25.1603 48.8755 25.0031 48.9113 24.8728 48.9979C24.5567 49.2435 24.8186 50.1713 25.216 50.3623L25.1257 50.4351Z" fill="#A6763C"/>
</svg>
