<svg width="235" height="435" viewBox="0 0 235 435" fill="none" xmlns="http://www.w3.org/2000/svg">
<path d="M-34.1385 268.468C-34.1181 271.229 -33.7737 273.977 -33.1125 276.657C-32.4049 279.495 -31.268 282.208 -29.7416 284.698C-24.941 282.553 -20.4736 279.72 -16.4778 276.288C-10.9205 271.335 -5.75106 265.958 -1.0155 260.205C2.50198 256.074 7.11867 250.442 12.8346 243.31L23.0206 230.621H15.6925C11.0758 230.621 6.75227 230.621 2.86839 231.359L-4.02002 232.097C-4.40005 234.856 -5.03799 237.573 -5.92532 240.212C-7.12439 243.885 -9.0153 247.292 -11.4947 250.245C-17.077 256.849 -24.9273 261.09 -33.4789 262.123C-33.3872 263.006 -33.3872 263.896 -33.4789 264.779C-33.5942 265.981 -33.5942 267.192 -33.4789 268.394M-31.5736 257.697C-27.8355 256.751 -24.2726 255.206 -21.0212 253.123C-18.4513 251.417 -16.1324 249.355 -14.1328 246.999C-11.7711 244.304 -9.82008 241.271 -8.3436 237.999C-7.63743 236.487 -7.1914 234.865 -7.02454 233.203C-9.86506 234.065 -12.6339 235.15 -15.3053 236.449C-18.8548 238.275 -22.0161 240.781 -24.6119 243.827C-26.8646 245.853 -28.7926 248.217 -30.3279 250.836C-31.2804 253.047 -31.9217 255.381 -32.2332 257.77L-31.5736 257.697ZM-30.8408 206.57C-44.4108 207.568 -57.1998 213.34 -66.9683 222.875C-72.0037 226.922 -76.1809 231.946 -79.2523 237.649C-82.3237 243.352 -84.2268 249.617 -84.8489 256.074C-84.8745 260.597 -83.9919 265.078 -82.2541 269.249C-80.5162 273.42 -77.9591 277.195 -74.7361 280.346C-68.1016 286.649 -59.3095 290.137 -50.187 290.084C-46.399 290.056 -42.6304 289.535 -38.975 288.535C-36.4041 287.876 -33.9375 286.857 -31.6469 285.51C-32.9616 282.729 -34.0402 279.842 -34.8713 276.878C-35.6812 273.898 -36.0758 270.819 -36.0438 267.73C-36.1131 266.403 -36.1131 265.073 -36.0438 263.746V261.902C-40.4812 262.091 -44.8348 260.644 -48.2884 257.833C-51.742 255.021 -54.0585 251.038 -54.8037 246.63C-54.8203 244.244 -54.1316 241.907 -52.8251 239.917C-51.5793 238.294 -50.5534 237.482 -49.674 237.482C-49.3645 237.381 -49.0309 237.381 -48.7214 237.482C-48.5745 237.592 -48.4573 237.738 -48.3805 237.906C-48.3037 238.073 -48.2698 238.257 -48.2817 238.441C-48.4514 239.117 -48.761 239.749 -49.1904 240.296C-49.6198 240.842 -50.1592 241.292 -50.7732 241.614C-51.5715 242.208 -52.215 242.988 -52.6489 243.888C-53.0827 244.787 -53.294 245.779 -53.2648 246.778C-53.2648 256.885 -41.3933 257.844 -35.0911 257.844C-33.6321 251.372 -30.4386 245.427 -25.8577 240.655C-20.7498 235.748 -14.4614 232.265 -7.61079 230.547V226.563C-7.4995 223.588 -8.10837 220.63 -9.38496 217.944C-10.6615 215.258 -12.5676 212.924 -14.9389 211.144C-19.6629 208.046 -25.2042 206.452 -30.8408 206.57ZM45.5179 226.859C48.7575 220.26 52.4551 213.9 56.5833 207.825C60.9403 201.431 65.6626 195.297 70.7265 189.454C80.5586 177.989 92.0158 168.045 104.729 159.944C93.297 160.903 71.2395 177.208 59.0748 192.037C53.2124 198.824 48.2293 205.021 44.0523 210.849C39.8752 216.678 36.0646 221.989 32.6204 226.932L45.5179 226.859ZM-27.0302 291.412C-29.5502 292.276 -32.154 292.87 -34.798 293.183C-37.8535 293.658 -40.9397 293.904 -44.0314 293.92C-55.0087 294.144 -65.7171 290.49 -74.2964 283.592C-78.8681 279.684 -82.5068 274.79 -84.9426 269.272C-87.3783 263.755 -88.5485 257.756 -88.3663 251.721C-88.3886 244.456 -86.7708 237.28 -83.6352 230.737C-80.4996 224.193 -75.9281 218.452 -70.266 213.948C-60.925 206.005 -49.2143 201.435 -36.9964 200.963C-27.9842 200.747 -19.2388 204.052 -12.5939 210.185C-9.89992 212.694 -7.73844 215.727 -6.23973 219.099C-4.74101 222.472 -3.93608 226.115 -3.87346 229.81L5.57977 228.924C10.856 228.432 17.5001 228.162 25.5122 228.113C30.3976 222.211 35.283 216.038 40.1684 209.595C45.298 203.25 49.6949 197.791 53.5055 193.512C61.185 184.509 69.9484 176.505 79.5935 169.683C85.693 165.257 92.3456 161.66 99.3793 158.985C105.511 156.919 111.78 155.292 118.139 154.116C111.882 151.263 105.35 149.063 98.6465 147.55C87.5741 145.071 76.2791 143.736 64.9373 143.566C38.8982 144.55 20.6024 150.403 10.0499 161.125C-0.502541 171.847 -5.58334 181.388 -5.19251 189.75C-5.32669 194.322 -3.7881 198.785 -0.868942 202.291C0.669792 203.949 2.54828 205.249 4.6362 206.103C6.72412 206.957 8.97148 207.343 11.2224 207.234C15.6253 207.06 19.9442 205.967 23.9052 204.024C27.8663 202.081 31.3831 199.33 34.2326 195.947C39.3801 190.71 42.6096 183.869 43.3927 176.544C43.3927 173.224 42.2202 171.158 40.608 170.42C39.9423 170.213 39.3387 169.841 38.8524 169.338C38.366 168.836 38.0122 168.219 37.8234 167.543C37.7689 167.415 37.7409 167.277 37.7409 167.137C37.7409 166.998 37.7689 166.86 37.8234 166.732C38.0846 166.642 38.3682 166.642 38.6295 166.732C40.1684 166.732 41.5607 168.06 42.953 170.494C44.3504 173.336 45.0539 176.472 45.0049 179.642C44.7347 187.575 41.3635 195.078 35.6249 200.521C29.902 206.339 22.2064 209.765 14.0804 210.112C10.8625 210.125 7.67576 209.478 4.71482 208.209C1.75388 206.941 -0.91906 205.078 -3.14066 202.734C-8.14677 197.121 -10.7764 189.762 -10.4688 182.224C-10.3867 176.566 -9.07861 170.993 -6.63577 165.896C-4.19293 160.799 -0.674271 156.301 3.67447 152.714C13.3475 143.566 29.0297 138.771 50.7941 137.959C58.9888 137.907 67.1743 138.524 75.2699 139.804C82.7446 141.082 89.5841 142.558 95.7885 144.23L111.691 148.73C115.166 149.858 118.754 150.6 122.39 150.944C124.781 150.886 127.102 150.116 129.058 148.73C130.061 147.857 131.169 147.114 132.356 146.517C132.673 146.485 132.993 146.544 133.279 146.688C133.564 146.831 133.803 147.054 133.968 147.329C134.318 147.986 134.495 148.723 134.481 149.468C134.364 150.679 134.093 151.869 133.675 153.009C133.37 154.039 132.9 155.011 132.282 155.887C131.789 156.371 131.138 156.659 130.45 156.698C128.742 156.812 127.029 156.812 125.321 156.698C119.436 156.494 113.601 157.842 108.393 160.608C101.58 165.018 95.5801 170.584 90.6589 177.06C84.9662 183.661 79.75 190.663 75.0501 198.012C69.1258 206.97 63.8835 216.366 59.368 226.121C66.334 226.402 73.2665 225.011 79.5935 222.063C84.0636 219.407 86.3353 216.456 86.3353 213.358C86.3091 212.808 86.1722 212.27 85.9328 211.775C85.6935 211.28 85.3567 210.84 84.943 210.48C84.5314 210.135 84.1952 209.708 83.9556 209.225C83.716 208.743 83.5781 208.216 83.5506 207.677C83.5796 207.042 83.7376 206.42 84.0149 205.849C84.2922 205.278 84.6829 204.77 85.1628 204.357C86.0239 203.531 87.1312 203.012 88.3139 202.882C88.8858 202.863 89.4532 202.988 89.965 203.246C90.4768 203.503 90.9167 203.885 91.2451 204.357C91.8588 205.351 92.1649 206.507 92.1245 207.677C91.7725 212.542 89.5354 217.073 85.8956 220.293C81.6942 225.457 72.4364 228.26 58.1222 228.703C54.9285 236.06 52.1636 243.598 49.8414 251.278C47.2391 259.445 45.7838 267.937 45.5179 276.509C45.322 280.975 46.2549 285.417 48.2293 289.42C55.5574 301.814 66.5495 284.403 69.041 276.657C70.2135 272.968 71.2395 270.976 72.1188 270.755C72.4253 270.635 72.765 270.635 73.0715 270.755C73.2004 270.877 73.3003 271.026 73.3638 271.192C73.4272 271.358 73.4526 271.537 73.4379 271.714C72.608 276.012 70.8849 280.085 68.3815 283.666C66.326 286.723 63.8599 289.479 61.0534 291.855C54.2383 297.019 46.3972 295.027 41.4141 283.518C36.2782 270.859 35.5042 256.833 39.2157 243.679C40.5543 238.657 42.2189 233.728 44.1988 228.924L30.3487 229.293C26.1717 235.121 22.1413 241.023 18.2574 246.852C14.3735 252.68 10.4896 259.025 6.31258 264.336C2.18137 269.671 -2.43049 274.611 -7.46422 279.092C-12.6972 283.738 -18.5414 287.635 -24.8318 290.674C-22.1757 293.621 -18.9617 296.004 -15.3786 297.683C-12.4488 299.003 -9.28162 299.707 -6.07189 299.749C5.43321 298.937 6.09274 295.101 8.07133 291.928C8.80413 290.748 11.5155 288.166 12.7613 289.125C12.9135 289.23 13.0348 289.375 13.1121 289.544C13.1895 289.712 13.2202 289.899 13.201 290.084C13.201 291.56 11.5888 293.773 8.43774 296.724C4.54073 299.975 -0.351257 301.773 -5.41236 301.814C-10.2935 301.783 -15.0767 300.432 -19.2624 297.904C-21.9437 296.114 -24.4038 294.009 -26.5905 291.633L-27.0302 291.412Z" fill="#A6763C" fill-opacity="0.1"/>
<path fill-rule="evenodd" clip-rule="evenodd" d="M3.90562 41.1666V42.5684L3.39266 41.388H3.90562M3.90562 37.6992V39.9124L2.80641 40.2813L1.85375 38.3632C2.55835 38.1489 3.24455 37.8775 3.90562 37.5516V37.6992ZM3.90562 33.6415V36.2237L3.24609 36.6663C2.14688 37.2565 1.04766 37.109 0.681257 36.6663C0.314853 36.2237 0.681261 34.822 2.0736 34.2318C2.30934 33.9798 2.59301 33.7781 2.90773 33.6386C3.22245 33.4992 3.56181 33.425 3.90562 33.4202V33.6415ZM-13.3887 10.3285L-1.0042 33.4202L-0.271388 34.6744C0.440473 33.666 1.43583 32.8952 2.58656 32.4611C1.1807 30.0109 0.400185 27.248 0.314858 24.4196C1.41407 18.6652 3.46593 27.1493 3.61249 28.6986V21.6162C2.07359 17.0421 -2.17669 15.3453 -2.9095 24.2721C-5.84074 14.7551 -7.67276 12.9845 -13.3887 10.3285ZM3.90562 36.0024C4.21683 35.7869 4.45428 35.4798 4.58546 35.1233C4.71664 34.7667 4.73514 34.378 4.63843 34.0104C4.57173 33.8605 4.47043 33.7287 4.34298 33.626C4.21553 33.5234 4.06559 33.4528 3.90562 33.4202V36.0024ZM12.9924 63.4468V69.939H8.88872C8.88872 68.3897 8.88872 66.7667 8.88872 65.0698C10.2243 64.4494 11.5945 63.9075 12.9924 63.4468ZM12.9924 50.5361C11.4399 51.0512 9.92224 51.6673 8.44904 52.3805L7.4231 52.8969C7.93607 55.7004 8.37575 59.094 8.59559 62.6353C10.0298 62.0116 11.4977 61.4697 12.9924 61.0122V59.0203C12.3038 58.9096 11.677 58.5554 11.2244 58.0213C10.7718 57.4872 10.5232 56.8082 10.5232 56.1061C10.5232 55.4041 10.7718 54.7251 11.2244 54.191C11.677 53.6568 12.3038 53.3027 12.9924 53.192V50.5361ZM12.9924 43.5274V48.1015C11.1605 48.6842 9.37268 49.3992 7.64295 50.241H6.98342C6.80314 48.8291 6.32867 47.4716 5.59108 46.2571C7.99476 45.202 10.4677 44.3146 12.9924 43.6012V43.5274ZM12.9924 35.1908L11.2337 34.7482C9.67949 37.7067 7.05628 39.9514 3.90562 41.0191V42.4208L5.07811 45.1505C7.64895 43.8323 10.3199 42.7221 13.0657 41.8306L12.9924 35.1908ZM12.9924 31.6496V33.7891L10.794 33.1989C10.155 34.7147 9.20413 36.077 8.00419 37.196C6.80424 38.315 5.3824 39.1654 3.83234 39.6911V37.4779C5.12074 36.992 6.28036 36.2133 7.22093 35.2024C8.1615 34.1915 8.85763 32.9757 9.25512 31.6496V30.543L10.2078 30.9856C11.1056 31.336 12.0397 31.5835 12.9924 31.7234V31.6496ZM12.9924 15.419V20.2144C8.88872 16.6732 12.1864 24.7885 12.9924 26.1902C6.32389 22.1326 6.98342 11.4352 12.9924 15.4928V15.419ZM3.90562 28.5511C4.63273 26.3226 4.63273 23.9184 3.90562 21.6899V28.5511ZM21.7129 61.4548V70.0128H12.9924V63.4468C15.8361 62.5285 18.754 61.862 21.7129 61.4548ZM21.7129 48.5442V50.6836C21.0242 50.7943 20.3974 51.1485 19.9448 51.6826C19.4923 52.2167 19.2436 52.8957 19.2436 53.5978C19.2436 54.2998 19.4923 54.9789 19.9448 55.513C20.3974 56.0471 21.0242 56.4012 21.7129 56.5119V59.0203C18.7588 59.4183 15.8422 60.0598 12.9924 60.9384V59.0203C13.6811 58.9096 14.3079 58.5554 14.7605 58.0213C15.2131 57.4872 15.4617 56.8082 15.4617 56.1061C15.4617 55.4041 15.2131 54.7251 14.7605 54.191C14.3079 53.6568 13.6811 53.3027 12.9924 53.192V50.6099C15.8339 49.6666 18.7518 48.9754 21.7129 48.5442ZM21.7129 41.1666C18.7548 41.6483 15.839 42.3636 12.9924 43.3061V47.8802C15.8422 47.0016 18.7588 46.3601 21.7129 45.962V41.1666ZM21.7129 34.6744V39.6173C18.7571 40.0764 15.8414 40.767 12.9924 41.6831V35.3384C15.893 35.8285 18.8633 35.7029 21.7129 34.9695V34.6744ZM21.7129 31.0594V33.1989C18.8464 33.8885 15.8589 33.8885 12.9924 33.1989V31.7234C15.8816 32.3665 18.8875 32.2394 21.7129 31.3545V31.0594ZM21.7129 26.8542C20.9282 26.5899 20.0793 26.5899 19.2946 26.8542C17.7557 26.8542 16.5832 28.1822 16.7298 29.0675C16.8763 29.9528 18.2687 30.3954 19.8076 30.0266C20.473 29.9994 21.1239 29.823 21.7129 29.5101V26.8542ZM21.7129 13.6484V26.1165C20.8662 25.9475 19.9947 25.9475 19.148 26.1165C17.9625 26.3352 16.8668 26.8996 15.997 27.7395C15.7298 25.0641 14.7416 22.5131 13.139 20.362V15.4928C14.0839 16.1746 14.9449 16.9671 15.7038 17.8536C14.3793 15.0821 13.643 12.063 13.5421 8.989C13.4412 5.91501 13.9777 2.85358 15.1176 0C18.9282 4.20519 19.9541 7.37753 20.2473 16.8945C20.6431 15.8669 21.1338 14.8789 21.7129 13.9435V13.6484ZM21.7129 25.8214H22.7388C22.1563 23.1056 22.2825 20.2843 23.1052 17.6323C25.9632 12.3943 25.3036 21.6162 25.0105 23.1655C29.847 16.8946 25.9632 6.41845 21.493 13.2796L21.7129 25.8214ZM21.7129 28.9937C21.9296 28.8508 22.1048 28.6526 22.2206 28.4193C22.3365 28.186 22.3888 27.926 22.3724 27.6657C22.332 27.4885 22.2514 27.323 22.137 27.1822C22.0226 27.0414 21.8775 26.9292 21.7129 26.8542V28.9937ZM31.0928 60.4958V70.0128H21.7129V61.4548C24.7222 61.0154 27.7589 60.7935 30.7997 60.7909L31.0928 60.4958ZM31.0928 47.5851V49.577C30.4042 49.6877 29.7773 50.0419 29.3248 50.576C28.8722 51.1101 28.6236 51.7891 28.6236 52.4911C28.6236 53.1932 28.8722 53.8722 29.3248 54.4063C29.7773 54.9404 30.4042 55.2946 31.0928 55.4053V58.0612C27.9475 58.1552 24.8128 58.4757 21.7129 59.0203V56.5857C22.4015 56.475 23.0284 56.1208 23.4809 55.5867C23.9335 55.0526 24.1821 54.3736 24.1821 53.6716C24.1821 52.9695 23.9335 52.2905 23.4809 51.7564C23.0284 51.2223 22.4015 50.8681 21.7129 50.7574V48.5442C24.7222 48.1047 27.7589 47.8828 30.7997 47.8802L31.0928 47.5851ZM31.0928 40.2076V45.0767C28.054 45.061 25.0177 45.2583 22.006 45.6669V41.4617C24.9623 40.9807 27.9516 40.734 30.9463 40.724L31.0928 40.2076ZM31.0928 30.1741H30.6531C28.0627 32.3874 25.0051 33.9769 21.7129 34.822V39.7649C24.6717 39.3142 27.6606 39.0922 30.6531 39.1009H31.0928V30.1741ZM31.0928 25.1574V27.9608L30.6531 27.592C28.1768 30.1238 25.0996 31.9775 21.7129 32.9776V31.3545C24.9925 30.2448 27.9242 28.2856 30.2134 25.6738L30.6531 25.2312L31.0928 25.1574ZM40.0331 61.4548V70.0128H31.0928V60.7909C34.0847 60.8007 37.0722 61.0226 40.0331 61.4548ZM40.0331 48.5442V50.9787C39.3445 51.0894 38.7176 51.4436 38.265 51.9777C37.8125 52.5118 37.5639 53.1908 37.5639 53.8929C37.5639 54.5949 37.8125 55.274 38.265 55.8081C38.7176 56.3422 39.3445 56.6963 40.0331 56.807V59.0203C37.0714 58.5951 34.0844 58.3732 31.0928 58.3563V55.8479C31.7814 55.7373 32.4083 55.3831 32.8609 54.849C33.3134 54.3149 33.562 53.6358 33.562 52.9338C33.562 52.2318 33.3134 51.5527 32.8609 51.0186C32.4083 50.4845 31.7814 50.1303 31.0928 50.0197V47.954C34.0848 47.9626 37.0723 48.1845 40.0331 48.6179V48.5442ZM40.0331 41.1666V45.8883C37.0714 45.463 34.0844 45.2412 31.0928 45.2243V40.7978C34.0875 40.8069 37.0769 41.0536 40.0331 41.5355V41.1666ZM40.0331 34.6744V39.6173C37.0761 39.1419 34.0873 38.8953 31.0928 38.8796V30.6905C33.6972 32.8354 36.7558 34.3498 40.0331 35.1171V34.6744ZM40.0331 31.0594C36.5834 30.007 33.4895 28.0156 31.0928 25.3049V28.1084C33.5859 30.5702 36.6638 32.3482 40.0331 33.2727V31.0594ZM40.0331 26.5591V29.5101C39.3003 29.0675 38.8606 28.4773 38.9339 27.8871C39.0154 27.6501 39.1619 27.4411 39.3564 27.2845C39.5509 27.1278 39.7855 27.0298 40.0331 27.0018V26.5591ZM40.0331 14.7551V26.1165C39.5216 26.1719 39.0248 26.322 38.5675 26.5591C39.1466 23.8431 39.0204 21.0226 38.2011 18.3701C35.3431 13.132 36.0026 22.3539 36.2958 23.9032C31.0928 17.3372 35.6362 6.49223 40.0331 14.7551ZM40.0331 29.5101C40.4862 29.7863 40.9814 29.9857 41.4987 30.1003C43.0376 30.1003 44.43 30.1003 44.5765 29.1413C44.7231 28.1822 43.5506 27.2969 42.0117 26.928C41.338 26.7593 40.6335 26.7593 39.9598 26.928L40.0331 29.5101ZM48.5337 63.4468V70.0128H40.0331V61.4548C42.9177 61.8745 45.7615 62.5409 48.5337 63.4468ZM48.5337 50.5361V52.7494C47.845 52.86 47.2182 53.2142 46.7656 53.7483C46.3131 54.2824 46.0644 54.9614 46.0644 55.6635C46.0644 56.3655 46.3131 57.0446 46.7656 57.5787C47.2182 58.1128 47.845 58.467 48.5337 58.5776V60.9384C45.7559 60.0703 42.9132 59.4288 40.0331 59.0203V56.807C40.7217 56.6963 41.3486 56.3422 41.8011 55.8081C42.2537 55.274 42.5023 54.5949 42.5023 53.8929C42.5023 53.1908 42.2537 52.5118 41.8011 51.9777C41.3486 51.4436 40.7217 51.0894 40.0331 50.9787V48.6179C42.9173 49.0393 45.761 49.7057 48.5337 50.6099V50.5361ZM48.5337 43.675C45.7587 42.7439 42.9168 42.0286 40.0331 41.5355V46.2571C42.9129 46.6669 45.7556 47.3084 48.5337 48.1753V43.675ZM48.5337 35.2646V42.0519C45.7568 41.1456 42.9149 40.455 40.0331 39.9862V35.1171C42.8268 35.7504 45.7199 35.8006 48.5337 35.2646ZM48.5337 31.7234V33.8629C45.7375 34.5177 42.8293 34.5177 40.0331 33.8629V31.5021C42.8022 32.2996 45.7273 32.3757 48.5337 31.7234ZM48.5337 15.419V20.2144C46.9311 22.3655 45.9429 24.9166 45.6757 27.592C44.8058 26.752 43.7102 26.1877 42.5246 25.9689C41.7967 25.8491 41.0542 25.8491 40.3262 25.9689V14.7551C40.7375 15.4694 41.1046 16.2085 41.4254 16.9683C41.4254 7.37753 42.6712 4.27897 46.5551 0.0737753C47.7177 2.91718 48.2791 5.97328 48.2034 9.04722C48.1277 12.1212 47.4166 15.1455 46.1154 17.9274C46.815 16.9935 47.6273 16.1509 48.5337 15.419ZM48.5337 26.264C49.5596 24.1983 52.0511 17.6323 48.5337 20.5095V15.419C54.3229 11.7303 54.616 22.1326 48.5337 26.1902V26.264ZM48.5337 48.3966V43.675C51.0414 44.4864 53.49 45.4724 55.8617 46.626C55.1592 47.7973 54.7098 49.1045 54.5427 50.4623H54.1763C52.3563 49.5559 50.4698 48.7913 48.5337 48.1753V48.3966ZM48.5337 61.3073V59.0203C49.2223 58.9096 49.8492 58.5554 50.3017 58.0213C50.7543 57.4872 51.0029 56.8082 51.0029 56.1061C51.0029 55.4041 50.7543 54.7251 50.3017 54.191C49.8492 53.6568 49.2223 53.3027 48.5337 53.192V50.9787C50.1114 51.49 51.6537 52.1062 53.1504 52.8231L53.8832 53.192C53.3702 55.9955 52.9305 59.3891 52.7107 62.9304C51.3553 62.2123 49.9608 61.5719 48.5337 61.0122V61.3073ZM48.5337 70.3079V63.4468C49.9051 63.8863 51.2507 64.4036 52.5641 64.9961C52.5641 66.6929 52.5641 68.3897 52.5641 69.939L48.5337 70.3079ZM57.6205 41.1666C54.4698 40.099 51.8466 37.8542 50.2924 34.8957L48.7535 35.2646V42.0519C51.422 42.9307 54.019 44.016 56.5213 45.298L57.6205 42.5684V41.1666ZM57.6205 37.4779C56.3321 36.992 55.1725 36.2133 54.2319 35.2024C53.2913 34.1915 52.5952 32.9757 52.1977 31.6496V30.543L51.2451 30.9856C50.5365 31.2994 49.8005 31.5464 49.0467 31.7234V33.8629L50.2924 33.2727C50.9315 34.7885 51.8823 36.1508 53.0822 37.2698C54.2822 38.3888 55.704 39.2392 57.2541 39.7649L57.6205 37.4779ZM57.6205 33.4202V36.0024C57.3093 35.7869 57.0719 35.4798 56.9407 35.1233C56.8095 34.7667 56.791 34.378 56.8877 34.0104C56.9544 33.8605 57.0557 33.7287 57.1831 33.626C57.3106 33.5234 57.4605 33.4528 57.6205 33.4202ZM57.6205 21.6162V28.4773C56.8934 26.2488 56.8934 23.8446 57.6205 21.6162ZM57.6205 28.4773C57.6205 27.0018 59.8189 18.4438 60.9181 24.1983C60.8105 27.033 60.0047 29.7964 58.5732 32.2398C59.7239 32.6738 60.7193 33.4447 61.4311 34.4531L62.1639 33.1989L74.695 10.3285C68.979 12.9845 67.3669 14.9764 63.9227 24.2721C63.1899 15.419 58.9396 16.8946 57.4007 21.6162L57.6205 28.4773ZM57.6205 35.8548V33.4202C58.1884 33.2115 58.8113 33.2115 59.3793 33.4202C60.4785 34.0104 61.0647 35.1171 60.7716 35.8548C60.4785 36.5926 59.306 36.7401 58.2068 35.8548H57.6205ZM57.6205 39.6173V37.4041C58.2836 37.7053 58.9698 37.9521 59.6724 38.1418L58.7197 40.06L57.6205 39.6173ZM57.6205 42.4946V41.1666H58.1335L57.6205 42.4946Z" fill="#A6763C" fill-opacity="0.1"/>
<path fill-rule="evenodd" clip-rule="evenodd" d="M-87.9942 93.5471C-97.4598 101.143 -106.15 109.669 -113.936 119C-109.996 112.577 -107.664 105.287 -107.141 97.7562C-106.618 90.2258 -107.918 82.68 -110.931 75.7673C-110.931 75.7673 -133.355 94.8013 -122.216 130.287L-122.729 131.025C-128.731 139.728 -133.838 149.022 -137.972 158.765C-136.65 151.779 -136.998 144.576 -138.986 137.752C-140.973 130.928 -144.544 124.677 -149.404 119.516C-153.555 128.271 -155.199 138.019 -154.151 147.663C-153.102 157.307 -149.403 166.466 -143.468 174.11C-146.727 185.037 -148.767 196.296 -149.55 207.678C-150.653 201.274 -153.292 195.239 -157.238 190.097C-161.185 184.954 -166.318 180.859 -172.194 178.167C-173.37 187.503 -171.895 196.983 -167.94 205.51C-163.984 214.036 -157.709 221.259 -149.843 226.343C-149.441 235.457 -148.387 244.53 -146.692 253.492C-149.405 248.709 -153.203 244.639 -157.774 241.614C-162.346 238.588 -167.563 236.692 -173 236.081C-172.185 245.346 -168.628 254.152 -162.788 261.359C-156.948 268.567 -149.095 273.844 -140.243 276.51C-134.13 291.936 -126.339 306.633 -117.013 320.332C-120.164 315.98 -138.998 291.929 -163.913 303.733C-159.207 311.625 -151.953 317.652 -143.363 320.807C-134.774 323.963 -125.369 324.056 -116.72 321.07L-116.354 322.029V321.66C-113.569 325.644 -110.491 329.481 -107.267 333.169C-102.649 338.334 -97.4047 342.894 -91.6582 346.744C-98.3255 343.219 -105.947 341.96 -113.383 343.157C-120.82 344.354 -127.672 347.942 -132.915 353.384C-125.865 359.076 -117.034 362.06 -108.001 361.803C-98.9667 361.546 -90.3176 358.066 -83.5973 351.982L-82.718 352.425C-70.8991 358.592 -58.6539 363.893 -46.0775 368.286C-53.7424 367.563 -61.4414 369.254 -68.1103 373.126C-74.7791 376.998 -80.0884 382.861 -83.3042 389.903C-83.3042 389.903 -57.6559 400.01 -38.0166 371.385L-33.8396 373.008L-27.3176 375.295C-28.504 376.661 -29.5136 378.173 -30.3221 379.795C-31.6156 382.356 -32.6233 385.053 -33.3266 387.837C-33.9775 388.019 -34.5484 388.416 -34.9473 388.965C-35.3462 389.514 -35.5497 390.182 -35.5251 390.862C-35.5911 391.273 -35.5677 391.694 -35.4563 392.095C-35.3449 392.497 -35.1482 392.869 -34.8799 393.186C-34.6116 393.503 -34.2781 393.758 -33.9023 393.933C-33.5266 394.108 -33.1177 394.198 -32.7038 394.198C-32.2899 394.198 -31.8809 394.108 -31.5052 393.933C-31.1294 393.758 -30.7959 393.503 -30.5276 393.186C-30.2593 392.869 -30.0626 392.497 -29.9512 392.095C-29.8399 391.694 -29.8164 391.273 -29.8824 390.862C-29.8739 390.363 -29.9822 389.869 -30.1986 389.421C-30.4151 388.972 -30.7336 388.581 -31.1282 388.28V387.468C-30.5014 385.254 -29.6671 383.105 -28.6367 381.05C-27.7805 379.258 -26.6142 377.634 -25.1925 376.254L-21.3086 377.582C-22.3688 378.66 -23.2807 379.876 -24.02 381.197C-25.2774 383.482 -26.0977 385.985 -26.4382 388.575C-26.5083 389.508 -26.5083 390.445 -26.4382 391.378V391.821C-26.8993 392.106 -27.2776 392.508 -27.5349 392.988C-27.7922 393.467 -27.9195 394.006 -27.9039 394.55C-27.9699 394.962 -27.9464 395.383 -27.8351 395.784C-27.7237 396.185 -27.527 396.558 -27.2587 396.875C-26.9904 397.192 -26.6569 397.447 -26.2811 397.622C-25.9054 397.796 -25.4964 397.887 -25.0825 397.887C-24.6686 397.887 -24.2597 397.796 -23.8839 397.622C-23.5082 397.447 -23.1747 397.192 -22.9064 396.875C-22.6381 396.558 -22.4414 396.185 -22.33 395.784C-22.2186 395.383 -22.1952 394.962 -22.2612 394.55C-22.2487 393.932 -22.4245 393.325 -22.7652 392.811C-23.1059 392.296 -23.5949 391.899 -24.1665 391.673C-24.2215 390.887 -24.2215 390.098 -24.1665 389.312C-23.8589 387.139 -23.1638 385.04 -22.1147 383.115C-21.3661 381.76 -20.4004 380.539 -19.2567 379.5L-18.6705 379.058L-0.276962 385.402L1.18864 382.894L-13.7607 376.254C-13.8339 373.888 -13.2773 371.544 -12.1485 369.467C-11.1467 367.919 -9.8212 366.609 -8.26457 365.631C-7.78792 366.018 -7.19199 366.227 -6.57912 366.221C-5.9613 366.28 -5.34004 366.15 -4.79689 365.848C-4.25372 365.546 -3.81404 365.085 -3.53552 364.527C-3.25702 363.968 -3.15269 363.338 -3.23625 362.719C-3.31981 362.1 -3.58734 361.521 -4.00374 361.057C-4.42014 360.594 -4.96593 360.268 -5.56952 360.123C-6.17311 359.977 -6.80627 360.019 -7.38593 360.242C-7.96559 360.466 -8.46465 360.86 -8.81761 361.374C-9.17058 361.888 -9.36096 362.497 -9.36378 363.122C-11.2223 364.281 -12.7997 365.844 -13.9805 367.696C-15.2672 369.944 -15.9727 372.48 -16.0323 375.074L-19.9895 373.598C-20.6849 370.764 -20.6849 367.801 -19.9895 364.967C-19.4754 362.673 -18.3623 360.559 -16.7652 358.843H-15.666C-15.0481 358.903 -14.4269 358.773 -13.8837 358.47C-13.3406 358.168 -12.9009 357.708 -12.6224 357.149C-12.3438 356.591 -12.2395 355.961 -12.3231 355.342C-12.4066 354.722 -12.6742 354.143 -13.0906 353.68C-13.507 353.217 -14.0528 352.891 -14.6563 352.745C-15.2599 352.6 -15.8931 352.641 -16.4728 352.865C-17.0524 353.088 -17.5515 353.483 -17.9044 353.997C-18.2574 354.51 -18.4478 355.12 -18.4506 355.745C-18.5606 356.23 -18.5606 356.735 -18.4506 357.22C-20.1598 359.213 -21.3664 361.592 -21.9681 364.155C-22.7065 366.918 -22.9056 369.8 -22.5544 372.639L-26.0718 371.385C-26.3076 370.885 -26.5036 370.367 -26.6581 369.836C-27.1207 368.22 -27.4395 366.566 -27.6107 364.893C-27.6107 363.344 -27.6107 361.794 -27.6107 360.466C-27.6107 359.138 -27.6107 358.179 -27.6107 357.294C-26.9996 357.089 -26.4703 356.691 -26.1009 356.159C-25.7314 355.628 -25.5414 354.991 -25.5589 354.343C-25.4928 353.932 -25.5163 353.511 -25.6277 353.109C-25.7391 352.708 -25.9357 352.336 -26.204 352.019C-26.4723 351.701 -26.8058 351.446 -27.1816 351.272C-27.5573 351.097 -27.9663 351.006 -28.3802 351.006C-28.7941 351.006 -29.203 351.097 -29.5788 351.272C-29.9545 351.446 -30.2881 351.701 -30.5564 352.019C-30.8247 352.336 -31.0213 352.708 -31.1327 353.109C-31.2441 353.511 -31.2676 353.932 -31.2015 354.343C-31.2121 354.868 -31.0898 355.387 -30.8463 355.852C-30.6027 356.317 -30.2458 356.711 -29.8092 356.999C-30.06 359.772 -30.06 362.562 -29.8092 365.335C-29.605 367.057 -29.2619 368.76 -28.7832 370.426L-30.7618 369.688L-32.5938 368.95L-35.8915 367.696C-35.8915 359.802 -37.5036 330.809 -61.8329 321.439C-62.5891 329.664 -61.2888 337.949 -58.0505 345.539C-54.8123 353.129 -49.7389 359.782 -43.2928 364.893L-44.9783 364.967C-57.5604 360.588 -69.8067 355.286 -81.6187 349.105C-79.0539 339.809 -74.2906 313.914 -93.0506 297.462C-96.1459 305.165 -97.3492 313.507 -96.5582 321.778C-95.7672 330.049 -93.0054 338.006 -88.5071 344.973C-94.4734 341.04 -99.8946 336.326 -104.629 330.956C-107.931 327.16 -111.037 323.195 -113.936 319.078C-108.586 310.963 -96.9344 288.83 -109.759 266.403C-114.7 272.292 -118.217 279.254 -120.036 286.742C-121.854 294.231 -121.923 302.041 -120.238 309.561C-126.523 299.241 -131.987 288.436 -136.579 277.248C-128.136 273.403 -121.046 267.073 -116.246 259.093C-111.445 251.112 -109.158 241.855 -109.685 232.54C-109.685 232.54 -134.381 239.475 -138.338 272.674C-140.903 265.96 -142.222 261.681 -142.295 261.534C-144.783 250.747 -146.328 239.762 -146.912 228.704C-137.805 227.535 -129.317 223.434 -122.714 217.013C-116.111 210.591 -111.746 202.193 -110.272 193.07C-110.272 193.07 -135.7 192.701 -146.912 223.687C-147.459 207.948 -145.581 192.22 -141.343 177.061C-132.87 179.684 -123.757 179.281 -115.545 175.921C-107.334 172.56 -100.527 166.448 -96.2749 158.617C-103.83 155.777 -112.09 155.448 -119.845 157.678C-127.599 159.909 -134.44 164.581 -139.364 171.011C-134.839 157.582 -128.449 144.865 -120.384 133.238C-113.056 138.476 -92.3177 150.354 -73.4113 133.755C-78.9812 128.422 -86.0358 124.929 -93.6312 123.742C-101.227 122.556 -109.001 123.732 -115.914 127.115C-107.352 116.001 -97.5123 105.947 -86.6018 97.1621C-81.0325 101.958 -59.5612 118.262 -38.5296 101.884C-43.7205 96.2328 -50.4825 92.288 -57.9337 90.564C-65.3848 88.84 -73.179 89.4168 -80.2997 92.2192C-74.1814 87.6023 -67.7404 83.4355 -61.0268 79.7511C-49.8148 80.2676 -17.0583 79.2347 -12.2218 50.241C-12.2218 50.241 -43.8791 39.1747 -63.5184 77.0214C-69.374 80.3149 -75.0269 83.9611 -80.4463 87.9402C-75.2952 81.4704 -71.9098 73.7597 -70.6247 65.5696C-69.3395 57.3796 -70.199 48.9937 -73.1182 41.2404C-73.1182 41.2404 -96.2749 58.4301 -87.9942 93.5471Z" fill="#A6763C" fill-opacity="0.1"/>
<path fill-rule="evenodd" clip-rule="evenodd" d="M149.289 93.5471C158.754 101.143 167.444 109.67 175.231 119C171.338 112.552 169.058 105.25 168.585 97.7197C168.113 90.1895 169.463 82.6565 172.52 75.7673C172.52 75.7673 194.943 94.8013 183.805 130.287L184.318 131.025C190.32 139.727 195.427 149.021 199.56 158.765C198.239 151.779 198.586 144.576 200.574 137.752C202.562 130.928 206.132 124.677 210.992 119.516C215.144 128.271 216.788 138.019 215.739 147.663C214.691 157.307 210.991 166.466 205.056 174.11C208.452 185.07 210.615 196.379 211.505 207.825C212.608 201.422 215.247 195.387 219.193 190.244C223.139 185.101 228.273 181.006 234.149 178.315C235.31 187.692 233.798 197.207 229.788 205.751C225.779 214.294 219.437 221.513 211.505 226.564C211.101 235.678 210.048 244.751 208.354 253.713C211.006 248.936 214.734 244.851 219.24 241.789C223.746 238.726 228.902 236.771 234.295 236.081C233.447 245.329 229.866 254.109 224.014 261.289C218.163 268.468 210.309 273.719 201.465 276.362C195.35 291.787 187.559 306.484 178.235 320.185C181.386 315.832 200.22 291.781 225.135 303.586C220.429 311.477 213.175 317.504 204.585 320.66C195.996 323.815 186.591 323.908 177.942 320.923L177.576 321.882V321.513C174.791 325.497 171.713 329.333 168.489 333.022C163.88 338.239 158.636 342.849 152.88 346.744C159.532 343.227 167.133 341.967 174.554 343.15C181.974 344.333 188.817 347.896 194.064 353.31C187.014 359.002 178.183 361.986 169.149 361.729C160.115 361.473 151.466 357.992 144.746 351.908L143.867 352.351C132.048 358.518 119.803 363.819 107.226 368.213C114.891 367.489 122.59 369.18 129.259 373.052C135.928 376.925 141.237 382.787 144.453 389.829C144.453 389.829 118.805 399.936 99.1653 371.311L94.9883 372.934L88.3931 375.221C89.5801 376.587 90.5897 378.099 91.3976 379.722C92.6549 382.359 93.6135 385.131 94.2555 387.984C94.9064 388.166 95.4773 388.564 95.8762 389.113C96.2751 389.662 96.4786 390.33 96.4539 391.009C96.52 391.421 96.4965 391.841 96.3851 392.243C96.2738 392.644 96.0771 393.016 95.8088 393.334C95.5405 393.651 95.207 393.906 94.8312 394.08C94.4555 394.255 94.0465 394.346 93.6326 394.346C93.2187 394.346 92.8098 394.255 92.434 394.08C92.0583 393.906 91.7247 393.651 91.4564 393.334C91.1881 393.016 90.9915 392.644 90.8801 392.243C90.7687 391.841 90.7452 391.421 90.8113 391.009C90.8027 390.511 90.9111 390.017 91.1275 389.568C91.344 389.12 91.6624 388.729 92.0571 388.427V387.616C91.4315 385.401 90.5972 383.252 89.5655 381.197C88.7093 379.405 87.5431 377.782 86.1213 376.402L82.2375 377.73C83.2964 378.808 84.2081 380.024 84.9488 381.345C86.2047 383.631 87.0249 386.133 87.3671 388.722C87.2682 389.493 87.1213 390.257 86.9274 391.009V391.452C87.3885 391.737 87.7668 392.14 88.0241 392.619C88.2814 393.098 88.4087 393.637 88.3931 394.182C88.4591 394.593 88.4356 395.014 88.3243 395.415C88.2129 395.816 88.0162 396.189 87.7479 396.506C87.4796 396.823 87.1461 397.078 86.7703 397.253C86.3946 397.428 85.9856 397.518 85.5717 397.518C85.1578 397.518 84.7489 397.428 84.3731 397.253C83.9974 397.078 83.6639 396.823 83.3956 396.506C83.1273 396.189 82.9306 395.816 82.8192 395.415C82.7078 395.014 82.6844 394.593 82.7504 394.182C82.748 393.566 82.9279 392.963 83.2673 392.451C83.6067 391.938 84.09 391.539 84.6557 391.304C84.7106 390.518 84.7106 389.73 84.6557 388.944C84.3481 386.77 83.653 384.671 82.6039 382.746C81.8553 381.391 80.8896 380.17 79.7459 379.131L79.5993 378.467L61.2059 384.812L59.7402 382.304L75.0559 376.254C75.1292 373.888 74.5726 371.544 73.4438 369.467C72.442 367.919 71.1165 366.609 69.5599 365.631C69.0832 366.018 68.4873 366.227 67.8744 366.221C67.2566 366.28 66.6353 366.15 66.0922 365.848C65.549 365.546 65.1093 365.085 64.8308 364.527C64.5523 363.968 64.448 363.338 64.5315 362.719C64.6151 362.1 64.8826 361.521 65.299 361.057C65.7154 360.594 66.2612 360.268 66.8648 360.123C67.4684 359.977 68.1016 360.019 68.6812 360.242C69.2609 360.466 69.7599 360.86 70.1129 361.374C70.4659 361.888 70.6562 362.497 70.6591 363.122C72.5176 364.281 74.095 365.844 75.2758 367.696C76.5624 369.944 77.2679 372.48 77.3276 375.074L81.2848 373.598C81.9801 370.764 81.9801 367.801 81.2848 364.967C80.7707 362.673 79.6576 360.559 78.0605 358.843H77.4009C76.7831 358.903 76.1618 358.773 75.6187 358.47C75.0755 358.168 74.6358 357.708 74.3573 357.149C74.0788 356.591 73.9745 355.961 74.058 355.342C74.1416 354.722 74.4091 354.143 74.8255 353.68C75.2419 353.217 75.7877 352.891 76.3913 352.745C76.9949 352.6 77.6281 352.641 78.2077 352.865C78.7874 353.088 79.2864 353.483 79.6394 353.997C79.9924 354.51 80.1828 355.12 80.1856 355.745C80.2981 356.23 80.2981 356.735 80.1856 357.22C81.8948 359.213 83.1014 361.592 83.7031 364.155C84.4415 366.918 84.6405 369.8 84.2893 372.639L87.8068 371.385C88.0443 370.886 88.2404 370.368 88.3931 369.836C88.8546 368.22 89.1734 366.565 89.3457 364.893C89.3457 363.344 89.3457 361.794 89.3457 360.466C89.3457 359.138 89.3457 358.179 89.3457 357.294C88.7346 357.089 88.2053 356.691 87.8359 356.159C87.4664 355.628 87.2764 354.991 87.2938 354.343C87.2278 353.932 87.2512 353.511 87.3626 353.109C87.474 352.708 87.6707 352.336 87.939 352.019C88.2073 351.701 88.5408 351.446 88.9166 351.272C89.2923 351.097 89.7013 351.006 90.1152 351.006C90.5291 351.006 90.938 351.097 91.3138 351.272C91.6895 351.446 92.023 351.701 92.2913 352.019C92.5596 352.336 92.7563 352.708 92.8677 353.109C92.9791 353.511 93.0025 353.932 92.9365 354.343C92.947 354.868 92.8248 355.387 92.5812 355.852C92.3377 356.317 91.9808 356.711 91.5441 356.999C91.795 359.772 91.795 362.562 91.5441 365.335C91.3406 367.058 90.9975 368.76 90.5182 370.426L92.4968 369.688L94.3288 368.95L97.6264 367.696C97.6264 359.802 99.2386 330.809 123.568 321.439C124.324 329.664 123.024 337.949 119.785 345.539C116.547 353.129 111.474 359.782 105.028 364.893L106.64 364.303C119.222 359.924 131.468 354.622 143.28 348.441C140.716 339.145 135.952 313.25 154.712 296.798C157.808 304.501 159.011 312.843 158.22 321.114C157.429 329.385 154.667 337.342 150.169 344.309C156.135 340.376 161.556 335.662 166.291 330.292C169.33 326.622 172.192 322.806 174.864 318.857C169.515 310.742 157.863 288.609 170.687 266.181C175.629 272.071 179.146 279.033 180.965 286.521C182.783 294.009 182.852 301.82 181.167 309.34C187.452 299.02 192.916 288.215 197.508 277.026C189.064 273.181 181.975 266.852 177.175 258.871C172.374 250.891 170.087 241.633 170.614 232.319C170.614 232.319 195.31 239.253 199.267 272.452C201.905 265.739 203.151 261.46 203.224 261.312C205.846 250.611 207.538 239.7 208.281 228.704C199.173 227.535 190.686 223.434 184.082 217.013C177.479 210.591 173.115 202.193 171.64 193.07C171.64 193.07 197.142 192.701 208.281 223.687C208.805 207.945 206.902 192.216 202.638 177.061C194.193 179.652 185.12 179.241 176.941 175.896C168.762 172.552 161.974 166.477 157.717 158.691C165.272 155.851 173.532 155.522 181.286 157.752C189.041 159.983 195.882 164.655 200.806 171.085C196.401 157.651 190.135 144.909 182.193 133.238C174.864 138.476 154.126 150.354 135.22 133.755C140.789 128.422 147.844 124.929 155.439 123.742C163.035 122.556 170.809 123.732 177.722 127.115C169.159 116.002 159.32 105.948 148.41 97.1621C142.841 101.958 121.369 118.262 100.338 101.884C105.529 96.2328 112.291 92.288 119.742 90.564C127.193 88.84 134.987 89.4168 142.108 92.2192C135.99 87.6019 129.549 83.435 122.835 79.7511C111.623 80.2676 78.8665 79.2347 74.03 50.241C74.03 50.241 105.687 39.1747 125.327 77.0214C131.158 80.3168 136.786 83.963 142.181 87.9402C137.037 81.467 133.656 73.7565 132.371 65.5679C131.086 57.3793 131.941 48.9949 134.853 41.2404C134.853 41.2404 157.497 58.4301 149.289 93.5471Z" fill="#A6763C" fill-opacity="0.1"/>
<path fill-rule="evenodd" clip-rule="evenodd" d="M39.5148 397.723C42.0797 399.715 39.9545 407.24 36.7302 408.789L37.8294 409.232C40.1934 410.458 42.7994 411.139 45.4577 411.223C48.1159 411.307 50.7593 410.794 53.1954 409.719C55.6315 408.645 57.7989 407.037 59.5396 405.013C61.2803 402.989 62.5506 400.599 63.2578 398.018C59.4472 393.886 43.3987 375.369 45.5971 353.089H32.6997V384.812C34.117 384.465 35.5961 384.464 37.0139 384.809C38.4317 385.153 39.7473 385.834 40.8512 386.794C41.9551 387.753 42.8153 388.965 43.3604 390.327C43.9055 391.689 44.1196 393.162 43.985 394.624C43.985 394.993 37.6828 384.96 32.6997 395.436V398.387C33.5249 397.419 34.6726 396.788 35.9273 396.611C37.182 396.434 38.4576 396.725 39.5148 397.428M32.6997 434.315H56.6626C49.7741 431.438 34.6783 427.602 32.6997 414.101V413.142C36.3216 415.414 40.4406 416.759 44.6974 417.061C48.9543 417.362 53.2198 416.611 57.122 414.872C61.0243 413.133 64.4448 410.46 67.0854 407.085C69.7259 403.71 71.5063 399.736 72.2714 395.51C52.852 377.803 44.5712 361.72 54.0977 342.096C54.7573 340.768 55.6366 344.605 57.9083 346.08C60.18 347.556 64.5036 346.818 64.7967 341.137C65.3097 330.44 53.6581 329.407 48.8948 340.768C47.8036 343.36 46.969 346.053 46.4032 348.81H32.6997V341.875C33.0872 341.947 33.4846 341.947 33.8722 341.875C34.9547 341.763 35.951 341.23 36.649 340.389C37.347 339.549 37.6916 338.467 37.6095 337.375C37.6662 336.353 37.3574 335.344 36.7389 334.532C36.1205 333.72 35.2334 333.158 34.2386 332.948C34.301 332.483 34.301 332.011 34.2386 331.546C34.4006 330.975 34.4287 330.374 34.3208 329.791C34.2129 329.207 33.9719 328.656 33.6167 328.182C33.2615 327.708 32.8019 327.324 32.274 327.059C31.7461 326.794 31.1644 326.656 30.5746 326.656C29.9848 326.656 29.403 326.794 28.8751 327.059C28.3472 327.324 27.8876 327.708 27.5324 328.182C27.1772 328.656 26.9362 329.207 26.8283 329.791C26.7204 330.374 26.7485 330.975 26.9105 331.546C26.8472 332.011 26.8472 332.483 26.9105 332.948C25.9157 333.158 25.0286 333.72 24.4102 334.532C23.7918 335.344 23.4829 336.353 23.5396 337.375C23.4575 338.467 23.8021 339.549 24.5002 340.389C25.1982 341.23 26.1944 341.763 27.2769 341.875C27.6645 341.947 28.0619 341.947 28.4494 341.875V348.81H15.1123C14.5456 346.053 13.7111 343.36 12.6207 340.768C7.85749 329.407 -3.79417 330.513 -3.28121 341.137C-3.28121 346.818 0.969076 347.703 3.60719 346.08C6.2453 344.457 6.75827 340.768 7.4178 342.096C16.9443 361.72 8.66358 377.803 -10.7559 395.51C-9.97377 399.668 -8.20521 403.574 -5.60074 406.896C-2.99627 410.218 0.366978 412.857 4.20263 414.588C8.03828 416.32 12.2328 417.092 16.4289 416.841C20.6251 416.589 24.6987 415.32 28.3029 413.142V414.101C26.3243 427.676 11.2284 431.512 4.34 434.315H32.6997ZM23.5396 409.084C21.1756 410.311 18.5695 410.991 15.9113 411.076C13.2531 411.16 10.6096 410.646 8.17355 409.572C5.73746 408.498 3.57012 406.89 1.82938 404.865C0.0886507 402.841 -1.18163 400.451 -1.88888 397.87C1.84845 393.739 17.9702 375.221 15.8451 352.941H28.3029V384.665C26.8856 384.318 25.4065 384.316 23.9887 384.661C22.5708 385.006 21.2552 385.686 20.1514 386.646C19.0475 387.606 18.1872 388.817 17.6421 390.179C17.0971 391.541 16.8829 393.015 17.0176 394.477C17.0176 394.846 23.3198 384.812 28.3029 395.288V398.387C27.4776 397.419 26.33 396.788 25.0753 396.611C23.8205 396.434 22.5449 396.725 21.4877 397.428C18.9229 399.42 21.0481 406.945 24.2724 408.494L23.5396 409.084Z" fill="#A6763C" fill-opacity="0.1"/>
</svg>
